<svg width="51" height="50" viewBox="0 0 51 50" fill="none" xmlns="http://www.w3.org/2000/svg">
<g clip-path="url(#clip0_25_30)">
<path d="M43.3865 32.8528H7.27985C5.59097 32.8528 4.22208 31.4839 4.22208 29.795V10.9256C4.22208 9.23669 5.59097 7.8678 7.27985 7.8678H43.386C45.0749 7.8678 46.4437 9.23669 46.4437 10.9256V29.7945C46.4443 31.4839 45.0754 32.8528 43.3865 32.8528Z" fill="#D11F1F"/>
<path d="M46.7243 22.9466H37.4415C37.1976 22.9466 36.9815 22.7872 36.9104 22.5533L33.8549 12.565H31.0404C30.7332 12.565 30.4849 12.3161 30.4849 12.0094C30.4849 11.7027 30.7332 11.4539 31.0404 11.4539H34.2665C34.5104 11.4539 34.7265 11.6133 34.7976 11.8472L37.8532 21.8355H46.3554L48.9415 15.6794H40.4093C40.1021 15.6794 39.8538 15.4305 39.8538 15.1239C39.8538 14.8172 40.1021 14.5683 40.4093 14.5683H49.7776C49.9638 14.5683 50.1371 14.6611 50.2404 14.8161C50.3438 14.9711 50.3621 15.1672 50.2899 15.3389L47.2365 22.6061C47.1499 22.8127 46.9476 22.9466 46.7243 22.9466Z" fill="black"/>
<path d="M37.3187 27.9978C36.2693 27.9978 35.416 27.1444 35.416 26.095C35.416 25.0455 36.2693 24.1922 37.3187 24.1922C38.3682 24.1922 39.2215 25.0461 39.2215 26.095C39.2215 27.1439 38.3682 27.9978 37.3187 27.9978ZM37.3187 25.3033C36.8826 25.3033 36.5271 25.6583 36.5271 26.095C36.5271 26.5311 36.8826 26.8866 37.3187 26.8866C37.7548 26.8866 38.1104 26.5311 38.1104 26.095C38.1104 25.6589 37.7548 25.3033 37.3187 25.3033Z" fill="black"/>
<path d="M46.541 27.9978C45.4915 27.9978 44.6376 27.1444 44.6376 26.095C44.6376 25.0455 45.4915 24.1922 46.541 24.1922C47.5904 24.1922 48.4437 25.0461 48.4437 26.095C48.4437 27.1439 47.5904 27.9978 46.541 27.9978ZM46.541 25.3033C46.1043 25.3033 45.7487 25.6583 45.7487 26.095C45.7487 26.5311 46.1043 26.8866 46.541 26.8866C46.9771 26.8866 47.3326 26.5311 47.3326 26.095C47.3326 25.6589 46.9771 25.3033 46.541 25.3033Z" fill="black"/>
<path d="M30.3576 22.9467H11.9026C11.596 22.9467 11.3471 22.6978 11.3471 22.3911C11.3471 22.0845 11.596 21.8356 11.9026 21.8356H30.3576C30.6649 21.8356 30.9132 22.0845 30.9132 22.3911C30.9132 22.6978 30.6649 22.9467 30.3576 22.9467Z" fill="black"/>
<path d="M29.0932 17.7561H7.50987C7.2032 17.7561 6.95432 17.5072 6.95432 17.2006C6.95432 16.8939 7.2032 16.645 7.50987 16.645H29.0932C29.4004 16.645 29.6488 16.8939 29.6488 17.2006C29.6488 17.5072 29.3999 17.7561 29.0932 17.7561Z" fill="black"/>
<path d="M14.4232 36.7417H3.38541C1.70264 36.7417 0.333191 35.3722 0.333191 33.6894V7.0311C0.333191 5.34833 1.70264 3.97888 3.38541 3.97888H47.281C48.9637 3.97888 50.3332 5.34833 50.3332 7.0311V9.17666C50.3332 9.48333 50.0849 9.73221 49.7776 9.73221C49.4704 9.73221 49.2221 9.48333 49.2221 9.17666V7.0311C49.2221 5.96055 48.3515 5.08999 47.281 5.08999H3.38541C2.31486 5.08999 1.4443 5.96055 1.4443 7.0311V33.6889C1.4443 34.7594 2.31486 35.63 3.38541 35.63H14.4232C14.7299 35.63 14.9787 35.8783 14.9787 36.1855C14.9787 36.4928 14.7299 36.7417 14.4232 36.7417Z" fill="black"/>
<path d="M25.7876 36.7417H20.9493C20.6426 36.7417 20.3937 36.4933 20.3937 36.1861C20.3937 35.8789 20.6426 35.6306 20.9493 35.6306H25.7876C26.0948 35.6306 26.3432 35.8789 26.3432 36.1861C26.3432 36.4933 26.0948 36.7417 25.7876 36.7417Z" fill="black"/>
<path d="M47.281 36.7417H30.626C30.3188 36.7417 30.0704 36.4933 30.0704 36.1861C30.0704 35.8789 30.3188 35.6306 30.626 35.6306H47.281C48.3515 35.6306 49.2221 34.76 49.2221 33.6895V31.355H6.04265C5.73598 31.355 5.48709 31.1067 5.48709 30.7995C5.48709 30.4922 5.73598 30.2439 6.04265 30.2439H49.7776C50.0849 30.2439 50.3332 30.4922 50.3332 30.7995V33.6895C50.3332 35.3722 48.9638 36.7417 47.281 36.7417Z" fill="black"/>
<path d="M36.7554 46.0211H14.8204C14.5138 46.0211 14.2649 45.7728 14.2649 45.4656C14.2649 43.2456 16.071 41.4395 18.2915 41.4395H18.6876L20.4204 36.0167C20.5138 35.725 20.8282 35.5617 21.1188 35.6572C21.411 35.7506 21.5721 36.0628 21.4788 36.3556L19.6226 42.1645C19.5493 42.3945 19.3349 42.5506 19.0932 42.5506H18.291C16.8732 42.5506 15.6888 43.5672 15.4288 44.91H36.146C35.886 43.5672 34.701 42.5506 33.2838 42.5506H32.4821C32.2404 42.5506 32.0265 42.3945 31.9532 42.1645L30.0971 36.3556C30.0032 36.0634 30.1649 35.7506 30.4565 35.6572C30.7504 35.56 31.0615 35.725 31.1549 36.0167L32.8876 41.4395H33.2838C35.5043 41.4395 37.3104 43.2456 37.3104 45.4656C37.311 45.7728 37.0621 46.0211 36.7554 46.0211Z" fill="black"/>
<path d="M26.3515 33.6955H25.2237C24.9171 33.6955 24.6682 33.4472 24.6682 33.14C24.6682 32.8327 24.9171 32.5844 25.2237 32.5844H26.3515C26.6587 32.5844 26.9071 32.8327 26.9071 33.14C26.9071 33.4472 26.6587 33.6955 26.3515 33.6955Z" fill="black"/>
</g>
<defs>
<clipPath id="clip0_25_30">
<rect width="50" height="50" fill="white" transform="translate(0.333191)"/>
</clipPath>
</defs>
</svg>
