<svg width="50" height="50" viewBox="0 0 50 50" fill="none" xmlns="http://www.w3.org/2000/svg">
<g clip-path="url(#clip0_25_43)">
<path d="M44.4843 45.3978H5.51542C5.01097 45.3978 4.60209 44.9889 4.60209 44.4845V5.51557C4.60209 5.01112 5.01097 4.60223 5.51542 4.60223H44.4843C44.9887 4.60223 45.3976 5.01112 45.3976 5.51557V44.4845C45.3976 44.9889 44.9887 45.3978 44.4843 45.3978Z" fill="#D11F1F"/>
<path d="M49.4443 30.6611C49.1371 30.6611 48.8888 30.4122 48.8888 30.1056V1.11111H31.7854C31.4782 1.11111 31.2299 0.862222 31.2299 0.555556C31.2299 0.248889 31.4782 0 31.7854 0H49.4443C49.7515 0 49.9999 0.248889 49.9999 0.555556V30.1056C49.9999 30.4128 49.7515 30.6611 49.4443 30.6611Z" fill="black"/>
<path d="M23.7249 50H0.555418C0.248752 50 -0.000137329 49.7517 -0.000137329 49.4444V0.555556C-0.000137329 0.248889 0.248752 0 0.555418 0H12.6593C12.966 0 13.2149 0.248889 13.2149 0.555556C13.2149 0.862222 12.966 1.11111 12.6593 1.11111H1.11097V48.8889H23.7249C24.0315 48.8889 24.2804 49.1372 24.2804 49.4444C24.2804 49.7517 24.0315 50 23.7249 50Z" fill="black"/>
<path d="M31.7854 14.6817C31.6682 14.6817 31.5521 14.645 31.4543 14.5722L24.9999 9.78L18.546 14.5722C18.3776 14.6983 18.1526 14.7172 17.9654 14.6228C17.7776 14.5283 17.6593 14.3361 17.6593 14.1261V0.555556C17.6593 0.248889 17.9082 0 18.2149 0H24.9999C25.3065 0 25.5554 0.248889 25.5554 0.555556C25.5554 0.862222 25.3065 1.11111 24.9999 1.11111H18.7704V13.0217L24.6688 8.64222C24.8654 8.49611 25.1343 8.49611 25.331 8.64222L31.2299 13.0217V0.555556C31.2299 0.248889 31.4782 0 31.7854 0C32.0926 0 32.341 0.248889 32.341 0.555556V14.1261C32.341 14.3361 32.2226 14.5283 32.0349 14.6228C31.956 14.6622 31.8704 14.6817 31.7854 14.6817Z" fill="black"/>
<path d="M16.9888 38.0861H7.76764C7.46097 38.0861 7.21209 37.8378 7.21209 37.5305C7.21209 37.2233 7.46097 36.975 7.76764 36.975H16.9888C17.2954 36.975 17.5443 37.2233 17.5443 37.5305C17.5443 37.8378 17.2954 38.0861 16.9888 38.0861Z" fill="black"/>
<path d="M16.9888 43.1239H7.76764C7.46097 43.1239 7.21209 42.8755 7.21209 42.5683C7.21209 42.2611 7.46097 42.0128 7.76764 42.0128H16.9888C17.2954 42.0128 17.5443 42.2611 17.5443 42.5683C17.5443 42.8755 17.2954 43.1239 16.9888 43.1239Z" fill="black"/>
<path d="M49.4443 50H28.3937C28.0871 50 27.8382 49.7517 27.8382 49.4444V35.3656C27.8382 35.0583 28.0871 34.81 28.3937 34.81H49.4443C49.7515 34.81 49.9999 35.0583 49.9999 35.3656V49.4444C49.9999 49.7517 49.7515 50 49.4443 50ZM28.9493 48.8889H48.8888V35.9211H28.9493V48.8889Z" fill="black"/>
<path d="M38.9187 45.3672C38.786 45.3672 38.6532 45.32 38.5476 45.225L31.481 38.8828C31.2526 38.6778 31.2338 38.3266 31.4388 38.0983C31.6426 37.8705 31.9943 37.85 32.2232 38.0561L38.9187 44.065L45.6143 38.0561C45.8421 37.8511 46.1937 37.8694 46.3987 38.0983C46.6037 38.3266 46.5849 38.6778 46.3565 38.8828L39.2899 45.225C39.1843 45.32 39.0515 45.3672 38.9187 45.3672Z" fill="black"/>
</g>
<defs>
<clipPath id="clip0_25_43">
<rect width="50" height="50" fill="white"/>
</clipPath>
</defs>
</svg>
