<svg width="51" height="50" viewBox="0 0 51 50" fill="none" xmlns="http://www.w3.org/2000/svg">
<g clip-path="url(#clip0_25_71)">
<path d="M45.151 45.3978H6.18207C5.67763 45.3978 5.26874 44.9889 5.26874 44.4845V5.51557C5.26874 5.01112 5.67763 4.60223 6.18207 4.60223H45.151C45.6554 4.60223 46.0643 5.01112 46.0643 5.51557V44.4845C46.0643 44.9889 45.6554 45.3978 45.151 45.3978Z" fill="#D11F1F"/>
<path d="M35.3768 50C38.5526 50 42.1345 48.1515 45.4659 44.7952C48.8517 41.4342 50.7003 37.8212 50.666 34.6236C50.6474 32.7969 50.0047 31.1911 48.8595 30.1003C48.7988 30.0396 48.7241 29.9727 48.6479 29.9105C48.5748 29.8482 48.4985 29.7922 48.4207 29.7378C48.3165 29.6646 48.2433 29.6211 48.1687 29.5775C48.1655 29.5759 48.1173 29.5464 48.1142 29.5464C48.0426 29.5075 47.971 29.4732 47.8995 29.439L47.8217 29.4032C47.7548 29.3752 47.6863 29.3488 47.6163 29.3239L47.5291 29.2943C47.4622 29.2725 47.3922 29.2538 47.3222 29.2352L47.2242 29.2103C47.1541 29.1978 47.0903 29.1869 47.025 29.176L46.9099 29.1605C46.8476 29.1527 46.7838 29.1465 46.72 29.1418L46.4897 29.134L46.4119 29.1356C46.3684 29.1356 46.3232 29.1371 46.2781 29.1403C46.219 29.1449 46.1614 29.148 46.1038 29.1558C46.0556 29.1605 46.0105 29.1683 45.9638 29.176C45.9109 29.1838 45.8564 29.1932 45.8004 29.2056L45.6666 29.2383C45.5841 29.2601 45.5406 29.271 45.4954 29.285C45.4472 29.3005 45.4021 29.3161 45.357 29.3332C45.2776 29.3612 45.2372 29.3768 45.1967 29.3939C45.1485 29.4141 45.0987 29.4375 45.0504 29.4608C44.9804 29.4919 44.9462 29.509 44.9119 29.5261C44.8637 29.551 44.8186 29.579 44.7719 29.6071L44.7206 29.6382L44.6365 29.6895C44.5805 29.7269 44.5307 29.7642 44.4825 29.8031C44.4778 29.8062 44.3767 29.8825 44.372 29.8856C44.2849 29.9587 44.2024 30.0318 44.1231 30.1096L42.3321 31.9006C42.2512 31.9815 42.1765 32.0655 42.1065 32.1511C42.0909 32.1698 42.0722 32.1947 42.0536 32.2196C41.9882 32.3067 41.9478 32.3596 41.912 32.4141C41.8949 32.439 41.8762 32.4717 41.8575 32.5028L41.8264 32.5557C41.7984 32.6008 41.7719 32.6459 41.747 32.6926C41.7299 32.7253 41.7113 32.7642 41.6926 32.8031C41.6521 32.8887 41.6303 32.9338 41.6101 32.9805C41.5946 33.0194 41.5806 33.0583 41.5665 33.0972L41.5463 33.1532C41.5308 33.1936 41.5168 33.2356 41.5043 33.2761C41.4903 33.3212 41.4779 33.3695 41.4654 33.4177C41.4452 33.4924 41.4343 33.536 41.425 33.5795C41.4141 33.634 41.4047 33.6884 41.3954 33.7429C41.3876 33.7911 41.3814 33.8363 41.3752 33.8829C41.3689 33.9421 41.3643 34.0012 41.3596 34.0588C41.3565 34.1023 41.3549 34.1475 41.3534 34.1926C41.3534 34.2548 41.3534 34.3155 41.3549 34.3762L41.3612 34.4976C41.3643 34.5629 41.3705 34.6267 41.3783 34.6905L41.3954 34.8057C41.4047 34.871 41.4172 34.9364 41.4327 35.0033L41.4576 35.1075C41.4732 35.1713 41.4919 35.2398 41.5136 35.3067C41.5152 35.3129 41.5354 35.3705 41.5385 35.3783C41.5697 35.4685 41.5961 35.5385 41.6257 35.6085C41.6288 35.6132 41.649 35.6583 41.6521 35.663C41.6926 35.7517 41.7268 35.8233 41.7657 35.8933C41.7688 35.9011 41.7891 35.9353 41.7937 35.9415C41.842 36.024 41.8855 36.0971 41.9338 36.1687C42.0147 36.2823 42.0707 36.357 42.1314 36.4301C42.1936 36.5048 42.2605 36.5795 42.3321 36.6511L43.4306 37.7496L38.4172 42.763L37.3171 41.6629C37.2455 41.5914 37.1708 41.526 37.0962 41.4622C37.023 41.4015 36.9468 41.3455 36.8705 41.2911C36.7663 41.2179 36.6916 41.1728 36.6185 41.1308C36.6154 41.1292 36.564 41.0981 36.5593 41.0966C36.4909 41.0592 36.4193 41.025 36.3477 40.9923L36.2793 40.9596C36.2046 40.9285 36.1346 40.9021 36.0645 40.8772L35.9774 40.8476C35.9089 40.8258 35.8389 40.8071 35.7704 40.7885L35.6662 40.7636C35.6055 40.7496 35.5386 40.7387 35.4733 40.7278L35.3628 40.7122C35.2943 40.7044 35.2305 40.6982 35.1667 40.6936L34.9364 40.6858L34.731 40.6936C34.6672 40.6982 34.6097 40.7029 34.5521 40.7091C34.5039 40.7138 34.4587 40.7216 34.4121 40.7293C34.3576 40.7371 34.3031 40.7465 34.2487 40.7574C34.1958 40.7682 34.1507 40.7807 34.104 40.7931C34.0402 40.8087 33.9904 40.8227 33.9422 40.8383C33.8939 40.8538 33.8457 40.8709 33.7959 40.8896C33.7259 40.9145 33.687 40.9285 33.6465 40.9456C33.5967 40.9659 33.5485 40.9892 33.4987 41.0125C33.4318 41.0437 33.3944 41.0623 33.3602 41.081C33.3135 41.1059 33.2684 41.1323 33.2233 41.1604L33.1704 41.1915L33.0832 41.2459C33.0303 41.2817 32.9774 41.3206 32.9261 41.3611C32.9214 41.3657 32.8234 41.4389 32.8187 41.442C32.7347 41.512 32.6522 41.5851 32.5729 41.6645L30.7819 43.4555C30.7026 43.5348 30.6279 43.6188 30.5578 43.7029C30.5392 43.7262 30.5205 43.7511 30.5034 43.7744C30.438 43.86 30.3991 43.9129 30.3633 43.9658C30.3447 43.9923 30.326 44.0234 30.3073 44.0561L30.2731 44.1136C30.2467 44.1572 30.2218 44.1992 30.1984 44.2443C30.1813 44.277 30.1642 44.3113 30.1486 44.3455C30.1051 44.4373 30.0817 44.484 30.063 44.5322C30.0459 44.5727 30.0304 44.6147 30.0164 44.6551C29.9868 44.7345 29.9712 44.7796 29.9572 44.8247C29.9417 44.8761 29.9292 44.9259 29.9152 44.9757C29.9012 45.0332 29.8888 45.0799 29.8779 45.1266C29.8654 45.1857 29.8561 45.2417 29.8483 45.2978L29.8281 45.4362C29.8219 45.4954 29.8172 45.5545 29.8125 45.6136C29.8094 45.6556 29.8079 45.7008 29.8063 45.7459C29.8047 45.8066 29.8047 45.8673 29.8079 45.9295L29.8141 46.0509C29.8188 46.1162 29.825 46.18 29.8328 46.2438L29.8499 46.3605C29.8592 46.4227 29.8717 46.4881 29.8857 46.555L29.9059 46.6421C29.9277 46.7277 29.9463 46.7962 29.9681 46.8631C29.9697 46.8678 29.9884 46.9222 29.9899 46.9269C30.0226 47.0203 30.049 47.0903 30.0786 47.1603C30.0817 47.1665 30.1004 47.207 30.1035 47.2132C30.1455 47.3066 30.1813 47.3781 30.2202 47.4482C30.2233 47.4544 30.2451 47.4917 30.2482 47.4979C30.2964 47.5804 30.34 47.652 30.3882 47.7236C30.4676 47.8372 30.5236 47.9118 30.5843 47.9834C30.6465 48.0597 30.7134 48.1343 30.785 48.2044C31.8773 49.3589 33.5142 50 35.3768 50ZM31.02 46.5208C31.006 46.4757 30.9935 46.429 30.9811 46.3823L30.964 46.3107C30.9562 46.2718 30.9468 46.2282 30.9406 46.1831L30.9297 46.1084C30.9251 46.0633 30.9204 46.0213 30.9173 45.9777L30.9126 45.8984C30.9111 45.8517 30.9111 45.8112 30.9126 45.7708L30.9173 45.6836C30.9204 45.6432 30.922 45.6043 30.9266 45.5654L30.9406 45.472C30.9468 45.43 30.9531 45.3942 30.9609 45.3584L31.1242 44.873C31.1258 44.8714 31.1491 44.8185 31.1507 44.817L31.1756 44.7656L31.2627 44.6178C31.3078 44.5478 31.3327 44.5151 31.3576 44.484L31.4012 44.4264C31.4619 44.3502 31.5117 44.2941 31.5646 44.2412L33.3555 42.4503C33.4084 42.3974 33.4645 42.3476 33.522 42.3009L33.5858 42.2527C33.6294 42.2184 33.6621 42.1935 33.6947 42.1718C33.6979 42.1702 33.771 42.1266 33.7741 42.1235L34.3638 41.873L34.6813 41.8123C34.7201 41.8077 34.7606 41.8045 34.7995 41.803L34.8866 41.7983L35.0951 41.803C35.1372 41.8061 35.1807 41.8108 35.2243 41.8154L35.299 41.8263C35.3441 41.8341 35.3877 41.8419 35.4328 41.8512L35.4857 41.8637C35.5448 41.8792 35.59 41.8917 35.6351 41.9057L35.6926 41.9259C35.7409 41.943 35.7891 41.9601 35.8358 41.9804C35.9307 42.0239 35.979 42.0473 36.0256 42.0737C36.1112 42.1235 36.1595 42.1531 36.2077 42.1858C36.2824 42.2387 36.3337 42.276 36.382 42.318C36.4333 42.36 36.4831 42.4036 36.5313 42.4518L37.7419 43.6624C38.1044 44.0234 38.73 44.0218 39.0894 43.6624L44.3284 38.4234C44.7003 38.0515 44.7003 37.4477 44.3284 37.0759L43.1163 35.8637C43.0681 35.8171 43.0245 35.7657 42.9825 35.7159C42.9405 35.6661 42.9032 35.6148 42.8674 35.5634C42.8191 35.4934 42.7896 35.4452 42.7616 35.3969C42.7133 35.3129 42.6915 35.2647 42.6698 35.218L42.6449 35.1666C42.6246 35.1215 42.6091 35.0748 42.592 35.0297L42.5733 34.9706C42.5577 34.9239 42.5453 34.8788 42.5344 34.8321L42.5173 34.7621C42.5079 34.7185 42.5001 34.6749 42.4924 34.6314L42.4815 34.552C42.4753 34.5116 42.4721 34.4696 42.469 34.426L42.4659 34.3451C42.4644 34.3 42.4644 34.2579 42.4659 34.2175L42.469 34.1303C42.4721 34.0899 42.4753 34.051 42.4799 34.0136L42.5904 33.5313C42.5904 33.5313 42.6106 33.4737 42.6122 33.4737L42.6744 33.3275C42.6744 33.3243 42.6993 33.273 42.6993 33.2699L42.816 33.066C42.8611 32.9945 42.886 32.9618 42.9109 32.9291L42.9529 32.8715C43.0152 32.7953 43.0634 32.7408 43.1163 32.6879L44.9073 30.897C44.9602 30.8441 45.0162 30.7943 45.0753 30.746L45.136 30.7009C45.1858 30.6636 45.2185 30.6387 45.2496 30.6169C45.2527 30.6153 45.3243 30.5733 45.3258 30.5718C45.3787 30.5391 45.4052 30.522 45.4332 30.508L45.4877 30.4815C45.5624 30.4457 45.5935 30.4302 45.6246 30.4177L46.0307 30.2917C46.0618 30.2855 46.0976 30.2792 46.135 30.2746L46.233 30.259C46.2719 30.2544 46.3123 30.2528 46.3512 30.2497L46.4882 30.245L46.6469 30.2497C46.6889 30.2528 46.7325 30.2575 46.7745 30.2621L46.8507 30.273C46.8943 30.2808 46.941 30.2886 46.9861 30.2979C46.9861 30.2979 47.0499 30.3135 47.0514 30.3135C47.0981 30.3244 47.1433 30.3368 47.1868 30.3508L47.2459 30.3726C47.2942 30.3897 47.3409 30.4068 47.3875 30.4271C47.484 30.4722 47.5323 30.4955 47.5789 30.5204C47.6661 30.5702 47.7143 30.5998 47.761 30.6325C47.8372 30.6854 47.887 30.7227 47.9353 30.7632C47.9866 30.8052 48.0364 30.8487 48.0846 30.897C49.0198 31.7886 49.5395 33.1127 49.5551 34.636C49.5862 37.5302 47.8543 40.8601 44.6801 44.0094C41.5572 47.1572 38.2538 48.8875 35.3768 48.8875C33.8208 48.8875 32.4702 48.3677 31.5739 47.4264C31.5163 47.3688 31.4728 47.319 31.4308 47.2692C31.3903 47.2194 31.3514 47.1681 31.3156 47.1167C31.2658 47.0467 31.2378 46.9969 31.2083 46.9471C31.16 46.8631 31.1382 46.8164 31.1165 46.7697M31.0931 46.7199C31.0729 46.6748 31.0558 46.6281 31.0402 46.5815L31.0931 46.7199Z" fill="black"/>
<path d="M50.111 25.6611C49.8037 25.6611 49.5554 25.4122 49.5554 25.1056V1.11111H32.4521C32.1448 1.11111 31.8965 0.862222 31.8965 0.555556C31.8965 0.248889 32.1448 0 32.4521 0H50.111C50.4182 0 50.6665 0.248889 50.6665 0.555556V25.1056C50.6665 25.4128 50.4182 25.6611 50.111 25.6611Z" fill="black"/>
<path d="M24.3915 50H1.22206C0.915393 50 0.666504 49.7517 0.666504 49.4444V0.555556C0.666504 0.248889 0.915393 0 1.22206 0H13.3259C13.6326 0 13.8815 0.248889 13.8815 0.555556C13.8815 0.862222 13.6326 1.11111 13.3259 1.11111H1.77762V48.8889H24.3915C24.6982 48.8889 24.9471 49.1372 24.9471 49.4444C24.9471 49.7517 24.6982 50 24.3915 50Z" fill="black"/>
<path d="M32.4521 14.6817C32.3348 14.6817 32.2187 14.645 32.121 14.5722L25.6665 9.78L19.2126 14.5722C19.0443 14.6983 18.8193 14.7172 18.6321 14.6228C18.4443 14.5283 18.326 14.3361 18.326 14.1261V0.555556C18.326 0.248889 18.5748 0 18.8815 0H25.6665C25.9732 0 26.2221 0.248889 26.2221 0.555556C26.2221 0.862222 25.9732 1.11111 25.6665 1.11111H19.4371V13.0217L25.3354 8.64222C25.5321 8.49611 25.801 8.49611 25.9976 8.64222L31.8965 13.0217V0.555556C31.8965 0.248889 32.1448 0 32.4521 0C32.7593 0 33.0076 0.248889 33.0076 0.555556V14.1261C33.0076 14.3361 32.8893 14.5283 32.7015 14.6228C32.6226 14.6622 32.5371 14.6817 32.4521 14.6817Z" fill="black"/>
<path d="M17.6554 38.0861H8.43428C8.12761 38.0861 7.87872 37.8378 7.87872 37.5305C7.87872 37.2233 8.12761 36.975 8.43428 36.975H17.6554C17.9621 36.975 18.2109 37.2233 18.2109 37.5305C18.2109 37.8378 17.9621 38.0861 17.6554 38.0861Z" fill="black"/>
<path d="M17.6554 43.1239H8.43428C8.12761 43.1239 7.87872 42.8755 7.87872 42.5683C7.87872 42.2611 8.12761 42.0128 8.43428 42.0128H17.6554C17.9621 42.0128 18.2109 42.2611 18.2109 42.5683C18.2109 42.8755 17.9621 43.1239 17.6554 43.1239Z" fill="black"/>
</g>
<defs>
<clipPath id="clip0_25_71">
<rect width="50" height="50" fill="white" transform="translate(0.666504)"/>
</clipPath>
</defs>
</svg>
