<svg width="71" height="70" viewBox="0 0 71 70" fill="none" xmlns="http://www.w3.org/2000/svg">
<rect x="0.0732422" width="70" height="70" rx="35" fill="#F6F6F6"/>
<g clip-path="url(#clip0_25_227)">
<path d="M19.5966 30.0033H13.6616C13.2139 30.0033 12.8511 29.6406 12.8511 29.1933V19.6772C12.8511 19.2294 13.2139 18.8667 13.6616 18.8667H23.1777C23.6255 18.8667 23.9883 19.2294 23.9883 19.6772V23.1917V29.1928C23.9883 29.6406 23.6255 30.0033 23.1777 30.0033H20.9372H19.5966Z" fill="#D11F1F"/>
<path d="M49.3589 49.8322C48.7083 49.8322 48.0983 49.4845 47.7672 48.9239L46.3489 46.5256C43.435 41.5995 40.6822 36.9461 39.7289 35.0339C39.0083 33.5556 38.6444 31.975 38.6444 30.3328C38.6444 24.425 43.4505 19.6183 49.3589 19.6183C55.2672 19.6183 60.0733 24.425 60.0733 30.3328C60.0733 31.975 59.7111 33.5517 58.9966 35.0195L58.9561 35.0967C58.0022 37.0028 55.2655 41.6289 52.3689 46.5267L50.9516 48.9239C50.6189 49.4845 50.0094 49.8322 49.3589 49.8322ZM49.3589 20.7295C44.0639 20.7295 39.7555 25.0372 39.7555 30.3328C39.7555 31.805 40.0822 33.2217 40.7261 34.5433C41.6589 36.415 44.4016 41.0517 47.3055 45.9606L48.7239 48.3589C48.8555 48.5822 49.0994 48.7211 49.3594 48.7211C49.6194 48.7211 49.8627 48.5822 49.9955 48.3589L51.4122 45.9617C54.2994 41.0811 57.0261 36.4711 57.975 34.5778C58.6377 33.2183 58.9622 31.805 58.9622 30.3328C58.9622 25.0372 54.6539 20.7295 49.3589 20.7295Z" fill="black"/>
<path d="M49.3587 23.6672C45.5299 23.6672 42.4143 26.7828 42.4143 30.6117C42.4143 31.6767 42.6493 32.6989 43.116 33.6561C43.7582 34.945 45.6376 38.1228 47.6282 41.4872L48.5976 43.1267C48.7565 43.3961 49.046 43.5611 49.3587 43.5611C49.6715 43.5611 49.961 43.3956 50.1199 43.1267L51.0882 41.4878C53.0649 38.1461 54.9326 34.9889 55.5871 33.6828C55.5932 33.6717 55.5993 33.66 55.6049 33.6483C56.0676 32.6972 56.3026 31.675 56.3026 30.6111C56.3032 26.7822 53.1882 23.6672 49.3587 23.6672Z" fill="#D11F1F"/>
<path d="M49.3588 36.0833C48.0222 36.0833 46.7227 35.6111 45.6994 34.7544C45.4644 34.5578 45.4333 34.2072 45.6305 33.9717C45.8283 33.7367 46.1777 33.7056 46.4133 33.9022C47.2361 34.5917 48.2822 34.9717 49.3588 34.9717C51.8911 34.9717 53.9511 32.9117 53.9511 30.3794C53.9511 27.8472 51.8911 25.7872 49.3588 25.7872C46.8266 25.7872 44.7666 27.8472 44.7666 30.3794C44.7666 30.6861 44.5183 30.935 44.2111 30.935C43.9039 30.935 43.6555 30.6861 43.6555 30.3794C43.6555 27.2344 46.2138 24.6761 49.3588 24.6761C52.5038 24.6761 55.0622 27.2344 55.0622 30.3794C55.0622 33.5245 52.5033 36.0833 49.3588 36.0833Z" fill="black"/>
<path d="M49.3588 53.9111H25.4671C22.836 53.9111 20.6954 51.77 20.6954 49.1389C20.6954 46.5078 22.836 44.3667 25.4671 44.3667H31.001C33.1799 44.3667 34.9521 42.5944 34.9521 40.4156C34.9521 38.2367 33.1799 36.4644 31.001 36.4644H18.7299C18.4232 36.4644 18.1743 36.2161 18.1743 35.9089C18.1743 35.6017 18.4232 35.3533 18.7299 35.3533H31.0015C33.7927 35.3533 36.0638 37.6244 36.0638 40.4156C36.0638 43.2067 33.7927 45.4778 31.0015 45.4778H25.4676C23.4493 45.4778 21.8071 47.12 21.8071 49.1389C21.8071 51.1578 23.4493 52.8 25.4676 52.8H49.3588C49.666 52.8 49.9143 53.0483 49.9143 53.3556C49.9143 53.6628 49.666 53.9111 49.3588 53.9111Z" fill="black"/>
<path d="M26.2099 32.7811H10.6288C10.3221 32.7811 10.0732 32.5322 10.0732 32.2256V16.6445C10.0732 16.3378 10.3221 16.0889 10.6288 16.0889H26.2099C26.5166 16.0889 26.7655 16.3378 26.7655 16.6445V32.2256C26.7655 32.5328 26.5171 32.7811 26.2099 32.7811ZM11.1844 31.67H25.6544V17.2H11.1844V31.67Z" fill="black"/>
<path d="M20.5821 23.2111C20.4649 23.2111 20.3488 23.1745 20.251 23.1017L18.4199 21.7422L16.5888 23.1017C16.4205 23.2278 16.1955 23.2467 16.0083 23.1522C15.821 23.0578 15.7021 22.8656 15.7021 22.6556V16.6445C15.7021 16.3378 15.951 16.0889 16.2577 16.0889C16.5644 16.0889 16.8133 16.3378 16.8133 16.6445V21.5511L18.0888 20.6039C18.2855 20.4578 18.5544 20.4578 18.751 20.6039L20.0266 21.5511V16.6445C20.0266 16.3378 20.2755 16.0889 20.5821 16.0889C20.8888 16.0889 21.1377 16.3378 21.1377 16.6445V22.6556C21.1377 22.8656 21.0194 23.0578 20.8316 23.1522C20.7527 23.1917 20.6671 23.2111 20.5821 23.2111Z" fill="black"/>
<path d="M16.4283 27.2983H13.4894C13.1827 27.2983 12.9338 27.0494 12.9338 26.7428C12.9338 26.4361 13.1827 26.1872 13.4894 26.1872H16.4283C16.7349 26.1872 16.9838 26.4361 16.9838 26.7428C16.9838 27.0494 16.7349 27.2983 16.4283 27.2983Z" fill="black"/>
<path d="M16.4283 30.0278H13.4894C13.1827 30.0278 12.9338 29.7789 12.9338 29.4722C12.9338 29.1655 13.1827 28.9167 13.4894 28.9167H16.4283C16.7349 28.9167 16.9838 29.1655 16.9838 29.4722C16.9838 29.7789 16.7349 30.0278 16.4283 30.0278Z" fill="black"/>
</g>
<defs>
<clipPath id="clip0_25_227">
<rect width="50" height="50" fill="white" transform="translate(10.0732 10)"/>
</clipPath>
</defs>
</svg>
