<svg width="71" height="70" viewBox="0 0 71 70" fill="none" xmlns="http://www.w3.org/2000/svg">
<rect x="0.0732422" width="70" height="70" rx="35" fill="#F6F6F6"/>
<g clip-path="url(#clip0_25_240)">
<path d="M44.576 25.455H22.9971V41.6056H44.576V25.455Z" fill="#D11F1F"/>
<path d="M46.7983 44.3833H34.8594C34.5527 44.3833 34.3038 44.135 34.3038 43.8278C34.3038 43.5206 34.5527 43.2722 34.8594 43.2722H46.2427V23.7889H21.3305V25.7428C21.3305 26.0494 21.0816 26.2983 20.7749 26.2983C20.4682 26.2983 20.2194 26.0494 20.2194 25.7428V23.2333C20.2194 22.9267 20.4682 22.6778 20.7749 22.6778H46.7983C47.1055 22.6778 47.3538 22.9267 47.3538 23.2333V43.8278C47.3538 44.1344 47.1055 44.3833 46.7983 44.3833Z" fill="black"/>
<path d="M25.4527 44.3833H20.7749C20.4682 44.3833 20.2194 44.135 20.2194 43.8278V41.0294C20.2194 40.7222 20.4682 40.4739 20.7749 40.4739C21.0816 40.4739 21.3305 40.7222 21.3305 41.0294V43.2722H25.4527C25.7594 43.2722 26.0082 43.5206 26.0082 43.8278C26.0082 44.135 25.7594 44.3833 25.4527 44.3833Z" fill="black"/>
<path d="M59.5177 44.3833C59.2121 44.3833 58.9643 44.1372 58.9621 43.8317L58.9093 35.9778L53.2138 29.9994H47.3538V43.2722H50.5121C50.8193 43.2722 51.0677 43.5206 51.0677 43.8278C51.0677 44.135 50.8193 44.3833 50.5121 44.3833H46.7982C46.491 44.3833 46.2427 44.135 46.2427 43.8278V29.4439C46.2427 29.1372 46.491 28.8883 46.7982 28.8883H53.4521C53.6038 28.8883 53.7493 28.9506 53.8543 29.0606L59.8655 35.3706C59.9632 35.4733 60.0177 35.6089 60.0188 35.75L60.0732 43.8239C60.0755 44.1311 59.8282 44.3811 59.5216 44.3833C59.5205 44.3833 59.5188 44.3833 59.5177 44.3833Z" fill="black"/>
<path d="M55.0132 36.3089H50.3104C50.0032 36.3089 49.7549 36.0606 49.7549 35.7533V29.4439C49.7549 29.1372 50.0032 28.8883 50.3104 28.8883C50.6177 28.8883 50.866 29.1372 50.866 29.4439V35.1983H55.0132C55.3204 35.1983 55.5688 35.4472 55.5688 35.7539C55.5688 36.0606 55.3199 36.3089 55.0132 36.3089Z" fill="black"/>
<path d="M28.3926 47.3228C26.4654 47.3228 24.8971 45.755 24.8971 43.8278C24.8971 41.9006 26.4649 40.3328 28.3926 40.3328C30.3199 40.3328 31.8876 41.9006 31.8876 43.8278C31.8876 45.755 30.3193 47.3228 28.3926 47.3228ZM28.3926 41.4439C27.0782 41.4439 26.0082 42.5133 26.0082 43.8278C26.0082 45.1422 27.0776 46.2117 28.3926 46.2117C29.7076 46.2117 30.7765 45.1422 30.7765 43.8278C30.7765 42.5133 29.7071 41.4439 28.3926 41.4439Z" fill="black"/>
<path d="M53.4521 47.3228C51.5243 47.3228 49.9565 45.755 49.9565 43.8278C49.9565 41.9006 51.5243 40.3328 53.4521 40.3328C55.3793 40.3328 56.9471 41.9006 56.9471 43.8278C56.9471 45.755 55.3793 47.3228 53.4521 47.3228ZM53.4521 41.4439C52.1377 41.4439 51.0677 42.5133 51.0677 43.8278C51.0677 45.1422 52.1377 46.2117 53.4521 46.2117C54.7665 46.2117 55.836 45.1422 55.836 43.8278C55.836 42.5133 54.7665 41.4439 53.4521 41.4439Z" fill="black"/>
<path d="M33.7866 34.0856H10.6288C10.3221 34.0856 10.0732 33.8367 10.0732 33.53C10.0732 33.2233 10.3221 32.9744 10.6288 32.9744H33.7866C34.0932 32.9744 34.3421 33.2233 34.3421 33.53C34.3421 33.8367 34.0932 34.0856 33.7866 34.0856Z" fill="black"/>
<path d="M33.7865 29.3822H16.5082C16.2015 29.3822 15.9526 29.1333 15.9526 28.8267C15.9526 28.52 16.2015 28.2711 16.5082 28.2711H33.7871C34.0938 28.2711 34.3426 28.52 34.3426 28.8267C34.3426 29.1333 34.0932 29.3822 33.7865 29.3822Z" fill="black"/>
<path d="M33.7865 38.7889H16.5082C16.2015 38.7889 15.9526 38.5406 15.9526 38.2333C15.9526 37.9261 16.2015 37.6778 16.5082 37.6778H33.7871C34.0938 37.6778 34.3426 37.9261 34.3426 38.2333C34.3426 38.5406 34.0932 38.7889 33.7865 38.7889Z" fill="black"/>
</g>
<defs>
<clipPath id="clip0_25_240">
<rect width="50" height="50" fill="white" transform="translate(10.0732 10)"/>
</clipPath>
</defs>
</svg>
