<svg width="71" height="70" viewBox="0 0 71 70" fill="none" xmlns="http://www.w3.org/2000/svg">
<rect x="0.0732422" width="70" height="70" rx="35" fill="#F6F6F6"/>
<g clip-path="url(#clip0_25_1509)">
<path d="M54.5576 55.3978H15.5887C15.0843 55.3978 14.6754 54.9889 14.6754 54.4844V15.5156C14.6754 15.0111 15.0843 14.6022 15.5887 14.6022H54.5576C55.0621 14.6022 55.471 15.0111 55.471 15.5156V54.4844C55.471 54.9889 55.0621 55.3978 54.5576 55.3978Z" fill="#D11F1F"/>
<path d="M49.0755 60C48.4121 60 47.7899 59.645 47.4521 59.0739L45.9944 56.6083C42.9971 51.5411 40.166 46.755 39.1905 44.7978C38.451 43.2811 38.0771 41.6589 38.0771 39.9717C38.0771 33.9072 43.011 28.9739 49.0755 28.9739C55.1394 28.9739 60.0733 33.9078 60.0733 39.9717C60.0733 41.6567 59.7016 43.275 58.9683 44.7817L58.9383 44.8394C57.9433 46.8256 55.131 51.5783 52.1544 56.61L50.6988 59.0744C50.361 59.645 49.7388 60 49.0755 60ZM49.0755 30.085C43.6238 30.085 39.1883 34.52 39.1883 39.9717C39.1883 41.4878 39.5244 42.9461 40.1871 44.3061C41.1427 46.2228 43.9644 50.9928 46.951 56.0428L48.4088 58.5083C48.5471 58.7428 48.8027 58.8889 49.0755 58.8889C49.3477 58.8889 49.6033 58.7428 49.7421 58.5083L51.1977 56.0439C54.1649 51.0294 56.9671 46.2928 57.9455 44.3411C58.6283 42.9411 58.9621 41.4867 58.9621 39.9717C58.9621 34.52 54.5271 30.085 49.0755 30.085Z" fill="black"/>
<path d="M49.0754 45.8678C47.7054 45.8678 46.3732 45.3839 45.3238 44.5056C45.0882 44.3089 45.0576 43.9583 45.2543 43.7233C45.4504 43.4883 45.8015 43.4561 46.0365 43.6539C46.8865 44.365 47.966 44.7567 49.0754 44.7567C51.6865 44.7567 53.8104 42.6322 53.8104 40.0211C53.8104 37.41 51.6865 35.2856 49.0754 35.2856C46.4643 35.2856 44.3399 37.41 44.3399 40.0211C44.3399 40.3283 44.0915 40.5767 43.7843 40.5767C43.4771 40.5767 43.2288 40.3283 43.2288 40.0211C43.2288 36.7972 45.8521 34.1744 49.0754 34.1744C52.2988 34.1744 54.9215 36.7978 54.9215 40.0211C54.9215 43.2444 52.2993 45.8678 49.0754 45.8678Z" fill="black"/>
<path d="M59.5177 29.2167C59.2104 29.2167 58.9621 28.9678 58.9621 28.6611V11.1111H41.8588C41.5516 11.1111 41.3032 10.8622 41.3032 10.5556C41.3032 10.2489 41.5516 10 41.8588 10H59.5177C59.8249 10 60.0732 10.2489 60.0732 10.5556V28.6611C60.0732 28.9683 59.8249 29.2167 59.5177 29.2167Z" fill="black"/>
<path d="M41.576 60H10.6288C10.3221 60 10.0732 59.7517 10.0732 59.4444V10.5556C10.0732 10.2489 10.3221 10 10.6288 10H22.7327C23.0394 10 23.2882 10.2489 23.2882 10.5556C23.2882 10.8622 23.0394 11.1111 22.7327 11.1111H11.1844V58.8889H41.576C41.8832 58.8889 42.1316 59.1372 42.1316 59.4444C42.1316 59.7517 41.8832 60 41.576 60Z" fill="black"/>
<path d="M41.8588 24.6817C41.7416 24.6817 41.6254 24.645 41.5277 24.5722L35.0732 19.78L28.6193 24.5722C28.451 24.6983 28.226 24.7172 28.0388 24.6228C27.851 24.5283 27.7327 24.3361 27.7327 24.1261V10.5556C27.7327 10.2489 27.9816 10 28.2882 10H35.0732C35.3799 10 35.6288 10.2489 35.6288 10.5556C35.6288 10.8622 35.3799 11.1111 35.0732 11.1111H28.8438V23.0217L34.7421 18.6422C34.9388 18.4961 35.2077 18.4961 35.4043 18.6422L41.3032 23.0217V10.5556C41.3032 10.2489 41.5516 10 41.8588 10C42.166 10 42.4143 10.2489 42.4143 10.5556V24.1261C42.4143 24.3361 42.296 24.5283 42.1082 24.6228C42.0293 24.6622 41.9438 24.6817 41.8588 24.6817Z" fill="black"/>
<path d="M27.0622 48.0861H17.8411C17.5344 48.0861 17.2855 47.8378 17.2855 47.5306C17.2855 47.2233 17.5344 46.975 17.8411 46.975H27.0622C27.3689 46.975 27.6177 47.2233 27.6177 47.5306C27.6177 47.8378 27.3689 48.0861 27.0622 48.0861Z" fill="black"/>
<path d="M27.0622 53.1239H17.8411C17.5344 53.1239 17.2855 52.8756 17.2855 52.5683C17.2855 52.2611 17.5344 52.0128 17.8411 52.0128H27.0622C27.3689 52.0128 27.6177 52.2611 27.6177 52.5683C27.6177 52.8756 27.3689 53.1239 27.0622 53.1239Z" fill="black"/>
<path d="M49.0755 60C48.4121 60 47.7899 59.645 47.4521 59.0739L45.9944 56.6083C42.9971 51.5411 40.166 46.755 39.1905 44.7978C38.451 43.2811 38.0771 41.6589 38.0771 39.9717C38.0771 33.9072 43.011 28.9739 49.0755 28.9739C55.1394 28.9739 60.0733 33.9078 60.0733 39.9717C60.0733 41.6567 59.7016 43.275 58.9683 44.7817L58.9383 44.8394C57.9433 46.8256 55.131 51.5783 52.1544 56.61L50.6988 59.0744C50.361 59.645 49.7388 60 49.0755 60ZM49.0755 30.085C43.6238 30.085 39.1883 34.52 39.1883 39.9717C39.1883 41.4878 39.5244 42.9461 40.1871 44.3061C41.1427 46.2228 43.9644 50.9928 46.951 56.0428L48.4088 58.5083C48.5471 58.7428 48.8027 58.8889 49.0755 58.8889C49.3477 58.8889 49.6033 58.7428 49.7421 58.5083L51.1977 56.0439C54.1649 51.0294 56.9671 46.2928 57.9455 44.3411C58.6283 42.9411 58.9621 41.4867 58.9621 39.9717C58.9621 34.52 54.5271 30.085 49.0755 30.085Z" fill="black"/>
</g>
<defs>
<clipPath id="clip0_25_1509">
<rect width="50" height="50" fill="white" transform="translate(10.0732 10)"/>
</clipPath>
</defs>
</svg>
