<svg width="46" height="46" viewBox="0 0 46 46" fill="none" xmlns="http://www.w3.org/2000/svg">
<path fill-rule="evenodd" clip-rule="evenodd" d="M17.4306 13.7529L16.0164 12.3289L12.5164 15.8531L13.9306 17.277L17.4306 13.7529ZM30.4306 12.3289L33.9306 15.8531L32.5164 17.277L29.0164 13.7529L30.4306 12.3289ZM23.2235 33.1787C17.7007 33.1787 13.2235 28.6707 13.2235 23.1098C13.2235 17.5489 17.7007 13.0409 23.2235 13.0409C28.7464 13.0409 33.2235 17.5489 33.2235 23.1098C33.2235 28.6707 28.7464 33.1787 23.2235 33.1787ZM23.2235 31.1649C27.6418 31.1649 31.2235 27.5585 31.2235 23.1098C31.2235 18.6611 27.6418 15.0547 23.2235 15.0547C18.8052 15.0547 15.2235 18.6611 15.2235 23.1098C15.2235 27.5585 18.8052 31.1649 23.2235 31.1649ZM28.2235 22.1029H24.2235V17.0685H22.2235V24.1167H28.2235V22.1029Z" fill="white"/>
</svg>
