<svg width="46" height="46" viewBox="0 0 46 46" fill="none" xmlns="http://www.w3.org/2000/svg">
<g clip-path="url(#clip0_23_2330)">
<path d="M19.7231 23.8598C19.2525 24.4868 18.9735 25.2657 18.9735 26.1098C18.9735 28.1809 20.6524 29.8598 22.7235 29.8598C24.7946 29.8598 26.4735 28.1809 26.4735 26.1098C26.4735 25.6617 26.3948 25.2319 26.2508 24.8337L23.4739 27.6106L19.7231 23.8598Z" fill="white"/>
<path d="M15.9735 27.6098H13.7235V21.2348C13.7235 20.6134 14.2271 20.1098 14.8485 20.1098H15.9735V27.6098Z" fill="white"/>
<path d="M28.3688 22.7146C27.738 23.1957 26.9531 23.4848 26.0985 23.4848C24.0274 23.4848 22.3485 21.8059 22.3485 19.7348C22.3485 18.8802 22.6376 18.0953 23.1188 17.4646L23.8283 16.7551C24.459 16.2739 25.2439 15.9848 26.0985 15.9848C28.1696 15.9848 29.8485 17.6637 29.8485 19.7348C29.8485 20.5894 29.5594 21.3743 29.0783 22.0051L28.3688 22.7146Z" fill="white"/>
<path d="M28.4025 33.7677L25.0627 31.3598H30.6289L28.4025 33.7677Z" fill="white"/>
<path d="M31.2386 18.2536L32.3824 17.1098L31.2386 15.9661L30.7084 16.4963L31.3219 17.1098L30.7084 17.7233L31.2386 18.2536Z" fill="white"/>
<path d="M28.7235 14.5115L29.337 15.125L29.8673 14.5947L28.7235 13.451L27.5798 14.5947L28.11 15.125L28.7235 14.5115Z" fill="white"/>
<path d="M20.9584 21.2161L19.8147 22.3598L20.9584 23.5036L21.4887 22.9733L20.8752 22.3598L21.4887 21.7463L20.9584 21.2161Z" fill="white"/>
<path d="M24.6173 24.8749L24.087 24.3447L23.4735 24.9582L22.86 24.3447L22.3298 24.8749L23.4735 26.0187L24.6173 24.8749Z" fill="white"/>
<path d="M34.5038 17.1098L28.7235 11.3296L18.0683 21.9848H16.3485V19.7348H14.8485C14.0213 19.7348 13.3485 20.4076 13.3485 21.2348V21.9848H11.0985V34.7348H34.3485V21.9848H29.6288L34.5038 17.1098ZM28.7235 12.3901L33.4433 17.1098L23.4735 27.0796L18.7538 22.3598L28.7235 12.3901ZM14.0985 21.2348C14.0985 20.8212 14.4349 20.4848 14.8485 20.4848H15.5985V27.2348H14.8485C14.5755 27.2348 14.3194 27.3079 14.0985 27.4362V21.2348ZM13.3485 22.7348V28.7348C13.3485 29.5621 14.0213 30.2348 14.8485 30.2348H33.5985V30.9848H11.8485V22.7348H13.3485ZM11.8485 33.9848V33.2348H27.663L26.6228 32.4848H11.8485V31.7348H33.5985V32.4848H29.5886L28.8953 33.2348H33.5985V33.9848H11.8485ZM33.5985 22.7348V29.4848H14.8485C14.4349 29.4848 14.0985 29.1484 14.0985 28.7348C14.0985 28.3212 14.4349 27.9848 14.8485 27.9848H16.3485V22.7348H18.0683L23.4735 28.1401L28.8788 22.7348H33.5985Z" fill="white"/>
<path d="M24.4433 20.1098C24.9274 20.5932 25.7696 20.5935 26.2538 20.1098L26.4735 19.8904C26.6741 19.6898 27.0229 19.6898 27.2235 19.8904L27.4433 20.1098L26.8485 20.7042C26.6479 20.9048 26.2991 20.9048 26.0985 20.7042L25.9886 20.5943L25.4584 21.1245L25.5683 21.2348C25.8105 21.4767 26.1319 21.6098 26.4735 21.6098C26.7409 21.6098 26.994 21.5262 27.2081 21.375L27.708 21.8749L28.2383 21.3447L27.7538 20.8598L28.5038 20.1098L27.7538 19.3598C27.2696 18.8764 26.4274 18.876 25.9433 19.3598L25.7235 19.5792C25.5229 19.7798 25.1741 19.7798 24.9735 19.5792L24.7538 19.3598L25.3485 18.7654C25.5491 18.5648 25.8979 18.5648 26.0985 18.7654L26.2084 18.8753L26.7386 18.345L26.6288 18.2348C26.1975 17.8043 25.4835 17.7597 24.99 18.0964L24.4886 17.595L23.9584 18.1253L24.4433 18.6098L23.6933 19.3598L24.4433 20.1098Z" fill="white"/>
<path d="M32.0985 24.9848H32.8485V23.4848H31.3485V24.2348H32.0985V24.9848Z" fill="white"/>
<path d="M32.8485 27.2348H32.0985V27.9848H31.3485V28.7348H32.8485V27.2348Z" fill="white"/>
</g>
<defs>
<clipPath id="clip0_23_2330">
<rect width="24" height="24" fill="white" transform="translate(10.7235 11.1098)"/>
</clipPath>
</defs>
</svg>
