<svg width="46" height="46" viewBox="0 0 46 46" fill="none" xmlns="http://www.w3.org/2000/svg">
<g clip-path="url(#clip0_23_2333)">
<path d="M33.3935 23.8721H26.6545H25.892H13.0534L11.2235 28.4468H12.9303V34.9278H25.8921H26.6546H33.5167V28.4468H35.2235L33.3935 23.8721ZM12.3497 27.6844L13.5696 24.6345H25.7107L24.4907 27.6844H12.3497ZM25.8921 34.1653H13.6927V28.4468H25.0065L25.8921 26.2326V34.1653ZM32.7542 34.1653H26.6545V26.2327L27.5401 28.4469H32.7542V34.1653ZM28.0564 27.6844L26.8364 24.6345H32.8778L34.0978 27.6844H28.0564Z" fill="white" stroke="white"/>
<path d="M23.2234 23.1097L19.0299 19.6786H20.936V11.2916H25.5108V19.6787H27.4169L23.2234 23.1097Z" fill="white"/>
</g>
<defs>
<clipPath id="clip0_23_2333">
<rect width="24" height="24" fill="white" transform="translate(11.2235 11.1098)"/>
</clipPath>
</defs>
</svg>
