<svg width="46" height="46" viewBox="0 0 46 46" fill="none" xmlns="http://www.w3.org/2000/svg">
<g clip-path="url(#clip0_23_2336)">
<path d="M32.2791 12.6825C29.5711 12.6825 26.9237 12.1726 24.4102 11.1673L24.2666 11.1098L24.1235 11.1673C21.6096 12.1726 18.9621 12.6825 16.2542 12.6825H15.3943V20.7833H13.4656C12.8276 20.7833 12.3084 21.3025 12.3084 21.9405V28.4983C12.3084 29.1364 12.8276 29.6556 13.4656 29.6556H16.9373C16.938 29.6556 16.9385 29.6556 16.9392 29.6556C17.8504 31.1033 19.1129 32.2992 20.6181 33.1197L24.2666 35.1098L27.915 33.1197C31.1375 31.3622 33.1388 27.9903 33.1388 24.3199V12.6825H32.2791ZM13.0798 28.4983V21.9405C13.0798 21.7279 13.2526 21.5548 13.4655 21.5548H16.9372C17.1501 21.5548 17.3229 21.728 17.3229 21.9405V28.4983C17.3229 28.7109 17.1501 28.8841 16.9372 28.8841H13.4656C13.2526 28.8841 13.0798 28.7109 13.0798 28.4983ZM18.0946 22.7086C19.3827 22.6389 20.4091 21.5687 20.4091 20.2638V18.276C20.4091 17.7444 20.8416 17.3116 21.3735 17.3116C21.9055 17.3116 22.3379 17.7443 22.3379 18.276V20.7039C22.3379 21.3858 22.8927 21.9406 23.5746 21.9406H26.4026C27.1389 21.9406 27.7385 22.5397 27.7385 23.2765V27.5483C27.7385 28.285 27.139 28.8841 26.4026 28.8841H20.7189C20.4126 28.8841 20.1287 28.7317 19.9586 28.4772C19.6454 28.0074 19.1211 27.7269 18.5564 27.7269H18.0946V22.7086ZM32.3674 24.3199C32.3674 27.7076 30.5201 30.8202 27.5459 32.4423L24.2666 34.231L20.9874 32.4423C19.6454 31.7101 18.5113 30.6558 17.6773 29.3805C17.9114 29.1838 18.0654 28.8984 18.087 28.5743C18.8654 29.9171 19.9864 31.0173 21.357 31.7648L24.2667 33.3522L27.1765 31.7648C29.9026 30.2781 31.5961 27.4255 31.5961 24.3202V18.4688H30.8246V24.3203C30.8246 27.1428 29.2854 29.7363 26.8073 31.0875L24.2667 32.4732L21.7261 31.0875C20.6391 30.4946 19.726 29.6568 19.0398 28.643C19.1474 28.7105 19.2438 28.7962 19.3168 28.9054C19.63 29.3752 20.1543 29.6556 20.719 29.6556H26.4027C27.5649 29.6556 28.51 28.7102 28.51 27.5483V23.2765C28.51 22.1146 27.565 21.1691 26.4027 21.1691H23.5747C23.3182 21.1691 23.1095 20.9604 23.1095 20.7039V18.276C23.1095 17.3189 22.3307 16.5401 21.3736 16.5401C20.4165 16.5401 19.6377 17.3189 19.6377 18.276V20.2634C19.6377 21.1429 18.9553 21.858 18.0931 21.9271C18.0893 21.5919 17.9407 21.2933 17.7089 21.0842V14.9527C19.9493 14.815 22.1532 14.3571 24.2666 13.5894C26.3802 14.357 28.5836 14.8149 30.8244 14.9527V15.3828H31.5959V14.2186L31.2279 14.2017C28.8925 14.0949 26.5954 13.6288 24.4005 12.8168L24.2666 12.7671L24.1327 12.8164C21.9373 13.6284 19.6402 14.0944 17.3052 14.2013L16.9372 14.2186V20.7834H16.1657V13.454H16.254C19.0095 13.454 21.7039 12.9448 24.2665 11.9403C26.829 12.9448 29.5235 13.454 32.2789 13.454H32.3672V24.3199H32.3674Z" fill="white" stroke="white" stroke-width="0.6"/>
<path d="M31.5959 16.9258H30.8244V17.6973H31.5959V16.9258Z" fill="white" stroke="white" stroke-width="0.6"/>
<path d="M16.5515 27.341H13.8513V28.1125H16.5515V27.341Z" fill="white" stroke="white" stroke-width="0.6"/>
</g>
<defs>
<clipPath id="clip0_23_2336">
<rect width="24" height="24" fill="white" transform="translate(10.7235 11.1098)"/>
</clipPath>
</defs>
</svg>
