<svg width="46" height="46" viewBox="0 0 46 46" fill="none" xmlns="http://www.w3.org/2000/svg">
<g clip-path="url(#clip0_23_2339)">
<path d="M23.2236 18.0776C25.1477 18.0776 26.7075 16.5178 26.7075 14.5937C26.7075 12.6696 25.1477 11.1098 23.2236 11.1098C21.2995 11.1098 19.7397 12.6696 19.7397 14.5937C19.7397 16.5178 21.2995 18.0776 23.2236 18.0776Z" fill="white"/>
<path d="M17.6138 20.109L17.2565 19.4227C17.0083 19.5516 16.7699 19.7045 16.5474 19.8764L17.0215 20.4888C17.2074 20.3443 17.4068 20.217 17.6138 20.109Z" fill="white"/>
<path d="M18.9585 19.682L18.8455 18.9159C18.566 18.9569 18.2927 19.02 18.0326 19.1013L18.2656 19.8399C18.4867 19.7702 18.7197 19.7168 18.9585 19.682Z" fill="white"/>
<path d="M16.5025 20.9684L15.9307 20.4458C15.7461 20.6479 15.5738 20.8701 15.4185 21.1051L16.0646 21.5317C16.1982 21.3299 16.3453 21.1403 16.5025 20.9684Z" fill="white"/>
<path d="M23.8282 28.1464L23.8177 28.9206C29.424 28.9964 33.5071 30.1326 34.3045 31.2388H32.1267V32.013H34.2932C33.4916 33.0632 29.5815 34.2818 23.6106 34.3329V32.7872H22.8364V34.3329C16.8654 34.2818 12.9554 33.0632 12.1537 32.013H14.3204V31.2388H12.1426C12.94 30.1325 17.0231 28.9964 22.6294 28.9206L22.6189 28.1464C16.9561 28.223 11.2236 29.4427 11.2236 31.626C11.2236 33.8889 17.4063 35.1099 23.2235 35.1099C29.0407 35.1099 35.2234 33.889 35.2234 31.626C35.2235 29.4427 29.491 28.223 23.8282 28.1464Z" fill="white"/>
<path d="M31.0284 21.1051C30.8731 20.8701 30.7008 20.6479 30.5162 20.4458L29.9445 20.9684C30.1016 21.1402 30.2491 21.3303 30.3819 21.5316L31.0284 21.1051Z" fill="white"/>
<path d="M30.7319 22.1579C30.7775 22.2558 30.8154 22.3464 30.8472 22.4273C30.2422 22.6383 29.8044 23.2081 29.8044 23.8839C29.8044 24.7379 30.4988 25.4323 31.3528 25.4323C32.2068 25.4323 32.9012 24.7379 32.9012 23.8839C32.9012 23.1313 32.3612 22.5039 31.6485 22.3653C31.6013 22.2263 31.5324 22.0433 31.4333 21.8311L30.7319 22.1579ZM32.127 23.884C32.127 24.3109 31.7797 24.6582 31.3528 24.6582C30.9259 24.6582 30.5786 24.3109 30.5786 23.884C30.5786 23.457 30.9259 23.1098 31.3528 23.1098C31.7797 23.1098 32.127 23.457 32.127 23.884Z" fill="white"/>
<path d="M28.4145 19.1017C28.1544 19.02 27.8811 18.9574 27.6016 18.9163L27.4885 19.6824C27.7274 19.7177 27.9608 19.771 28.1818 19.8407L28.4145 19.1017Z" fill="white"/>
<path d="M29.8993 19.8759C29.6771 19.7041 29.4387 19.5511 29.1902 19.4222L28.8329 20.1085C29.04 20.2166 29.2393 20.3439 29.4252 20.4879L29.8993 19.8759Z" fill="white"/>
<path d="M23.2235 31.2388L19.3525 18.8517H27.0944L23.2235 31.2388Z" fill="white"/>
<path d="M15.0946 25.4324C15.9485 25.4324 16.6429 24.7379 16.6429 23.884C16.6429 23.2081 16.2051 22.6383 15.6001 22.4273C15.6318 22.3464 15.6698 22.2558 15.7155 22.158L15.0137 21.8313C14.9146 22.0434 14.8457 22.2265 14.7985 22.3655C14.0863 22.5041 13.5463 23.1316 13.5463 23.8841C13.5462 24.7379 14.2407 25.4324 15.0946 25.4324ZM15.0946 23.1098C15.5215 23.1098 15.8688 23.457 15.8688 23.884C15.8688 24.3109 15.5215 24.6582 15.0946 24.6582C14.6676 24.6582 14.3204 24.3109 14.3204 23.884C14.3204 23.457 14.6676 23.1098 15.0946 23.1098Z" fill="white"/>
</g>
<defs>
<clipPath id="clip0_23_2339">
<rect width="24" height="24" fill="white" transform="translate(11.2235 11.1098)"/>
</clipPath>
</defs>
</svg>
