<svg width="485" height="432" viewBox="0 0 485 432" fill="none" xmlns="http://www.w3.org/2000/svg">
<path d="M32.6995 391.027C37.7607 393.953 37.7607 398.688 32.6995 401.613C27.6383 404.538 19.4309 404.538 14.3697 401.613C9.30849 398.688 9.30849 393.953 14.3697 391.027C19.4309 388.102 27.6383 388.102 32.6995 391.027Z" fill="#A11D21"/>
<path d="M386.332 372.14C392.035 375.434 392.035 380.779 386.332 384.072C380.629 387.366 371.391 387.366 365.688 384.072C359.985 380.779 359.985 375.434 365.688 372.14C371.391 368.847 380.629 368.847 386.332 372.14Z" fill="#A11D21"/>
<path d="M13.8015 285.026C16.9477 286.846 16.9477 289.782 13.8015 291.602C10.6553 293.423 5.56255 293.423 2.41638 291.602C-0.729778 289.782 -0.729778 286.846 2.41638 285.026C5.56255 283.206 10.6553 283.206 13.8015 285.026Z" fill="#FF7F85"/>
<path d="M196.268 376.675C198.446 377.938 198.446 379.979 196.268 381.231C194.09 382.494 190.555 382.494 188.377 381.231C186.199 379.969 186.199 377.927 188.377 376.675C190.555 375.412 194.09 375.412 196.268 376.675Z" fill="#FF7F85"/>
<path d="M172.888 298.084L94.4548 343.393C91.9084 344.866 87.7731 344.866 85.2267 343.393C82.6804 341.92 82.6804 339.531 85.2267 338.058L163.66 292.749C166.206 291.276 170.341 291.276 172.888 292.749C175.434 294.223 175.434 296.611 172.888 298.084Z" fill="#D7D7D7"/>
<path d="M233.475 263.077L192.028 287.025C189.481 288.498 185.346 288.498 182.8 287.025C180.253 285.552 180.253 283.164 182.8 281.69L224.247 257.742C226.793 256.269 230.929 256.269 233.475 257.742C236.022 259.215 236.022 261.603 233.475 263.077Z" fill="#D7D7D7"/>
<path d="M196.142 260.877L117.709 306.186C115.163 307.66 111.027 307.66 108.481 306.186C105.935 304.713 105.935 302.325 108.481 300.852L186.914 255.543C189.46 254.07 193.596 254.07 196.142 255.543C198.688 257.016 198.688 259.404 196.142 260.877Z" fill="#D7D7D7"/>
<path d="M296.43 202.942L217.997 248.251C215.45 249.724 211.315 249.724 208.769 248.251C206.222 246.778 206.222 244.389 208.769 242.916L287.202 197.607C289.748 196.134 293.884 196.134 296.43 197.607C298.976 199.08 298.976 201.469 296.43 202.942Z" fill="#D7D7D7"/>
<path d="M341.476 224.46L263.043 269.769C260.496 271.242 256.361 271.242 253.815 269.769C251.268 268.296 251.268 265.907 253.815 264.434L332.248 219.125C334.794 217.652 338.929 217.652 341.476 219.125C344.022 220.598 344.022 222.987 341.476 224.46Z" fill="#D7D7D7"/>
<path d="M193.459 309.974L170.499 323.233C167.953 324.706 163.818 324.706 161.271 323.233C158.725 321.759 158.725 319.371 161.271 317.898L184.231 304.64C186.777 303.167 190.913 303.167 193.459 304.64C196.005 306.113 196.005 308.501 193.459 309.974Z" fill="#D7D7D7"/>
<path d="M390.31 196.26L367.35 209.518C364.804 210.991 360.668 210.991 358.122 209.518C355.576 208.045 355.576 205.657 358.122 204.183L381.082 190.925C383.628 189.452 387.763 189.452 390.31 190.925C392.856 192.398 392.856 194.787 390.31 196.26Z" fill="#D7D7D7"/>
<path d="M211.736 228.09L133.303 273.399C130.757 274.872 126.621 274.872 124.075 273.399C121.529 271.926 121.529 269.537 124.075 268.064L202.508 222.755C205.054 221.282 209.19 221.282 211.736 222.755C214.283 224.228 214.283 226.617 211.736 228.09Z" fill="#D7D7D7"/>
<path d="M260.57 199.88L237.61 213.138C235.064 214.611 230.929 214.611 228.382 213.138C225.836 211.665 225.836 209.276 228.382 207.803L251.342 194.545C253.888 193.072 258.024 193.072 260.57 194.545C263.116 196.018 263.116 198.407 260.57 199.88Z" fill="#D7D7D7"/>
<path d="M299.124 385.103L220.691 430.412C218.144 431.886 214.009 431.886 211.463 430.412C208.916 428.939 208.916 426.551 211.463 425.078L289.896 379.769C292.442 378.296 296.577 378.296 299.124 379.769C301.67 381.242 301.67 383.63 299.124 385.103Z" fill="#D7D7D7"/>
<path d="M359.722 350.106L318.274 374.055C315.728 375.528 311.593 375.528 309.046 374.055C306.5 372.582 306.5 370.193 309.046 368.72L350.493 344.772C353.04 343.298 357.175 343.298 359.722 344.772C362.268 346.245 362.268 348.633 359.722 350.106Z" fill="#D7D7D7"/>
<path d="M322.378 347.897L243.945 393.206C241.398 394.679 237.263 394.679 234.717 393.206C232.17 391.732 232.17 389.344 234.717 387.871L313.15 342.562C315.696 341.089 319.832 341.089 322.378 342.562C324.924 344.035 324.924 346.424 322.378 347.897Z" fill="#D7D7D7"/>
<path d="M422.676 289.961L344.243 335.27C341.697 336.743 337.562 336.743 335.015 335.27C332.469 333.797 332.469 331.408 335.015 329.935L413.448 284.626C415.995 283.153 420.13 283.153 422.676 284.626C425.223 286.099 425.223 288.488 422.676 289.961Z" fill="#D7D7D7"/>
<path d="M467.722 311.49L389.289 356.799C386.743 358.272 382.607 358.272 380.061 356.799C377.515 355.325 377.515 352.937 380.061 351.464L458.494 306.155C461.041 304.682 465.176 304.682 467.722 306.155C470.269 307.628 470.269 310.016 467.722 311.49Z" fill="#D7D7D7"/>
<path d="M319.705 396.994L296.746 410.252C294.199 411.725 290.064 411.725 287.518 410.252C284.971 408.779 284.971 406.39 287.518 404.917L310.477 391.659C313.024 390.186 317.159 390.186 319.705 391.659C322.252 393.132 322.252 395.521 319.705 396.994Z" fill="#D7D7D7"/>
<path d="M337.982 315.109L259.549 360.418C257.003 361.891 252.868 361.891 250.321 360.418C247.775 358.945 247.775 356.557 250.321 355.083L328.754 309.774C331.301 308.301 335.436 308.301 337.982 309.774C340.529 311.248 340.529 313.636 337.982 315.109Z" fill="#D7D7D7"/>
<path d="M386.806 286.91L363.846 300.168C361.3 301.641 357.165 301.641 354.618 300.168C352.072 298.695 352.072 296.306 354.618 294.833L377.578 281.575C380.124 280.102 384.259 280.102 386.806 281.575C389.352 283.048 389.352 285.436 386.806 286.91Z" fill="#D7D7D7"/>
<path d="M245.323 325.284L166.89 370.593C164.344 372.066 160.209 372.066 157.662 370.593C155.116 369.12 155.116 366.732 157.662 365.258L236.095 319.95C238.642 318.476 242.777 318.476 245.323 319.95C247.87 321.423 247.87 323.811 245.323 325.284Z" fill="#D7D7D7"/>
<path d="M305.911 290.277L264.463 314.225C261.917 315.699 257.782 315.699 255.235 314.225C252.689 312.752 252.689 310.364 255.235 308.891L296.682 284.942C299.229 283.469 303.364 283.469 305.911 284.942C308.457 286.415 308.457 288.804 305.911 290.277Z" fill="#D7D7D7"/>
<path d="M268.577 288.078L190.144 333.386C187.598 334.86 183.463 334.86 180.916 333.386C178.37 331.913 178.37 329.525 180.916 328.052L259.349 282.743C261.896 281.27 266.031 281.27 268.577 282.743C271.124 284.216 271.124 286.604 268.577 288.078Z" fill="#D7D7D7"/>
<path d="M368.876 230.131L290.443 275.44C287.896 276.913 283.761 276.913 281.215 275.44C278.668 273.967 278.668 271.579 281.215 270.105L359.648 224.797C362.194 223.323 366.33 223.323 368.876 224.797C371.422 226.27 371.422 228.658 368.876 230.131Z" fill="#D7D7D7"/>
<path d="M413.922 251.66L335.489 296.969C332.942 298.442 328.807 298.442 326.261 296.969C323.714 295.496 323.714 293.107 326.261 291.634L404.694 246.325C407.24 244.852 411.375 244.852 413.922 246.325C416.468 247.798 416.468 250.187 413.922 251.66Z" fill="#D7D7D7"/>
<path d="M265.905 337.164L242.945 350.422C240.399 351.895 236.264 351.895 233.717 350.422C231.171 348.949 231.171 346.56 233.717 345.087L256.677 331.829C259.223 330.356 263.358 330.356 265.905 331.829C268.451 333.302 268.451 335.691 265.905 337.164Z" fill="#D7D7D7"/>
<path d="M462.745 223.46L439.786 236.718C437.239 238.191 433.104 238.191 430.557 236.718C428.011 235.245 428.011 232.857 430.557 231.383L453.517 218.125C456.064 216.652 460.199 216.652 462.745 218.125C465.292 219.599 465.292 221.987 462.745 223.46Z" fill="#D7D7D7"/>
<path d="M284.182 255.28L205.749 300.589C203.203 302.062 199.067 302.062 196.521 300.589C193.975 299.115 193.975 296.727 196.521 295.254L274.954 249.945C277.5 248.472 281.636 248.472 284.182 249.945C286.728 251.418 286.728 253.806 284.182 255.28Z" fill="#D7D7D7"/>
<path d="M333.005 227.08L310.046 240.338C307.499 241.811 303.364 241.811 300.818 240.338C298.271 238.865 298.271 236.476 300.818 235.003L323.777 221.745C326.324 220.272 330.459 220.272 333.005 221.745C335.552 223.218 335.552 225.607 333.005 227.08Z" fill="#D7D7D7"/>
<path d="M97.664 271.473L23.4609 314.341C21.0513 315.73 17.1476 315.73 14.7274 314.341C12.3178 312.952 12.3178 310.69 14.7274 309.301L88.9305 266.433C91.3401 265.044 95.2439 265.044 97.664 266.433C100.074 267.822 100.074 270.084 97.664 271.473Z" fill="#D7D7D7"/>
<path d="M154.989 238.36L115.773 261.014C113.363 262.403 109.46 262.403 107.039 261.014C104.63 259.625 104.63 257.363 107.039 255.974L146.256 233.32C148.666 231.931 152.569 231.931 154.989 233.32C157.399 234.709 157.399 236.971 154.989 238.36Z" fill="#D7D7D7"/>
<path d="M119.666 236.266L45.4629 279.134C43.0533 280.523 39.1496 280.523 36.7294 279.134C34.3198 277.745 34.3198 275.482 36.7294 274.093L110.933 231.226C113.342 229.837 117.246 229.837 119.666 231.226C122.076 232.615 122.076 234.877 119.666 236.266Z" fill="#D7D7D7"/>
<path d="M214.556 181.455L140.353 224.323C137.943 225.712 134.04 225.712 131.619 224.323C129.21 222.934 129.21 220.672 131.619 219.283L205.823 176.415C208.232 175.026 212.136 175.026 214.556 176.415C216.966 177.804 216.966 180.066 214.556 181.455Z" fill="#D7D7D7"/>
<path d="M257.171 201.826L182.968 244.694C180.559 246.083 176.655 246.083 174.235 244.694C171.825 243.305 171.825 241.043 174.235 239.654L248.438 196.786C250.847 195.397 254.751 195.397 257.171 196.786C259.581 198.175 259.581 200.437 257.171 201.826Z" fill="#D7D7D7"/>
<path d="M117.13 282.722L95.4123 295.264C93.0027 296.653 89.0989 296.653 86.6788 295.264C84.2692 293.875 84.2692 291.613 86.6788 290.224L108.397 277.682C110.806 276.293 114.71 276.293 117.13 277.682C119.54 279.07 119.54 281.333 117.13 282.722Z" fill="#D7D7D7"/>
<path d="M303.364 175.142L281.646 187.684C279.237 189.073 275.333 189.073 272.913 187.684C270.503 186.296 270.503 184.033 272.913 182.644L294.631 170.102C297.04 168.713 300.944 168.713 303.364 170.102C305.774 171.491 305.774 173.753 303.364 175.142Z" fill="#D7D7D7"/>
<path d="M134.429 205.246L60.2258 248.114C57.8161 249.503 53.9124 249.503 51.4923 248.114C49.0827 246.725 49.0827 244.463 51.4923 243.074L125.695 200.206C128.105 198.817 132.009 198.817 134.429 200.206C136.838 201.595 136.838 203.857 134.429 205.246Z" fill="#D7D7D7"/>
<path d="M180.611 178.562L158.893 191.104C156.484 192.493 152.58 192.493 150.16 191.104C147.75 189.715 147.75 187.453 150.16 186.064L171.878 173.521C174.287 172.133 178.191 172.133 180.611 173.521C183.021 174.91 183.021 177.173 180.611 178.562Z" fill="#D7D7D7"/>
<g style="mix-blend-mode:multiply">
<path d="M440.901 338.227L346.463 392.743C334.752 399.498 315.77 399.498 304.069 392.743L78.24 262.361C66.5287 255.606 66.5287 244.642 78.24 237.886L172.677 183.37C184.389 176.615 203.371 176.615 215.072 183.37L440.901 313.752C452.612 320.507 452.612 331.471 440.901 338.227Z" fill="#D7D7D7"/>
</g>
<path d="M69.6958 213.78C71.0322 215.526 72.842 216.852 74.7149 217.947L301.744 349.086C304.374 350.622 307.226 351.695 310.277 352.348C313.202 352.968 316.328 353.316 319.463 353.326C325.713 353.347 332.069 352.042 337.204 349.075L445.236 286.678C448.287 284.921 451.602 281.88 452.391 278.45C452.517 277.871 452.581 277.292 452.581 276.703V292.813C452.591 297.242 449.161 300.788 445.236 303.051L337.204 365.458C334.573 366.974 331.722 368.068 328.67 368.71C319.905 370.593 309.467 369.92 301.744 365.458L74.7149 234.319C73.7364 233.74 72.7789 233.109 71.8739 232.383C69.4117 230.436 67.3914 227.154 67.3914 224.007H67.3809V207.698H67.3914C67.4546 209.865 68.3595 212.044 69.6958 213.79V213.78Z" fill="#272E33"/>
<path d="M400.358 317.635C401.053 317.235 401.674 317.182 402.147 317.403C402.684 317.656 403.021 318.266 403.021 319.171V320.318C403.021 322.033 401.811 324.095 400.358 324.937L382.081 335.491C381.345 335.922 380.682 335.954 380.208 335.68C379.714 335.407 379.419 334.807 379.419 333.955V332.797C379.419 331.103 380.629 329.03 382.081 328.188L400.358 317.624V317.635Z" fill="#272E33"/>
<path d="M359.806 340.773C362.352 338.185 364.793 339.216 364.72 341.888C364.614 345.897 360.637 349.812 358.49 348.465C358.206 348.286 357.964 348.023 357.754 347.665C357.396 347.044 357.385 346.276 357.47 345.55C357.575 344.666 357.838 343.814 358.227 343.025C358.227 343.025 358.227 343.014 358.238 343.014C358.438 342.699 358.627 342.383 358.795 342.036C359.09 341.583 359.427 341.162 359.816 340.784L359.806 340.773Z" fill="#272E33"/>
<path d="M74.1046 212.78C75.967 215.032 77.4612 215.632 83.9955 219.441C84.1113 219.514 305.237 347.286 306.384 347.855C310.14 349.686 314.812 350.601 319.495 350.601L319.474 353.326C316.338 353.316 313.223 352.968 310.288 352.348C307.226 351.685 304.385 350.611 301.754 349.086L74.7149 217.947C72.8419 216.863 71.0321 215.526 69.6958 213.78C68.3594 212.033 67.444 209.855 67.3914 207.687C67.3598 207.003 67.4124 206.34 67.5703 205.678C68.3699 202.247 71.6739 199.206 74.7254 197.449L182.758 135.052C187.903 132.085 194.237 130.791 200.488 130.801L200.467 133.526C198.162 133.526 195.795 133.758 193.48 134.242C188.808 135.231 186.546 136.662 183.063 138.745C179.538 140.86 191.091 134.042 142.51 162.105C134.608 166.671 126.737 171.333 118.835 175.889C110.933 180.445 102.988 184.917 95.0965 189.536C91.8031 191.462 88.5306 193.409 85.2266 195.282C81.365 197.46 77.7663 199.364 75.9249 200.837C71.8107 204.141 70.7375 208.719 74.1046 212.78Z" fill="#E1DFEA"/>
<path d="M128.578 257.721L130.388 256.679L110.47 245.178L108.66 246.22L128.578 257.721Z" fill="#E1DFEA"/>
<path d="M130.388 259.194V256.679L128.578 257.721V260.246L130.388 259.194Z" fill="#7C7CA0"/>
<path d="M128.578 260.246V257.721L108.66 246.22V248.735L128.578 260.246Z" fill="#7C7CA0"/>
<path d="M348.147 351.38C348.536 351.159 348.852 350.622 348.852 350.201C348.852 349.77 348.536 349.601 348.147 349.822C347.758 350.043 347.442 350.58 347.442 351.001C347.442 351.432 347.758 351.601 348.147 351.38Z" fill="#272E33"/>
<path d="M439.449 302.419C440.049 302.072 440.533 301.251 440.533 300.589V295.412C440.533 294.749 440.049 294.486 439.449 294.833C438.849 295.18 438.365 296.001 438.365 296.664V301.841C438.365 302.504 438.849 302.767 439.449 302.419Z" fill="#272E33"/>
<path d="M435.103 304.934C435.703 304.587 436.187 303.766 436.187 303.103V297.926C436.187 297.264 435.703 297 435.103 297.348C434.503 297.695 434.019 298.516 434.019 299.179V304.356C434.019 305.018 434.503 305.282 435.103 304.934Z" fill="#272E33"/>
<path d="M430.757 307.439C431.357 307.091 431.841 306.271 431.841 305.608V300.431C431.841 299.768 431.357 299.505 430.757 299.852C430.158 300.199 429.674 301.02 429.674 301.683V306.86C429.674 307.523 430.158 307.786 430.757 307.439Z" fill="#272E33"/>
<path d="M426.412 309.953C427.011 309.606 427.495 308.785 427.495 308.122V302.946C427.495 302.283 427.011 302.02 426.412 302.367C425.812 302.714 425.328 303.535 425.328 304.198V309.375C425.328 310.038 425.812 310.301 426.412 309.953Z" fill="#272E33"/>
<path d="M422.066 312.468C422.666 312.121 423.15 311.3 423.15 310.637V305.46C423.15 304.797 422.666 304.534 422.066 304.882C421.466 305.229 420.982 306.05 420.982 306.713V311.889C420.982 312.552 421.466 312.815 422.066 312.468Z" fill="#272E33"/>
<path d="M417.72 314.972C418.32 314.625 418.804 313.804 418.804 313.142V307.965C418.804 307.302 418.32 307.039 417.72 307.386C417.12 307.733 416.636 308.554 416.636 309.217V314.394C416.636 315.057 417.12 315.32 417.72 314.972Z" fill="#272E33"/>
<path d="M445.247 286.689L337.214 349.086C332.069 352.053 325.724 353.358 319.474 353.337L319.495 350.611C323.651 350.611 327.839 349.875 331.396 348.391C333.489 347.518 335.047 346.508 336.909 345.403C340.434 343.288 328.881 350.106 377.462 322.043C385.364 317.477 393.235 312.815 401.137 308.259C409.05 303.703 416.994 299.221 424.875 294.612C428.169 292.686 431.441 290.74 434.756 288.867C441.301 285.184 444.384 283.742 446.404 280.838C449.045 277.029 448.435 272.01 441.911 268.138C441.658 267.98 214.619 136.799 213.588 136.294C209.989 134.547 205.339 133.537 200.467 133.537L200.488 130.812C203.623 130.822 206.738 131.169 209.684 131.79C212.746 132.453 215.587 133.526 218.239 135.052L445.257 266.191C447.151 267.275 448.94 268.611 450.287 270.358C451.686 272.178 452.591 274.462 452.591 276.713C452.591 277.303 452.528 277.881 452.402 278.46C451.613 281.89 448.298 284.931 445.247 286.689Z" fill="#E1DFEA"/>
<path d="M217.755 138.693C215.114 137.167 213.651 136.315 213.567 136.283C209.968 134.536 205.317 133.537 200.445 133.526C198.141 133.526 195.774 133.758 193.469 134.252C188.797 135.241 186.525 136.662 183.052 138.745C179.78 140.713 189.544 134.947 151.79 156.728L142.499 162.094C134.597 166.671 126.726 171.322 118.835 175.878C116.667 177.131 114.5 178.372 112.321 179.603C106.576 182.897 100.81 186.169 95.0859 189.526C91.8029 191.462 88.5305 193.409 85.2265 195.271C81.3754 197.449 77.7662 199.354 75.9248 200.827C71.8211 204.131 70.7268 208.708 74.1045 212.77C75.9774 215.021 77.4716 215.621 83.9954 219.441L180.022 274.914C239.904 309.511 305.763 347.539 306.394 347.855C310.14 349.685 314.823 350.611 319.495 350.611C323.651 350.611 327.839 349.864 331.385 348.381C333.479 347.507 335.047 346.508 336.898 345.392C340.423 343.277 328.88 350.096 377.462 322.043C385.364 317.466 393.235 312.815 401.137 308.249C409.05 303.693 416.994 299.21 424.886 294.601C428.158 292.676 431.441 290.719 434.745 288.856C441.29 285.173 444.373 283.732 446.393 280.828C448.94 277.166 448.477 272.389 442.626 268.59C442.395 268.432 442.142 268.275 441.89 268.127C441.669 267.991 248.837 156.56 217.765 138.693H217.755Z" fill="#E1DFEA"/>
<path d="M442.616 268.59C448.456 272.389 448.929 277.166 446.383 280.828C444.363 283.742 441.28 285.173 434.735 288.856C431.431 290.719 428.148 292.676 424.875 294.601C416.984 299.221 409.039 303.693 401.127 308.249C393.224 312.815 385.354 317.466 377.452 322.043C328.87 350.096 340.424 343.277 336.888 345.392C335.036 346.508 333.479 347.507 331.374 348.381C323.777 351.558 313.392 351.285 306.384 347.855C305.332 347.339 113.058 236.245 83.9851 219.451C77.4508 215.632 75.9671 215.032 74.0942 212.78C70.7165 208.729 71.8108 204.141 75.9145 200.837C78.1558 199.049 179.896 140.65 183.052 138.756C186.525 136.672 188.787 135.252 193.469 134.263C200.625 132.737 208.306 133.726 213.567 136.294C213.714 136.357 207.548 132.811 442.616 268.601V268.59Z" fill="url(#paint0_linear_23_2044)"/>
<path d="M147.129 165.272C148.108 164.693 149.686 164.693 150.665 165.272L151.98 166.03L127.937 179.919C126.958 180.498 125.369 180.477 124.38 179.919L123.075 179.161L147.119 165.272H147.129Z" fill="#090000"/>
<path d="M150.665 162.82L152.327 163.778C153.316 164.357 153.295 165.261 152.327 165.819L151.98 166.019L150.665 165.261C149.686 164.683 148.108 164.683 147.129 165.261L123.086 179.151L122.739 178.951C122.265 178.677 122.013 178.309 122.002 177.951V177.93C122.002 177.562 122.255 177.194 122.739 176.91L147.129 162.82C148.108 162.242 149.697 162.263 150.665 162.82Z" fill="#272E33"/>
<g opacity="0.27">
<path d="M171.72 191.462L122.486 219.904C120.887 220.83 118.298 220.83 116.699 219.904C115.1 218.978 115.1 217.484 116.699 216.558L165.933 188.116C167.532 187.19 170.121 187.19 171.72 188.116C173.319 189.042 173.319 190.536 171.72 191.462Z" fill="#8D8D8D"/>
<path d="M168.426 206.74L134.061 226.585C132.461 227.511 129.873 227.511 128.273 226.585C126.674 225.659 126.674 224.165 128.273 223.239L162.639 203.394C164.239 202.468 166.827 202.468 168.426 203.394C170.026 204.32 170.026 205.814 168.426 206.74Z" fill="#8D8D8D"/>
<path d="M180.001 213.432L145.635 233.278C144.036 234.203 141.447 234.203 139.848 233.278C138.249 232.352 138.249 230.857 139.848 229.931L174.214 210.086C175.813 209.16 178.402 209.16 180.001 210.086C181.6 211.012 181.6 212.507 180.001 213.432Z" fill="#8D8D8D"/>
</g>
<g opacity="0.27">
<path d="M247.386 239.223L198.152 267.664C196.552 268.59 193.964 268.59 192.365 267.664C190.765 266.738 190.765 265.244 192.365 264.318L241.598 235.877C243.198 234.951 245.786 234.951 247.386 235.877C248.985 236.802 248.985 238.297 247.386 239.223Z" fill="#8D8D8D"/>
<path d="M244.092 254.501L209.726 274.346C208.127 275.272 205.538 275.272 203.939 274.346C202.34 273.42 202.34 271.926 203.939 271L238.305 251.155C239.904 250.229 242.493 250.229 244.092 251.155C245.692 252.081 245.692 253.575 244.092 254.501Z" fill="#8D8D8D"/>
<path d="M255.667 261.193L221.301 281.038C219.701 281.964 217.113 281.964 215.514 281.038C213.914 280.112 213.914 278.618 215.514 277.692L249.879 257.847C251.479 256.921 254.067 256.921 255.667 257.847C257.266 258.773 257.266 260.267 255.667 261.193Z" fill="#8D8D8D"/>
</g>
<g opacity="0.27">
<path d="M348.2 225.533L298.966 253.975C297.366 254.901 294.778 254.901 293.179 253.975C291.579 253.049 291.579 251.555 293.179 250.629L342.412 222.187C344.012 221.261 346.6 221.261 348.2 222.187C349.799 223.113 349.799 224.607 348.2 225.533Z" fill="#F2F8FF"/>
<path d="M344.896 240.822L310.53 260.667C308.93 261.593 306.342 261.593 304.743 260.667C303.143 259.741 303.143 258.247 304.743 257.321L339.108 237.476C340.708 236.55 343.296 236.55 344.896 237.476C346.495 238.402 346.495 239.896 344.896 240.822Z" fill="#F2F8FF"/>
<path d="M356.481 247.504L322.115 267.349C320.515 268.275 317.927 268.275 316.328 267.349C314.728 266.423 314.728 264.929 316.328 264.003L350.693 244.158C352.293 243.232 354.881 243.232 356.481 244.158C358.08 245.084 358.08 246.578 356.481 247.504Z" fill="#F2F8FF"/>
</g>
<g opacity="0.27">
<path d="M337.635 288.782L288.401 317.224C286.802 318.15 284.214 318.15 282.614 317.224C281.015 316.298 281.015 314.804 282.614 313.878L331.848 285.436C333.447 284.51 336.036 284.51 337.635 285.436C339.235 286.362 339.235 287.857 337.635 288.782Z" fill="#8D8D8D"/>
<path d="M334.342 304.071L299.976 323.916C298.377 324.842 295.788 324.842 294.189 323.916C292.589 322.99 292.589 321.496 294.189 320.57L328.554 300.725C330.154 299.799 332.742 299.799 334.342 300.725C335.941 301.651 335.941 303.145 334.342 304.071Z" fill="#8D8D8D"/>
<path d="M345.916 310.753L311.55 330.598C309.951 331.524 307.363 331.524 305.763 330.598C304.164 329.672 304.164 328.178 305.763 327.252L340.129 307.407C341.728 306.481 344.317 306.481 345.916 307.407C347.516 308.333 347.516 309.827 345.916 310.753Z" fill="#8D8D8D"/>
</g>
<g opacity="0.27">
<path d="M267.778 177.425L218.544 205.867C216.945 206.793 214.356 206.793 212.757 205.867C211.157 204.941 211.157 203.447 212.757 202.521L261.99 174.079C263.59 173.153 266.178 173.153 267.778 174.079C269.377 175.005 269.377 176.499 267.778 177.425Z" fill="#717F90"/>
<path d="M264.474 192.704L230.108 212.549C228.509 213.475 225.92 213.475 224.321 212.549C222.721 211.623 222.721 210.128 224.321 209.203L258.687 189.357C260.286 188.432 262.874 188.432 264.474 189.357C266.073 190.283 266.073 191.778 264.474 192.704Z" fill="#717F90"/>
<path d="M276.059 199.396L241.693 219.241C240.094 220.167 237.505 220.167 235.906 219.241C234.306 218.315 234.306 216.821 235.906 215.895L270.272 196.05C271.871 195.124 274.459 195.124 276.059 196.05C277.658 196.976 277.658 198.47 276.059 199.396Z" fill="#717F90"/>
</g>
<path d="M121.087 63.8793V91.2057C121.087 100.77 114.373 112.408 106.092 117.196C104.924 117.869 103.756 118.543 102.588 119.216L94.2653 139.261L85.9422 128.833C84.7742 129.507 83.6062 130.18 82.4383 130.854C82.1016 131.054 81.7648 131.232 81.4281 131.39C77.6822 133.274 74.3256 133.337 71.8213 131.895C71.7582 131.853 71.695 131.822 71.6214 131.78C69.0224 130.17 67.423 126.855 67.423 122.183V94.8674C67.423 85.2922 74.1362 73.6545 82.4277 68.8774C90.3089 64.3318 98.1901 59.7756 106.071 55.2195C110.133 52.873 113.816 52.61 116.509 54.0725C116.562 54.0936 116.615 54.1357 116.667 54.1673C119.382 55.7351 121.055 59.0917 121.055 63.8793H121.087Z" fill="#A11D21"/>
<path d="M59.6787 124.877C56.9639 123.309 55.2909 119.942 55.2909 115.165V87.8386C55.2909 78.2738 62.0041 66.6362 70.2851 61.8485C78.1663 57.3029 86.0475 52.7467 93.9287 48.1801C98.0745 45.7915 101.82 45.5705 104.535 47.1384C108.544 49.4427 112.543 51.7576 116.541 54.0725C113.847 52.5994 110.165 52.873 106.103 55.2195C98.2218 59.7651 90.3406 64.3212 82.4594 68.8774C74.1784 73.665 67.4547 85.2922 67.4547 94.8674V122.183C67.4547 126.855 69.054 130.17 71.653 131.78C67.6651 129.475 63.6771 127.181 59.6892 124.866L59.6787 124.877Z" fill="#D11F1F"/>
<path d="M85.9528 128.833L94.2759 139.261L82.1121 132.232L81.4492 131.39C81.7754 131.232 82.1226 131.043 82.4594 130.854C83.6273 130.18 84.7953 129.507 85.9633 128.833H85.9528Z" fill="#D11F1F"/>
<path d="M102.799 81.9882C99.6318 79.1471 93.4341 81.4094 88.9516 87.0283C84.4797 92.6578 83.4169 99.5183 86.5947 102.359C89.341 104.822 94.3496 103.454 98.548 99.392L104.293 104.537C104.946 105.127 106.261 104.622 107.229 103.401C108.197 102.191 108.449 100.728 107.787 100.139L102.041 94.9937C105.103 89.922 105.535 84.4504 102.788 81.9882H102.799ZM99.053 96.0775C95.6543 100.35 90.9509 102.065 88.5518 99.9076C86.1422 97.7505 86.9524 92.542 90.3406 88.27C93.7393 83.9979 98.4427 82.2828 100.842 84.4399C103.251 86.5969 102.441 91.8054 99.053 96.0775Z" fill="#DADADA"/>
<path d="M65.1712 136.388C68.7172 138.43 68.7172 141.755 65.1712 143.796C61.6252 145.837 55.8801 145.837 52.3446 143.796C48.7986 141.755 48.7986 138.43 52.3446 136.388C55.8906 134.347 61.6357 134.347 65.1712 136.388Z" fill="#A11D21"/>
<path d="M482.064 122.204C485.61 124.246 485.61 127.571 482.064 129.612C478.518 131.653 472.773 131.653 469.237 129.612C465.691 127.571 465.691 124.246 469.237 122.204C472.783 120.163 478.529 120.163 482.064 122.204Z" fill="#A11D21"/>
<path d="M68.0754 167.303L69.3801 169.197C69.4854 169.355 69.6958 169.386 69.9378 169.281L72.863 168.018C73.4628 167.755 73.7048 168.366 73.2734 169.039L71.1584 172.332C70.9795 172.606 70.9059 172.89 70.948 173.111L71.453 175.742C71.5583 176.289 70.9269 177.11 70.3798 177.141L67.7597 177.278C67.5493 177.288 67.2862 177.436 67.0758 177.678L64.4557 180.571C63.9191 181.171 63.2878 181.076 63.3825 180.414L63.8875 177.204C63.9296 176.941 63.8454 176.741 63.6771 176.678L61.5621 175.836C61.1202 175.657 61.3622 174.784 61.9725 174.342L64.8977 172.227C65.1397 172.059 65.3501 171.785 65.4553 171.501L66.7601 168.092C67.0337 167.387 67.8123 166.935 68.0859 167.324L68.0754 167.303Z" fill="#D11F1F"/>
<path d="M82.9223 158.727L84.2271 160.621C84.3323 160.779 84.5427 160.811 84.7848 160.705L87.71 159.443C88.3097 159.18 88.5517 159.79 88.1203 160.463L86.0053 163.757C85.8265 164.03 85.7528 164.314 85.7949 164.535L86.3 167.166C86.4052 167.713 85.7739 168.534 85.2267 168.565L82.6066 168.702C82.3962 168.713 82.1331 168.86 81.9227 169.102L79.3026 171.996C78.766 172.596 78.1347 172.501 78.2294 171.838L78.7344 168.629C78.7765 168.366 78.6924 168.166 78.524 168.103L76.409 167.261C75.9671 167.082 76.2091 166.208 76.8194 165.767L79.7446 163.652C79.9866 163.483 80.197 163.21 80.3023 162.926L81.607 159.516C81.8806 158.811 82.6593 158.359 82.9328 158.748L82.9223 158.727Z" fill="#D11F1F"/>
<path d="M97.7798 150.151L99.0846 152.045C99.1898 152.203 99.4002 152.235 99.6422 152.13L102.567 150.867C103.167 150.604 103.409 151.214 102.978 151.888L100.863 155.181C100.684 155.455 100.61 155.739 100.652 155.96L101.157 158.59C101.263 159.138 100.631 159.958 100.084 159.99L97.4641 160.127C97.2537 160.137 96.9906 160.284 96.7802 160.526L94.1601 163.42C93.6235 164.02 92.9922 163.925 93.0869 163.262L93.5919 160.053C93.634 159.79 93.5498 159.59 93.3815 159.527L91.2665 158.685C90.8246 158.506 91.0666 157.633 91.6769 157.191L94.6021 155.076C94.8441 154.908 95.0545 154.634 95.1597 154.35L96.4645 150.941C96.7381 150.236 97.5167 149.783 97.7903 150.173L97.7798 150.151Z" fill="#D11F1F"/>
<path d="M112.627 141.565L113.932 143.459C114.037 143.617 114.247 143.649 114.489 143.543L117.414 142.281C118.014 142.018 118.256 142.628 117.825 143.301L115.71 146.595C115.531 146.869 115.457 147.153 115.499 147.374L116.004 150.004C116.11 150.551 115.478 151.372 114.931 151.404L112.311 151.54C112.101 151.551 111.838 151.698 111.627 151.94L109.007 154.834C108.47 155.434 107.839 155.339 107.934 154.676L108.439 151.467C108.481 151.204 108.397 151.004 108.228 150.941L106.113 150.099C105.672 149.92 105.914 149.047 106.524 148.605L109.449 146.49C109.691 146.321 109.902 146.048 110.007 145.764L111.311 142.354C111.585 141.649 112.364 141.197 112.637 141.586L112.627 141.565Z" fill="#A11D21"/>
<path d="M127.474 132.99L128.778 134.884C128.884 135.041 129.094 135.073 129.336 134.968L132.261 133.705C132.861 133.442 133.103 134.052 132.672 134.726L130.557 138.019C130.378 138.293 130.304 138.577 130.346 138.798L130.851 141.429C130.957 141.976 130.325 142.796 129.778 142.828L127.158 142.965C126.948 142.975 126.685 143.123 126.474 143.365L123.854 146.258C123.317 146.858 122.686 146.763 122.781 146.1L123.286 142.891C123.328 142.628 123.244 142.428 123.075 142.365L120.96 141.523C120.518 141.344 120.76 140.471 121.371 140.029L124.296 137.914C124.538 137.746 124.748 137.472 124.854 137.188L126.158 133.779C126.432 133.074 127.211 132.621 127.484 133.011L127.474 132.99Z" fill="#A11D21"/>
<path d="M286.423 17.4655V40.0674C286.423 47.9801 291.968 57.5975 298.818 61.5539C299.787 62.1116 300.744 62.6692 301.712 63.2269L308.594 79.7995L315.475 71.1818C316.443 71.7395 317.411 72.2971 318.369 72.8548C318.653 73.0127 318.927 73.1705 319.2 73.2968C322.294 74.8541 325.082 74.9067 327.144 73.7176C327.197 73.6861 327.25 73.6545 327.302 73.623C329.449 72.2866 330.775 69.5508 330.775 65.6891V43.0978C330.775 35.1851 325.219 25.5572 318.369 21.6008C311.856 17.8338 305.332 14.0668 298.818 10.3104C295.462 8.37428 292.41 8.15332 290.19 9.36338C290.148 9.38442 290.096 9.41599 290.053 9.43703C287.812 10.7313 286.423 13.5092 286.423 17.4655Z" fill="#A11D21"/>
<path d="M337.204 67.9094C339.445 66.6151 340.834 63.8267 340.834 59.8808V37.279C340.834 29.3662 335.289 19.7489 328.439 15.7925C321.925 12.0255 315.402 8.25854 308.888 4.49156C305.458 2.51337 302.365 2.33449 300.123 3.62873C296.809 5.53327 293.505 7.44832 290.201 9.36338C292.431 8.15332 295.472 8.37428 298.829 10.3104C305.342 14.0774 311.866 17.8443 318.379 21.6008C325.229 25.5572 330.785 35.1745 330.785 43.0978V65.6891C330.785 69.5508 329.459 72.2866 327.313 73.6229C330.606 71.7184 333.91 69.8139 337.204 67.9094Z" fill="#D11F1F"/>
<path d="M315.475 71.1818L308.594 79.7995L318.653 73.9912L319.2 73.2967C318.927 73.16 318.643 73.0126 318.369 72.8548C317.411 72.2971 316.443 71.7395 315.475 71.1818Z" fill="#D11F1F"/>
<path d="M306.963 32.7018C306.742 32.5755 306.542 32.544 306.384 32.6071L305.805 32.8491L302.659 31.0287C301.449 30.3343 300.407 30.6289 300.239 31.7337L299.955 33.5436L301.607 34.5011L301.859 32.9017C301.912 32.5334 302.259 32.4387 302.67 32.6702L306.153 34.68C306.374 34.8062 306.573 34.8378 306.731 34.7747L307.31 34.5327L309.898 36.0268L310.477 36.9423C310.635 37.1843 310.835 37.3842 311.056 37.5105L314.539 39.5202C314.939 39.7517 315.296 40.2568 315.349 40.6882L315.602 42.5822L317.254 43.5397L316.969 41.3932C316.801 40.0884 315.759 38.5837 314.549 37.8893L311.403 36.0689L310.824 35.1535C310.677 34.9115 310.467 34.7115 310.246 34.5853L306.984 32.7018H306.963ZM298.797 34.5222C298.345 34.2591 297.977 34.4169 297.977 34.8694V36.5003C297.977 36.9528 298.345 37.5315 298.797 37.7841L298.934 37.8682L300.207 46.2229C300.334 47.0858 301.018 48.0538 301.817 48.5168L315.37 56.3454C316.17 56.8083 316.854 56.6189 316.98 55.9139L318.253 49.0324L318.39 49.106C318.842 49.3691 319.211 49.2113 319.211 48.7588V47.1278C319.211 46.6754 318.842 46.0967 318.39 45.8441L298.797 34.5327V34.5222ZM312.676 46.6228C313.129 46.8858 313.497 47.4646 313.497 47.9065V51.9891C313.497 52.4416 313.129 52.5889 312.676 52.3364C312.224 52.0733 311.856 51.4946 311.856 51.0527V46.97C311.856 46.5175 312.224 46.3702 312.676 46.6228ZM308.594 44.2658C309.046 44.5288 309.414 45.1076 309.414 45.5495V49.6321C309.414 50.0846 309.046 50.2319 308.594 49.9794C308.141 49.7163 307.773 49.1376 307.773 48.6957V44.613C307.773 44.1606 308.141 44.0132 308.594 44.2658ZM304.511 41.9088C304.964 42.1718 305.332 42.7506 305.332 43.1925V47.2752C305.332 47.7276 304.964 47.8749 304.511 47.6224C304.059 47.3593 303.69 46.7806 303.69 46.3387V42.256C303.69 41.8036 304.059 41.6563 304.511 41.9088Z" fill="#FBFAFC"/>
<g style="mix-blend-mode:multiply">
<path d="M382.085 276.798L330.073 306.829C324.938 309.796 316.604 309.796 311.47 306.829L215.959 251.682C210.824 248.714 210.824 243.906 215.959 240.939L267.971 210.908C273.105 207.941 281.439 207.941 286.574 210.908L382.085 266.055C387.22 269.022 387.22 273.831 382.085 276.798Z" fill="#F6F6F6"/>
</g>
<path d="M283.48 188.927L313.479 170.765L310.039 169.24L279.661 186.822L283.48 188.927Z" fill="#E1DFEA"/>
<path d="M266.655 178.605L296.665 160.454L293.224 158.917L262.836 176.5L266.655 178.605Z" fill="#E1DFEA"/>
<path d="M281.776 77.5696C281.155 82.957 277.409 118.943 276.788 124.331L279.85 126.246C280.324 122.153 284.459 83.4831 284.932 79.4005C283.88 78.7902 282.828 78.1904 281.776 77.5802V77.5696Z" fill="#E1DFEA"/>
<path d="M312.069 149.647C312.932 142.229 317.993 106.39 318.846 98.9719C317.793 98.3617 316.741 97.7619 315.689 97.1516C314.826 104.57 309.765 140.409 308.913 147.827C308.85 148.342 308.797 148.858 308.734 149.384C308.734 149.384 308.734 149.405 308.734 149.416C308.713 149.647 308.776 149.889 308.923 150.079C309.113 150.331 309.428 150.447 309.786 150.468C310.386 150.51 311.101 150.289 311.596 150.079C311.701 150.037 311.848 149.963 311.943 149.9C312.017 149.847 312.048 149.805 312.048 149.752C312.048 149.752 312.048 149.679 312.059 149.637L312.069 149.647Z" fill="#E1DFEA"/>
<path d="M341.163 163C340.669 165.031 339.206 167.682 337.112 169.797C336.986 170.765 336.849 171.744 336.723 172.712C338.238 171.839 339.753 170.955 341.279 170.082C342.647 168.261 343.878 165.988 344.415 163.81C345.541 159.317 346.667 154.814 347.782 150.321C346.435 151.089 345.099 151.867 343.762 152.636C342.9 156.087 342.037 159.538 341.174 162.989L341.163 163Z" fill="#E1DFEA"/>
<path d="M348.466 141.566C348.971 141.492 349.529 141.324 349.834 141.177C349.929 141.124 350.086 141.051 350.107 140.945C350.107 140.945 350.128 140.851 350.139 140.798C351.865 133.874 353.601 126.961 355.326 120.038C354.327 119.459 353.317 118.88 352.317 118.301C350.591 125.215 348.866 132.138 347.13 139.062C347.024 139.504 346.909 139.935 346.803 140.367C346.646 140.819 346.867 141.408 347.561 141.566C347.845 141.629 348.161 141.619 348.455 141.566H348.466Z" fill="#E1DFEA"/>
<path d="M349.834 141.166C349.529 141.314 348.96 141.492 348.466 141.556C348.182 141.598 347.866 141.619 347.572 141.556C346.877 141.408 346.667 140.809 346.814 140.356C346.919 139.914 347.035 139.483 347.14 139.051C340.153 135.021 333.167 130.991 326.18 126.951C328.81 129.066 282.607 100.329 282.523 102.918C282.523 103.602 281.755 106.822 281.755 107.506C286.721 110.368 339.995 141.998 344.962 144.86C347.003 143.681 349.045 142.503 351.086 141.324C350.77 141.145 350.465 140.966 350.149 140.787C350.139 140.84 350.128 140.882 350.118 140.935C350.097 141.029 349.928 141.114 349.844 141.166H349.834Z" fill="#E1DFEA"/>
<path d="M349.834 168.524C349.529 168.672 348.96 168.85 348.466 168.914C348.182 168.956 347.866 168.977 347.572 168.914C346.877 168.766 346.667 168.166 346.814 167.714C346.919 167.272 347.035 166.841 347.14 166.409C340.153 162.379 333.167 158.349 326.18 154.309C328.81 156.424 282.607 127.687 282.523 130.276C282.523 130.96 281.755 134.179 281.755 134.863C286.721 137.725 339.995 169.355 344.962 172.218C347.003 171.039 349.045 169.861 351.086 168.682C350.77 168.503 350.465 168.324 350.149 168.145C350.139 168.198 350.128 168.24 350.118 168.293C350.097 168.387 349.928 168.472 349.844 168.524H349.834Z" fill="#E1DFEA"/>
<path d="M231.195 16.7508C235.678 20.0127 239.666 26.042 241.107 32.0187C243.033 39.8893 244.958 47.76 246.873 55.6307L251.65 52.8738C249.851 45.5082 248.052 38.1321 246.253 30.7665C244.548 23.7482 239.939 16.572 234.32 12.4893C231.3 10.2796 228.28 8.08048 225.25 5.86028C217.327 -0.0216765 203.974 -1.0739 195.788 3.7453C189.001 7.65959 182.224 11.5739 175.438 15.4987C168.661 19.413 161.874 23.3273 155.098 27.2416C150.921 29.5985 147.985 33.6601 148.227 38.4057C148.448 42.7409 151.247 46.5184 154.73 49.0227C154.73 49.0227 154.74 49.0227 154.751 49.0437C157.781 51.2534 160.791 53.4631 163.821 55.6728C168.261 58.8926 172.27 64.9008 173.733 70.9301C176.174 80.9157 178.615 90.9014 181.056 100.876C181.056 100.845 181.225 100.834 181.256 100.834C181.888 100.813 182.877 101.024 183.487 101.171C184.35 101.382 185.023 101.603 185.455 101.455C186.097 101.245 186.328 100.245 186.17 99.4981C186.044 98.9825 185.918 98.4669 185.791 97.9513C183.487 88.5233 181.183 79.1059 178.878 69.6779C177.174 62.6385 172.544 55.4623 166.946 51.3902C163.916 49.1805 160.896 46.9708 157.876 44.7612C155.256 42.8777 152.972 39.8683 153.635 36.7432C154.098 34.6072 155.856 32.892 157.75 31.8187C164.536 27.9045 171.323 23.9796 178.1 20.0654C184.887 16.1511 191.673 12.2368 198.45 8.31197C204.647 4.65022 215.685 5.33416 222.125 10.1113C225.145 12.321 228.175 14.5306 231.195 16.7403V16.7508Z" fill="#E1DFEA"/>
<path d="M199.439 97.12C198.387 97.7303 197.334 98.3301 196.282 98.9404C196.892 104.18 197.503 109.41 198.113 114.65C199.313 115.345 200.512 116.039 201.722 116.734C200.965 110.189 200.196 103.654 199.439 97.1095V97.12Z" fill="#E1DFEA"/>
<path d="M205.679 149.216C204.447 148.5 203.206 147.795 201.964 147.08C202.669 150.152 204.374 153.13 206.478 155.245C206.215 153.235 205.942 151.226 205.679 149.216Z" fill="#E1DFEA"/>
<path d="M214.791 112.041C211.255 114.082 207.73 116.123 204.195 118.165C206.236 119.343 208.278 120.522 210.319 121.7C211.813 120.837 213.307 119.974 214.801 119.112V112.041H214.791Z" fill="#E1DFEA"/>
<path d="M204.269 138.588C203.721 134.443 203.164 130.297 202.606 126.14C201.617 126.709 200.628 127.277 199.649 127.845C200.102 131.707 200.554 135.568 200.996 139.43C202.217 140.135 203.437 140.84 204.658 141.545C204.532 140.556 204.395 139.567 204.269 138.578V138.588Z" fill="#E1DFEA"/>
<path d="M211.171 165.115C211.255 165.746 211.476 166.483 211.929 166.925C212.613 167.577 213.665 167.409 214.538 167.051C219.221 164.41 217.969 165.126 220.326 163.768C216.958 161.822 213.591 159.875 210.214 157.928C210.529 160.317 210.845 162.716 211.171 165.104V165.115ZM237.182 169.65V170.113L240.002 171.734C240.16 172.965 240.328 174.185 240.486 175.416C234.878 172.175 229.28 168.945 223.672 165.704C222.409 166.43 221.136 167.167 219.873 167.903C219.052 168.535 215.548 170.334 214.528 170.555C214.317 170.608 214.117 170.639 213.917 170.66C210.708 171.081 208.288 168.956 207.857 165.557C207.404 162.116 206.941 158.675 206.478 155.245C206.215 153.235 205.942 151.226 205.679 149.216C206.899 149.921 208.12 150.626 209.33 151.32C209.435 152.078 209.53 152.846 209.635 153.604C210.014 153.919 210.403 154.203 210.813 154.435C215.096 156.908 219.379 159.38 223.661 161.853C224.313 161.474 224.955 161.106 225.608 160.727C226.723 161.369 227.838 162.011 228.943 162.653C228.291 163.021 227.649 163.4 226.997 163.779C230.385 165.736 233.784 167.693 237.172 169.65H237.182Z" fill="#E1DFEA"/>
<path d="M205.752 145.459C206.405 145.67 207.341 145.217 207.878 144.828C208.151 144.628 208.425 144.376 208.372 144.113C208.351 143.965 208.33 143.818 208.309 143.66C207.541 137.862 206.762 132.065 205.994 126.277C204.774 125.572 203.564 124.867 202.343 124.173C202.427 124.836 202.522 125.488 202.606 126.151C203.153 130.297 203.711 134.443 204.269 138.599C204.395 139.588 204.532 140.577 204.658 141.566C204.795 142.566 204.921 143.555 205.058 144.554C205.058 144.576 205.058 144.597 205.058 144.607C205.121 144.996 205.352 145.344 205.742 145.47L205.752 145.459Z" fill="#E1DFEA"/>
<path d="M220.347 251.556C221.693 250.787 223.03 250.009 224.366 249.241C224.976 248.883 225.481 248.336 225.839 247.704C226.86 245.937 226.765 243.422 226.313 241.423C224.819 240.56 223.335 239.697 221.841 238.834L221.904 242.822C223.167 247.084 222.346 250.282 220.336 251.556H220.347Z" fill="#272E33"/>
<path d="M206.962 237.624C206.962 242.359 210.151 248.115 214.244 250.777C216.685 252.366 218.842 252.492 220.347 251.545C222.356 250.272 223.177 247.073 221.914 242.822L221.967 246.116L221.357 246.484L207.488 238.476L207.425 234.867C207.099 235.73 206.973 236.677 206.973 237.624H206.962Z" fill="#3F4F5D"/>
<path d="M222.788 234.383C223.335 233.783 224.24 233.11 225.05 233.152C225.282 233.152 225.524 233.226 225.723 233.341V233.32C221.104 230.648 216.485 227.975 211.855 225.313C211.413 225.06 210.856 225.134 210.34 225.334C210.235 225.376 210.129 225.418 210.035 225.471C208.688 226.165 207.299 228.301 207.331 230.143V230.469L207.415 234.878L207.478 238.487L221.346 246.494L221.209 238.15C221.188 236.824 221.893 235.351 222.788 234.383Z" fill="#D11F1F"/>
<path d="M225.04 233.142C224.229 233.11 223.335 233.773 222.777 234.373C221.883 235.341 221.178 236.814 221.199 238.14L221.336 246.484L221.946 246.116L221.893 242.822L221.83 238.824L221.809 237.287C221.872 236.835 221.904 236.635 222.114 236.182C222.525 235.257 223.314 234.278 224.24 233.941C224.882 233.71 225.166 233.91 225.334 233.973C225.713 234.194 226.092 234.415 226.471 234.625C226.418 234.257 226.313 233.868 226.06 233.594C225.965 233.489 225.85 233.394 225.713 233.331C225.513 233.215 225.271 233.152 225.04 233.142Z" fill="#9B346C"/>
<path d="M239.918 145.859L242.307 163.747L257.49 156.055L239.918 145.859Z" fill="#8D8D8D"/>
<path d="M233.163 84.7563V134.895C234.499 135.674 263.414 152.236 263.414 152.236L274.694 146.122L275.494 96.2888V60.3236L233.173 84.7563H233.163Z" fill="#8D8D8D"/>
<path d="M214.791 131.349V147.395C220.915 150.931 227.039 154.477 233.173 158.002V141.955C227.049 138.42 220.925 134.884 214.791 131.349Z" fill="#D3D3D3"/>
<path d="M214.791 119.112V124.278C220.915 127.814 227.039 131.349 233.173 134.884V84.7458L214.791 74.1394V119.101V119.112Z" fill="#D3D3D3"/>
<path d="M215.269 74.6315L258.141 49.875L276.536 59.892L232.611 85.7008L215.269 74.6315Z" fill="#D7D7D7"/>
<path d="M233.163 141.966V158.012C234.499 158.781 235.835 159.559 237.182 160.327V150.605C236.877 148.321 236.572 146.038 236.267 143.755C235.236 143.155 234.194 142.555 233.163 141.966Z" fill="#8D8D8D"/>
<path d="M263.346 158.563L265.734 176.45L280.918 168.759L263.346 158.563Z" fill="#8D8D8D"/>
<path d="M261.852 99.5642V151.807C263.188 152.586 286.842 167.044 286.842 167.044L303.383 157.773L304.183 75.1314L261.862 99.5642H261.852Z" fill="#8D8D8D"/>
<path d="M243.48 147.209V163.256C249.604 166.791 255.728 170.337 261.862 173.862V157.815C255.738 154.28 249.614 150.745 243.48 147.209Z" fill="#D3D3D3"/>
<path d="M243.48 134.972V140.138C249.604 143.674 255.728 147.209 261.862 150.745V100.606L243.48 89.9994V134.961V134.972Z" fill="#D3D3D3"/>
<path d="M243.769 90.4504L286.57 65.735L303.883 75.7354L261.082 100.451L243.769 90.4504Z" fill="#D3D3D3"/>
<path d="M261.852 157.826V173.872C263.188 174.641 264.524 175.419 265.871 176.187V166.465C265.566 164.181 265.261 161.898 264.956 159.615C263.925 159.015 262.883 158.415 261.852 157.826Z" fill="#8D8D8D"/>
<path d="M237.182 150.605V160.327C237.656 160.601 238.119 160.864 238.582 161.138C238.108 157.623 237.645 154.119 237.172 150.605H237.182Z" fill="#D11F1F"/>
<path d="M260.942 203.911V207.614L274.81 215.622V207.152C273.516 206.352 272.748 204.837 272.758 202.858C272.758 201.427 272.758 200.007 272.769 198.586C270.327 197.176 267.886 195.766 265.445 194.356C265.003 194.104 264.435 194.178 263.93 194.377C263.835 194.409 263.73 194.462 263.635 194.504C262.299 195.188 260.92 197.303 260.92 199.123V203.9L260.942 203.911Z" fill="#D11F1F"/>
<path d="M245.863 186.517C246.715 187.338 248.189 186.875 249.209 186.275C250.798 185.349 252.755 184.223 254.249 183.361C250.882 181.414 247.505 179.467 244.138 177.521C244.464 179.909 244.779 182.308 245.095 184.697C245.179 185.339 245.4 186.065 245.863 186.507V186.517ZM261.341 183.603C265.161 185.802 268.97 188.011 272.79 190.211C272.79 191.494 272.79 192.778 272.779 194.062C267.718 191.137 262.657 188.211 257.585 185.286C255.354 186.58 253.113 187.875 250.872 189.158C246.463 191.736 242.349 189.727 241.77 185.128C241.339 181.888 240.907 178.647 240.476 175.406C240.318 174.175 240.15 172.954 239.992 171.723C239.865 170.744 239.729 169.766 239.602 168.787C240.823 169.492 242.044 170.197 243.254 170.892C243.38 171.87 243.517 172.849 243.643 173.827L260.942 183.813L261.341 183.582V183.603Z" fill="#E1DFEA"/>
<path d="M277.861 218.337C278.44 218 278.924 217.495 279.282 216.916C280.387 215.106 280.271 212.444 279.776 210.382C278.324 209.54 276.872 208.709 275.42 207.867V211.992C276.683 216.306 275.789 219.526 273.705 220.725C275.084 219.936 276.472 219.136 277.851 218.337H277.861Z" fill="#272E33"/>
<path d="M275.42 207.467C275.199 207.383 274.999 207.278 274.81 207.162V215.632L275.42 215.275V207.478V207.467Z" fill="#9B346C"/>
<path d="M275.42 215.264L274.81 215.622L260.942 207.614V203.911C260.594 204.795 260.458 205.784 260.458 206.741C260.458 211.466 263.635 217.221 267.718 219.894C270.096 221.451 272.211 221.62 273.705 220.746C275.789 219.547 276.672 216.327 275.42 212.013V215.275V215.264Z" fill="#3F4F5D"/>
<path d="M279.303 202.364C278.24 201.754 277.167 201.133 276.104 200.522C276.104 201.301 276.104 202.08 276.104 202.869V202.964C276.104 203.174 276.125 203.427 276.188 203.669C276.672 203.09 277.388 202.459 278.124 202.28C278.514 202.185 278.956 202.185 279.303 202.374V202.364Z" fill="#D11F1F"/>
<path d="M278.987 203.069C278.714 202.89 278.366 202.858 278.009 202.953C277.377 203.111 276.799 203.616 276.388 204.132C276.409 204.174 276.441 204.205 276.472 204.237C276.578 204.342 276.693 204.416 276.999 204.437C277.746 204.5 278.724 204.068 279.377 203.69C279.492 203.627 279.608 203.553 279.724 203.49C279.482 203.342 279.24 203.206 278.987 203.069Z" fill="#E1DFEA"/>
<path d="M278.977 271.495C278.945 269.664 280.334 267.507 281.67 266.823C281.765 266.771 281.87 266.729 281.976 266.687C263.477 256.006 244.969 245.326 226.471 234.646C226.092 234.425 225.713 234.204 225.334 233.994C225.166 233.931 224.882 233.731 224.24 233.962C223.314 234.299 222.525 235.278 222.114 236.204C221.914 236.667 221.883 236.866 221.809 237.308L221.83 238.845C223.324 239.707 224.808 240.57 226.302 241.433C243.853 251.566 261.415 261.699 278.966 271.843V271.516L278.977 271.495Z" fill="#E1DFEA"/>
<path d="M272.758 202.858C272.758 201.427 272.758 200.007 272.769 198.586C272.769 197.082 272.769 195.577 272.769 194.062C272.769 192.778 272.769 191.494 272.779 190.211C272.779 189.464 272.779 188.716 272.779 187.959C273.894 188.601 274.999 189.243 276.115 189.884C276.115 190.632 276.115 191.379 276.115 192.136C279.987 194.377 283.87 196.608 287.742 198.849C288.394 198.471 289.047 198.102 289.688 197.724C290.909 198.407 292.308 198.892 293.813 199.207C292.898 199.733 291.993 200.259 291.077 200.786C296.054 203.658 301.042 206.531 306.008 209.403C307.029 210.003 308.502 210.466 309.355 209.645C309.807 209.203 310.038 208.477 310.123 207.846C310.386 205.889 310.649 203.932 310.912 201.985C311.27 199.344 311.617 196.703 311.975 194.062C313.195 193.357 314.416 192.652 315.636 191.947C315.194 195.188 314.763 198.418 314.332 201.659C314.037 203.869 313.732 206.078 313.437 208.288C312.837 212.928 308.692 214.864 304.335 212.307C298.801 209.119 293.277 205.92 287.731 202.722C286.163 203.627 284.606 204.521 283.038 205.426C282.365 205.815 281.691 206.205 281.029 206.594C278.85 207.867 276.883 208.067 275.41 207.488C275.189 207.404 274.989 207.299 274.799 207.183C273.505 206.383 272.737 204.868 272.748 202.89L272.758 202.858ZM279.997 203.321C281.471 202.48 282.933 201.627 284.406 200.775C281.639 199.176 278.882 197.587 276.115 195.987C276.115 197.492 276.115 198.997 276.104 200.512C276.104 201.291 276.104 202.069 276.104 202.858V202.953C276.104 203.164 276.125 203.416 276.188 203.658C276.23 203.837 276.294 203.995 276.388 204.132C276.409 204.174 276.441 204.205 276.472 204.237C276.578 204.342 276.693 204.416 276.999 204.437C277.746 204.5 278.724 204.068 279.377 203.69C279.492 203.627 279.608 203.553 279.724 203.49C279.819 203.437 279.913 203.385 279.997 203.332V203.321Z" fill="#E1DFEA"/>
<path d="M276.388 204.132C276.799 203.616 277.377 203.111 278.009 202.953C278.366 202.858 278.714 202.89 278.987 203.069C279.229 203.206 279.471 203.342 279.724 203.49C279.819 203.437 279.913 203.385 279.997 203.332C279.892 202.953 279.65 202.574 279.313 202.374C279.313 202.374 279.303 202.374 279.292 202.364C278.945 202.174 278.503 202.174 278.114 202.269C277.377 202.459 276.651 203.079 276.178 203.658C276.22 203.837 276.283 203.995 276.378 204.132H276.388Z" fill="#9B346C"/>
<path d="M292.193 293.171C293.571 292.382 294.96 291.582 296.339 290.783C298.043 289.804 298.611 287.71 298.611 285.753C298.611 284.227 298.275 282.649 297.77 281.197C296.412 281.123 294.96 280.776 293.476 280.102L293.529 283.333C294.097 284.827 294.466 286.553 294.466 288.142C294.466 290.751 293.54 292.393 292.182 293.161L292.193 293.171Z" fill="#272E33"/>
<path d="M279.071 277.546C278.103 282.67 282.039 290.225 287.1 292.855C288.015 293.329 289.025 293.687 290.057 293.697C290.825 293.697 291.551 293.539 292.193 293.171C293.54 292.393 294.476 290.762 294.476 288.152C294.476 286.563 294.097 284.838 293.54 283.343L293.613 287.489L293.003 287.857L279.135 279.85L279.092 277.546H279.071Z" fill="#3F4F5D"/>
<path d="M293.476 280.102C294.96 280.776 296.412 281.123 297.77 281.197C303.157 281.481 307.229 277.314 307.176 270.611V270.212C307.208 263.572 303.304 255.943 298.264 251.503C274.442 230.364 250.619 209.245 226.786 188.117C222.577 184.413 219.852 178.289 219.873 173.87V167.893C219.052 168.524 215.548 170.324 214.528 170.544C214.317 170.597 214.117 170.629 213.918 170.65V173.859C213.886 180.057 217.421 187.801 222.83 192.568C246.652 213.696 270.485 234.825 294.308 255.954C298.432 259.584 301.242 265.687 301.221 270.201V270.611C301.242 272.358 300.758 274.736 299.022 275.178C298.664 275.262 298.275 275.273 297.885 275.231C297.433 275.189 296.98 275.073 296.581 274.936C294.876 275.662 293.887 276.946 293.55 278.387C293.487 278.629 293.466 278.882 293.466 279.134L293.487 280.102H293.476Z" fill="#E1DFEA"/>
<path d="M297.885 275.241C297.759 275.01 297.58 274.82 297.359 274.683C297.286 274.641 297.201 274.599 297.128 274.568C296.696 274.42 296.202 274.526 295.77 274.715C295.013 275.041 294.455 275.62 293.992 276.283C293.319 277.24 292.824 278.366 292.845 279.503L292.992 287.847L293.603 287.479L293.529 283.333L293.476 280.102L293.455 279.134C293.455 278.882 293.476 278.629 293.54 278.387C293.876 276.946 294.865 275.662 296.57 274.925C296.97 275.073 297.433 275.189 297.875 275.231L297.885 275.241Z" fill="#9B346C"/>
<path d="M297.128 274.568C297.212 274.599 297.286 274.631 297.359 274.683C292.729 272.011 288.11 269.338 283.491 266.666C283.049 266.413 282.491 266.487 281.976 266.687C281.87 266.729 281.765 266.771 281.67 266.823C280.334 267.518 278.945 269.664 278.977 271.495V271.821L279.071 277.535L279.114 279.839L292.982 287.847L292.835 279.503C292.814 278.366 293.308 277.24 293.982 276.283C294.455 275.62 295.002 275.041 295.76 274.715C296.191 274.526 296.686 274.42 297.117 274.568H297.128Z" fill="#D11F1F"/>
<path d="M313.963 122.268C316.594 122.616 319.14 123.257 321.445 124.225C319.73 123.226 317.993 122.237 316.278 121.237C316.278 121.279 316.278 121.311 316.268 121.353C316.268 121.353 316.236 121.448 316.163 121.5C316.068 121.563 315.921 121.637 315.815 121.679C315.321 121.889 314.595 122.1 314.005 122.068L313.974 122.279L313.963 122.268Z" fill="#E1DFEA"/>
<path d="M330.083 174.417V176.542C331.073 175.974 332.072 175.395 333.061 174.827C333.166 174.059 333.272 173.291 333.377 172.523C332.283 173.154 331.188 173.785 330.083 174.417Z" fill="#E1DFEA"/>
<path d="M332.577 240.486C332.577 238.655 333.956 236.551 335.292 235.867C335.387 235.814 335.481 235.772 335.587 235.741C318.078 225.629 300.579 215.517 283.08 205.415C282.407 205.805 281.734 206.194 281.071 206.583C278.893 207.856 276.925 208.056 275.452 207.478V207.878C276.904 208.719 278.356 209.551 279.808 210.392C297.412 220.557 315.005 230.721 332.609 240.875V240.497L332.577 240.486Z" fill="#E1DFEA"/>
<path d="M349.834 259.889C351.517 258.932 352.117 256.848 352.117 254.86C352.117 253.744 351.938 252.597 351.644 251.492C351.528 251.072 351.402 250.651 351.254 250.24C349.929 250.156 348.519 249.798 347.077 249.146V252.534C347.624 254.028 347.982 255.691 347.982 257.259C347.982 259.868 347.045 261.51 345.699 262.278C347.077 261.489 348.466 260.689 349.844 259.889H349.834Z" fill="#272E33"/>
<path d="M332.577 246.631C331.588 251.798 335.576 259.395 340.658 261.994C341.574 262.467 342.573 262.804 343.605 262.804C344.352 262.804 345.067 262.635 345.688 262.278C347.035 261.499 347.971 259.868 347.971 257.259C347.971 255.691 347.614 254.028 347.066 252.534V256.627L346.456 256.985L332.588 248.978V246.631H332.577Z" fill="#3F4F5D"/>
<path d="M315.205 195.808C324.496 204.047 338.617 216.779 347.919 225.018C352.043 228.649 354.853 234.751 354.832 239.266V239.676C354.853 241.444 354.358 243.801 352.633 244.243C352.275 244.327 351.886 244.337 351.496 244.295C351.033 244.243 350.57 244.127 350.16 243.99C349.087 244.474 348.266 245.158 347.719 246.063C347.351 246.663 347.066 247.441 347.066 248.157V249.167C348.508 249.819 349.918 250.177 351.244 250.261C351.391 250.261 351.517 250.282 351.665 250.282C356.905 250.409 360.83 246.284 360.787 239.686V239.287C360.819 232.552 356.821 224.945 351.875 220.578C344.688 214.201 337.502 207.825 330.304 201.448C328.663 202.164 326.569 201.996 324.422 200.743C324.422 200.743 324.412 200.743 324.401 200.743C323.654 200.312 317.867 191.473 317.131 191.042L315.678 191.957C314.984 192.273 315.942 195.566 315.226 195.819L315.205 195.808Z" fill="#E1DFEA"/>
<path d="M349.392 243.759C348.645 244.085 348.087 244.653 347.614 245.316C346.94 246.252 346.446 247.368 346.446 248.494V256.975L347.056 256.617V248.125C347.056 247.41 347.34 246.631 347.708 246.031C348.255 245.126 349.066 244.442 350.149 243.969C350.56 244.106 351.023 244.221 351.486 244.274C351.37 244.053 351.181 243.853 350.97 243.727C350.897 243.674 350.823 243.643 350.739 243.611C350.307 243.453 349.823 243.559 349.392 243.748V243.759Z" fill="#9B346C"/>
<path d="M350.96 243.727C346.33 241.054 341.711 238.392 337.091 235.719C336.649 235.467 336.081 235.541 335.576 235.741C335.481 235.772 335.376 235.825 335.281 235.867C333.945 236.551 332.567 238.666 332.567 240.486V248.978L346.435 256.985V248.504C346.435 247.378 346.93 246.263 347.603 245.326C348.077 244.663 348.624 244.095 349.381 243.769C349.813 243.58 350.297 243.474 350.728 243.632C350.812 243.664 350.886 243.695 350.96 243.748V243.727Z" fill="#D11F1F"/>
<path d="M351.086 148.406C352.296 149.1 353.506 149.805 354.716 150.5C354.916 148.984 355.127 147.469 355.326 145.954C353.916 146.764 352.496 147.585 351.086 148.395V148.406Z" fill="#E1DFEA"/>
<path d="M351.244 250.251C351.391 250.661 351.517 251.082 351.633 251.503L351.654 250.261C351.517 250.261 351.381 250.261 351.233 250.24L351.244 250.251Z" fill="#9B346C"/>
<path d="M353.664 164.641C354.411 165.115 355.474 165.494 356.01 164.799C356.126 164.663 356.2 164.484 356.231 164.294C356.231 164.252 356.252 164.21 356.252 164.157C356.379 163.168 356.515 162.19 356.652 161.201C357.052 158.233 357.452 155.277 357.852 152.309C358.146 150.121 358.441 147.932 358.736 145.754C358.82 145.123 358.915 144.491 358.999 143.849C357.778 144.554 356.558 145.259 355.337 145.964C355.137 147.48 354.927 148.995 354.727 150.51C354.148 154.782 353.58 159.054 353.001 163.316C352.98 163.484 352.959 163.663 352.938 163.831C352.938 163.989 353.054 164.147 353.232 164.305C353.369 164.431 353.527 164.547 353.685 164.641H353.664Z" fill="#E1DFEA"/>
<path d="M239.676 165.041C240.328 165.252 241.265 164.799 241.802 164.41C242.001 164.263 242.307 164.01 242.307 163.758C242.286 163.579 242.254 163.421 242.243 163.253C241.475 157.455 240.707 151.657 239.929 145.87C238.708 145.165 237.498 144.46 236.277 143.765C236.582 146.049 236.888 148.332 237.193 150.615C237.666 154.13 238.129 157.634 238.603 161.148C238.729 162.148 238.866 163.158 239.003 164.157V164.179C239.055 164.568 239.297 164.926 239.687 165.052L239.676 165.041Z" fill="#E1DFEA"/>
<path d="M276.146 183.319V182.835C276.146 180.246 276.157 177.647 276.167 175.048C276.167 172.302 276.178 169.555 276.188 166.809C275.073 166.167 273.958 165.525 272.853 164.883C272.842 168.914 272.832 172.944 272.821 176.984C272.821 178.289 272.821 179.604 272.821 180.909C272.821 181.793 272.821 182.677 272.821 183.561C272.821 183.739 272.853 183.918 272.937 184.066C273.232 184.676 273.905 184.718 274.557 184.529C275.094 184.371 276.167 183.824 276.167 183.319H276.146Z" fill="#E1DFEA"/>
<path d="M369.574 128.266C369.942 128.476 370.352 128.782 370.615 129.118C370.815 129.381 370.794 129.455 370.794 129.466C370.794 129.466 370.794 129.487 370.794 129.518C370.731 129.729 370.468 130.002 370.3 130.149C370.121 130.307 369.858 130.497 369.574 130.665C363.408 134.232 357.252 137.789 351.086 141.345C349.045 142.524 347.003 143.702 344.962 144.881C340.006 147.743 335.039 150.615 330.083 153.477C321.003 158.717 311.933 163.958 302.852 169.208C300.221 170.765 295.286 170.797 292.582 169.208C291.225 168.419 289.857 167.63 288.489 166.841C279.313 161.548 270.138 156.245 260.963 150.952C253.039 146.385 245.116 141.808 237.193 137.231C235.856 136.452 234.52 135.684 233.173 134.916C227.049 131.381 220.915 127.845 214.791 124.31C213.297 123.447 211.803 122.584 210.308 121.721C208.267 120.543 206.226 119.364 204.184 118.186C203.364 117.712 202.543 117.228 201.722 116.765C200.523 116.071 199.313 115.376 198.113 114.682C193.967 112.283 189.821 109.884 185.665 107.495C185.297 107.285 184.887 106.979 184.623 106.643C184.424 106.38 184.445 106.306 184.445 106.295C184.445 106.295 184.445 106.274 184.455 106.243C184.518 106.032 184.781 105.759 184.939 105.611C185.118 105.454 185.381 105.264 185.665 105.096C189.201 103.055 192.747 101.003 196.282 98.9614C197.334 98.3511 198.387 97.7514 199.439 97.1411C204.553 94.1843 209.677 91.2275 214.791 88.2813V81.2103C205.121 86.7977 195.44 92.3745 185.77 97.9618C185.897 98.4774 186.023 98.993 186.149 99.5086C186.307 100.256 186.076 101.255 185.434 101.466C185.002 101.613 184.329 101.382 183.466 101.182C182.856 101.034 181.867 100.834 181.235 100.845C181.204 100.845 181.025 100.845 181.035 100.887C179.404 102.265 178.31 104.149 178.31 106.285C178.31 109.073 180.152 111.399 182.603 112.788C187.749 115.765 192.905 118.733 198.06 121.711C199.481 122.531 200.912 123.363 202.343 124.183C203.564 124.888 204.774 125.593 205.994 126.288C208.93 127.982 211.855 129.676 214.78 131.36C220.904 134.895 227.028 138.43 233.163 141.966C234.194 142.566 235.236 143.166 236.267 143.755C237.487 144.46 238.697 145.165 239.918 145.859C246.926 149.91 253.934 153.951 260.942 158.002C264.908 160.296 268.875 162.59 272.842 164.873C273.958 165.515 275.073 166.157 276.178 166.799C278.556 168.166 280.923 169.545 283.301 170.913C285.017 171.902 286.742 172.901 288.457 173.891C288.794 174.09 289.141 174.28 289.478 174.48C294.055 177.174 301.368 177.131 305.882 174.48C309.039 172.659 312.185 170.839 315.342 169.019C316.562 168.314 317.772 167.609 318.993 166.914C322.676 164.789 326.359 162.653 330.052 160.538C331.82 159.517 333.598 158.486 335.366 157.465C336.586 156.76 337.807 156.055 339.027 155.35C340.595 154.445 342.153 153.54 343.72 152.636C345.057 151.857 346.404 151.089 347.74 150.321C348.845 149.679 349.95 149.037 351.054 148.406C352.464 147.595 353.885 146.775 355.295 145.964C356.515 145.259 357.736 144.554 358.957 143.849C363.502 141.229 368.058 138.599 372.604 135.968C375.024 134.59 376.897 132.275 376.897 129.466C376.897 126.656 375.056 124.352 372.604 122.963C340.227 104.265 336.25 102.402 303.872 83.7146V90.7856C328.161 104.822 345.288 114.243 369.574 128.266Z" fill="#E1DFEA"/>
<path d="M356.01 164.789C355.474 165.483 354.422 165.104 353.664 164.631C353.517 164.536 353.348 164.421 353.212 164.294C353.043 164.136 352.917 163.979 352.917 163.821C352.938 163.652 352.969 163.474 352.98 163.305C349.076 165.567 345.162 167.819 341.258 170.071C339.732 170.944 338.217 171.828 336.702 172.702C336.565 173.712 336.428 174.732 336.292 175.742C336.26 175.942 336.186 176.132 336.06 176.29C335.524 176.984 334.471 176.595 333.714 176.132C333.556 176.037 333.398 175.921 333.261 175.795C333.093 175.637 332.967 175.479 332.967 175.322C332.988 175.153 333.019 174.985 333.03 174.806C332.041 175.374 331.041 175.953 330.052 176.521C325.59 179.099 321.129 181.677 316.657 184.255C316.531 185.234 316.394 186.223 316.257 187.201C316.257 187.201 316.257 187.296 316.236 187.338C316.205 187.527 316.12 187.696 316.015 187.843C315.479 188.538 314.416 188.159 313.669 187.685C313.406 187.517 312.922 187.17 312.922 186.865C312.922 186.854 312.922 186.833 312.922 186.822C312.943 186.665 312.964 186.517 312.985 186.359C309.576 188.327 306.177 190.295 302.768 192.262C300.148 193.809 295.213 193.862 292.498 192.262C291.141 191.473 289.794 190.695 288.436 189.916C284.333 187.548 280.218 185.17 276.115 182.803V183.287C276.115 183.803 275.041 184.339 274.505 184.497C273.852 184.686 273.19 184.644 272.884 184.034C272.811 183.887 272.769 183.708 272.769 183.529C272.769 182.645 272.769 181.761 272.769 180.877C271.632 180.225 270.506 179.573 269.37 178.92C266.55 177.289 263.719 175.658 260.9 174.027C254.66 170.429 248.431 166.82 242.191 163.221C242.212 163.389 242.233 163.558 242.254 163.726C242.254 163.989 241.949 164.231 241.749 164.389C241.212 164.789 240.276 165.241 239.623 165.02C239.224 164.894 238.992 164.536 238.94 164.147V164.126C238.803 163.126 238.666 162.116 238.54 161.117C238.066 160.843 237.603 160.58 237.14 160.306C235.804 159.538 234.468 158.76 233.121 157.991C226.997 154.456 220.873 150.92 214.738 147.385C212.581 146.143 210.424 144.891 208.267 143.65C208.288 143.797 208.309 143.944 208.33 144.102C208.383 144.365 208.109 144.607 207.836 144.818C207.299 145.217 206.363 145.67 205.71 145.449C205.321 145.323 205.079 144.975 205.026 144.586C205.026 144.565 205.026 144.554 205.026 144.533C204.9 143.534 204.763 142.545 204.626 141.545C203.406 140.84 202.185 140.135 200.965 139.43C198.092 137.768 195.219 136.105 192.336 134.453C191.968 134.243 191.558 133.937 191.295 133.601C191.095 133.338 191.116 133.264 191.116 133.254C191.116 133.254 191.116 133.232 191.116 133.201C191.179 132.99 191.442 132.717 191.61 132.57C191.789 132.412 192.052 132.222 192.336 132.054C194.767 130.644 197.187 129.255 199.618 127.845C200.607 127.277 201.596 126.709 202.575 126.14C202.49 125.478 202.396 124.825 202.311 124.162C200.891 123.342 199.46 122.51 198.029 121.69C195.114 123.373 192.189 125.057 189.274 126.74C186.865 128.108 184.981 130.434 184.981 133.243C184.981 136.052 186.823 138.346 189.264 139.746C193.483 142.176 197.703 144.618 201.912 147.048C203.153 147.764 204.384 148.469 205.626 149.184C206.847 149.889 208.067 150.594 209.277 151.289C214.707 154.424 220.136 157.56 225.566 160.696C226.681 161.338 227.796 161.979 228.901 162.621C231.637 164.2 234.383 165.788 237.119 167.367C237.929 167.83 238.74 168.303 239.539 168.766C240.76 169.471 241.98 170.176 243.191 170.871C249.083 174.28 254.986 177.679 260.878 181.088C261.657 181.54 262.446 181.993 263.225 182.445C266.392 184.276 269.559 186.107 272.727 187.927C273.842 188.569 274.947 189.211 276.062 189.853C280.503 192.42 284.943 194.988 289.394 197.545C289.478 197.597 289.552 197.639 289.636 197.681C290.856 198.365 292.256 198.849 293.761 199.165C294.697 199.354 295.655 199.481 296.633 199.523C299.906 199.681 303.283 199.039 305.809 197.545C307.85 196.366 309.891 195.188 311.922 194.009C313.143 193.304 314.363 192.599 315.584 191.894C320.392 189.116 325.201 186.338 330.01 183.571C330.662 183.192 331.304 182.824 331.956 182.445C333.177 181.74 334.387 181.035 335.608 180.341C341.037 177.205 346.456 174.069 351.886 170.944C353.106 170.239 354.316 169.534 355.537 168.84C358.967 166.851 362.408 164.873 365.849 162.884C368.269 161.506 370.142 159.191 370.142 156.382C370.142 153.572 368.3 151.268 365.849 149.879C363.45 148.49 361.051 147.111 358.652 145.722C358.357 147.911 358.062 150.1 357.768 152.278C359.441 153.246 361.114 154.214 362.787 155.171C363.155 155.382 363.565 155.687 363.828 156.024C364.028 156.287 364.007 156.36 364.018 156.371C364.018 156.371 364.018 156.392 364.007 156.424C363.944 156.634 363.681 156.908 363.523 157.055C363.344 157.213 363.081 157.402 362.797 157.571C360.724 158.77 358.652 159.97 356.579 161.169C356.452 162.158 356.316 163.137 356.179 164.126C356.179 164.179 356.168 164.221 356.158 164.263C356.126 164.452 356.042 164.62 355.937 164.768L356.01 164.789Z" fill="#E1DFEA"/>
<path d="M313.711 187.706C314.447 188.18 315.521 188.548 316.057 187.864C316.173 187.717 316.247 187.538 316.278 187.359C316.278 187.317 316.289 187.264 316.299 187.222C316.426 186.233 316.562 185.255 316.699 184.276C317.478 178.489 318.256 172.702 319.035 166.925C317.814 167.63 316.604 168.335 315.384 169.029C314.605 174.817 313.827 180.604 313.048 186.391C313.027 186.549 313.006 186.696 312.985 186.854C312.985 186.865 312.985 186.886 312.985 186.896C312.985 187.201 313.469 187.549 313.732 187.717L313.711 187.706Z" fill="#E1DFEA"/>
<path d="M332.998 175.332C332.998 175.49 333.114 175.648 333.293 175.806C333.43 175.932 333.587 176.048 333.745 176.142C334.492 176.605 335.555 176.995 336.092 176.3C336.218 176.142 336.292 175.953 336.323 175.753C336.46 174.743 336.597 173.722 336.734 172.712C336.86 171.744 336.997 170.765 337.123 169.797C337.775 164.978 338.417 160.17 339.07 155.35C337.849 156.055 336.628 156.76 335.408 157.455C334.734 162.474 334.061 167.493 333.387 172.502C333.282 173.27 333.177 174.038 333.072 174.806C333.051 174.974 333.03 175.143 333.009 175.322L332.998 175.332Z" fill="#E1DFEA"/>
<path d="M324.412 200.743C326.559 201.996 328.652 202.153 330.294 201.448C331.977 200.712 333.177 199.07 333.482 196.724C334.061 192.462 334.629 188.211 335.197 183.96C335.355 182.771 335.523 181.572 335.681 180.383C334.461 181.077 333.251 181.782 332.03 182.487C331.409 187.075 330.788 191.673 330.168 196.271C330.083 196.903 329.862 197.639 329.41 198.081C328.558 198.902 327.085 198.439 326.064 197.85C325.885 197.734 317.299 191.147 317.12 191.031C316.089 191.778 323.349 198.902 322.16 199.439C322.907 199.87 323.654 200.302 324.391 200.733C324.391 200.733 324.401 200.733 324.412 200.733V200.743Z" fill="#E1DFEA"/>
<path d="M335.681 180.383C335.524 181.572 335.355 182.771 335.197 183.96C338.238 185.718 341.269 187.475 344.31 189.222C348.666 191.768 352.812 189.842 353.401 185.202C354.137 179.751 354.874 174.311 355.6 168.861C354.379 169.566 353.169 170.271 351.949 170.965C351.328 175.564 350.707 180.151 350.086 184.75C350.002 185.381 349.781 186.107 349.329 186.549C348.476 187.37 347.003 186.917 345.983 186.317C342.542 184.329 339.112 182.35 335.671 180.362L335.681 180.383Z" fill="#E1DFEA"/>
<path d="M188.608 366.226V364.564C222.7 344.887 220.943 346.003 221.364 345.445C221.585 345.15 221.722 344.814 221.743 344.445V346.129C221.743 346.634 221.396 347.16 220.996 347.507C220.754 347.697 223.458 346.118 188.608 366.226Z" fill="#272E33"/>
<path d="M208.885 343.593L204.539 346.118L191.47 338.563L195.837 336.049L208.885 343.593Z" fill="#F0E0DC"/>
<path d="M191.849 333.744L187.503 336.259L174.435 328.715L178.78 326.221L191.849 333.744Z" fill="#F0E0DC"/>
<path d="M189.913 354.589C188.955 354.641 188.156 354.484 187.524 354.105C186.893 353.747 186.619 353.295 186.714 352.705C186.788 352.127 187.388 351.506 188.471 350.874C189.597 350.222 190.639 349.875 191.607 349.822C192.565 349.77 193.364 349.927 193.996 350.296C194.669 350.675 194.932 351.169 194.848 351.727C194.743 352.305 194.122 352.937 192.943 353.61C191.87 354.231 190.881 354.547 189.923 354.589H189.913Z" fill="#272E33"/>
<path d="M188.608 364.564V366.248L176.981 372.95V371.288L188.608 364.574V364.564Z" fill="#E7E7E7"/>
<path d="M108.744 318.466C135.355 333.839 161.997 349.191 188.608 364.564L176.981 371.277C150.37 355.904 123.77 340.531 97.1484 325.158L108.733 318.455L108.744 318.466Z" fill="#F6F6F6"/>
<path d="M187.524 354.094C188.156 354.473 188.955 354.641 189.913 354.578C190.87 354.547 191.87 354.221 192.933 353.6C194.111 352.926 194.722 352.295 194.837 351.716C194.932 351.159 194.658 350.664 193.985 350.285C193.354 349.927 192.554 349.759 191.596 349.812C190.639 349.864 189.587 350.212 188.461 350.864C187.377 351.495 186.777 352.116 186.704 352.695C186.609 353.274 186.882 353.726 187.514 354.094H187.524ZM185.136 351.632C185.967 350.296 188.166 349.307 189.713 348.938C191.87 348.423 193.817 348.802 195.058 349.538C195.858 349.991 196.468 350.675 196.237 351.569L200.456 349.128L201.908 349.959L190.123 356.767L188.787 355.988C191.365 354.526 188.892 356.293 186.22 354.726C184.967 354 184.357 352.874 185.146 351.643L185.136 351.632Z" fill="#272E33"/>
<path d="M177.749 349.612L186.272 344.687L187.577 345.445L186.293 346.192C187.219 346.034 187.924 345.971 188.408 346.034C189.408 346.15 190.239 346.602 190.639 347.539L188.787 348.023C188.377 346.971 186.777 346.666 185.578 347.044C184.157 347.465 183.947 347.718 179.191 350.443L177.739 349.612H177.749Z" fill="#272E33"/>
<path d="M174.813 323.916L170.447 326.431L157.399 318.887L161.745 316.361L174.813 323.916Z" fill="#F0E0DC"/>
<path d="M174.182 346.045C173.351 345.908 171.52 345.266 171.425 344.435C171.352 343.824 172.151 343.425 172.835 343.351C174.487 343.172 175.718 344.372 178.338 345.014C176.844 345.908 175.876 346.318 174.172 346.045H174.182Z" fill="#272E33"/>
<path d="M173.866 343.393C172.067 343.014 170.31 344.224 172.309 345.382C173.467 346.055 174.94 346.255 176.129 346.013C176.855 345.845 177.665 345.403 178.338 345.003C176.497 344.551 174.813 343.583 173.866 343.393ZM169.363 344.203C169.289 343.099 170.678 342.436 171.794 342.246C174.75 341.752 176.602 343.572 179.475 344.351C179.917 344.109 180.737 343.698 180.706 343.172C180.58 342.246 178.622 341.362 177.686 341.268C177.128 341.236 176.455 341.341 175.697 341.594L174.487 340.668C175.929 340.089 177.265 340.037 178.728 340.415C179.885 340.742 181.853 341.699 182.474 342.53C182.979 343.162 183.01 343.667 182.316 344.319C181.59 344.919 177.896 346.844 176.665 347.781C176.36 348.012 176.139 348.286 175.992 348.581L174.487 347.707C174.635 347.434 174.887 347.181 175.245 346.929C173.666 346.844 172.246 346.623 170.868 345.824C169.931 345.277 169.437 344.74 169.384 344.193L169.363 344.203Z" fill="#272E33"/>
<path d="M162.429 333.87C164.996 332.397 167.837 331.945 170.436 332.366C174.235 333.029 177.917 335.501 175.213 338.269L173.33 337.595C174.382 336.417 174.34 335.344 172.646 334.354C170.868 333.323 168.658 333.134 166.69 333.681C165.007 334.176 162.86 335.238 161.871 336.543C160.924 337.827 161.671 339.005 162.997 339.784C164.596 340.699 166.901 341.005 169.447 340.036L170.626 341.162C167.658 342.194 164.512 342.162 161.808 340.615C160.545 339.889 159.767 339.153 159.493 338.384C158.798 336.564 160.756 334.838 162.439 333.86L162.429 333.87Z" fill="#272E33"/>
<path d="M157.778 314.067L153.411 316.582L140.342 309.048L144.699 306.534L157.778 314.067Z" fill="#F0E0DC"/>
<path d="M220.543 342.762C221.111 343.098 221.837 343.825 221.743 344.445C221.711 345.014 221.396 345.634 220.543 346.129L188.608 364.564C161.997 349.191 135.355 333.839 108.744 318.466C143.541 298.368 140.953 299.736 142.1 299.494C143.531 299.178 145.162 299.294 146.498 300.02L220.554 342.772L220.543 342.762ZM191.47 338.563L204.539 346.118L208.885 343.604L195.826 336.049L191.46 338.563H191.47ZM174.435 328.704L187.503 336.259L191.849 333.744L178.78 326.21L174.435 328.704ZM148.16 318.771C147.908 317.919 147.077 317.508 146.33 317.087C144.804 316.235 144.236 315.835 141.931 314.552C141.121 314.099 140.3 313.647 139.49 313.163C138.838 312.763 138.206 312.352 137.501 312.089C136.554 311.732 135.134 311.658 134.155 311.858C132.619 312.195 131.125 313.163 129.631 314.099C127.684 315.32 127.684 315.225 126.684 315.804C125.201 316.719 125.18 317.877 126.158 318.792C126.6 319.171 132.945 322.717 134.197 323.485C135.618 324.316 136.176 324.748 137.859 324.863C141.037 325.063 142.794 323.096 146.256 321.244C146.94 320.907 147.855 320.455 148.139 319.613C148.234 319.36 148.245 319.055 148.171 318.782L148.16 318.771ZM153.411 316.582L157.778 314.068L144.709 306.534L140.342 309.048L153.411 316.582ZM174.813 323.916L161.745 316.361L157.399 318.876L170.457 326.431L174.824 323.916H174.813Z" fill="#272E33"/>
<path d="M131.735 322.085C127.526 319.655 128.052 319.918 127.337 319.529C126.59 319.139 125.737 318.687 125.527 317.845C125.369 317.266 125.569 316.74 126.001 316.309C126.432 315.877 126.948 315.656 127.432 315.383C130.83 313.605 132.64 311.553 135.828 311.763C137.438 311.868 138.143 312.342 139.49 313.163C140.321 313.657 146.971 317.382 147.529 317.856C148.066 318.329 148.371 318.939 148.129 319.613C147.855 320.433 146.95 320.886 146.245 321.244C142.794 323.096 141.026 325.063 137.849 324.863C135.86 324.737 135.755 324.316 131.746 322.096L131.735 322.085Z" fill="#F3E187"/>
<path d="M95.6859 329.367C93.9918 328.367 94.1601 326.831 95.6859 326.021L97.1379 325.169C97.3168 325.169 96.2856 324.674 176.981 371.288L175.529 372.119C174.55 372.687 172.888 373.024 171.11 372.645C169.921 372.382 174.919 375.128 95.6859 329.377V329.367Z" fill="#272E33"/>
<path d="M94.4758 329.367V327.683C94.4968 328.031 94.6231 328.388 94.8546 328.683C95.2544 329.22 90.4247 326.326 169.721 372.119C170.699 372.687 172.362 373.024 174.14 372.645C175.171 372.414 175.56 372.108 176.981 371.288V372.95L175.529 373.781C174.235 374.539 172.541 374.634 171.11 374.329C169.984 374.076 174.813 376.728 95.6858 331.04C94.8125 330.556 94.4758 329.893 94.4758 329.377V329.367Z" fill="#272E33"/>
<defs>
<linearGradient id="paint0_linear_23_2044" x1="112" y1="-51" x2="345" y2="350.605" gradientUnits="userSpaceOnUse">
<stop stop-color="white"/>
<stop offset="1" stop-color="#F0F0F0"/>
</linearGradient>
</defs>
</svg>
