<svg width="513" height="395" viewBox="0 0 513 395" fill="none" xmlns="http://www.w3.org/2000/svg">
<path d="M488.133 349.079L397.34 296.664C387.105 290.757 378.803 274.89 378.803 261.234V19.4453C378.803 12.4987 373.093 10.9594 376.553 8.47281C376.685 8.38072 390.407 2.22352 390.565 2.1709C394.288 0.750004 398.275 0.105339 403.103 2.90765L493.895 55.3228C504.131 61.23 512.433 77.0966 512.433 90.753V332.541C512.433 339.791 510.091 344.974 506.354 347.342C506.131 347.487 490.777 354.578 490.527 354.671C487.212 355.776 492.619 351.684 488.133 349.105V349.079Z" fill="#D7D7D7"/>
<path d="M488.133 349.079L397.34 296.664C387.105 290.757 378.803 274.89 378.803 261.234V19.4452C378.803 12.4986 373.093 10.9593 376.553 8.47273C376.685 8.38064 390.183 2.30238 390.341 2.24975C394.064 0.82886 398.051 0.184197 402.879 2.98651L493.672 55.4016C503.907 61.3089 512.209 77.1755 512.209 90.8318V332.62C512.209 339.869 509.867 345.053 506.131 347.421C505.907 347.566 490.777 354.578 490.527 354.657C487.212 355.762 492.619 351.671 488.133 349.092V349.079Z" fill="url(#paint0_linear_25_1058)"/>
<path d="M488.133 349.079L397.34 296.664C387.105 290.757 378.803 274.89 378.803 261.234V19.4452C378.803 12.4986 373.093 10.9593 376.553 8.47277C376.685 8.38068 389.96 2.39451 390.118 2.32873C393.841 0.90784 397.827 0.263176 402.656 3.06549L493.448 55.4806C503.684 61.3878 511.985 77.2545 511.985 90.9108V332.699C511.985 339.948 509.644 345.132 505.907 347.5C505.683 347.645 490.777 354.578 490.527 354.657C487.212 355.762 492.619 351.671 488.133 349.092V349.079Z" fill="url(#paint1_linear_25_1058)"/>
<path d="M488.133 349.079L397.34 296.664C387.105 290.757 378.803 274.89 378.803 261.234V19.4452C378.803 12.4986 373.093 10.9593 376.553 8.47278C376.685 8.38069 389.736 2.47346 389.894 2.42083C393.617 0.999942 397.604 0.355278 402.432 3.15759L493.224 55.5727C503.46 61.4799 511.762 77.3466 511.762 91.0029V332.791C511.762 340.041 509.42 345.224 505.683 347.592C505.46 347.737 490.777 354.578 490.527 354.671C487.212 355.776 492.619 351.684 488.133 349.105V349.079Z" fill="url(#paint2_linear_25_1058)"/>
<path d="M488.133 349.079L397.34 296.664C387.105 290.757 378.803 274.89 378.803 261.234V19.4452C378.803 12.4986 373.093 10.9593 376.553 8.47276C376.685 8.38067 389.512 2.55238 389.657 2.49975C393.38 1.07886 397.367 0.434196 402.195 3.23651L492.987 55.6516C503.223 61.5589 511.525 77.4255 511.525 91.0818V332.87C511.525 340.119 509.183 345.303 505.447 347.671C505.223 347.816 490.764 354.578 490.514 354.657C487.199 355.762 492.606 351.671 488.12 349.092L488.133 349.079Z" fill="url(#paint3_linear_25_1058)"/>
<path d="M488.133 349.079L397.34 296.664C387.105 290.757 378.803 274.89 378.803 261.234V19.4452C378.803 12.4987 373.093 10.9594 376.553 8.4728C376.685 8.38071 389.289 2.64451 389.433 2.57873C393.157 1.15784 397.143 0.513177 401.971 3.31549L492.764 55.7306C503 61.6378 511.301 77.5045 511.301 91.1608V332.949C511.301 340.198 508.959 345.382 505.223 347.75C504.999 347.895 490.764 354.578 490.514 354.657C487.199 355.762 492.606 351.671 488.12 349.092L488.133 349.079Z" fill="url(#paint4_linear_25_1058)"/>
<path d="M488.133 349.079L397.34 296.664C387.105 290.757 378.803 274.89 378.803 261.234V19.4453C378.803 12.4987 373.093 10.9594 376.553 8.47281C376.685 8.38071 389.065 2.72346 389.21 2.67083C392.933 1.24994 396.919 0.605278 401.748 3.40759L492.54 55.8227C502.776 61.7299 511.078 77.5966 511.078 91.2529V333.041C511.078 340.291 508.736 345.474 504.999 347.842C504.776 347.987 490.764 354.578 490.514 354.671C487.199 355.776 492.606 351.684 488.12 349.105L488.133 349.079Z" fill="url(#paint5_linear_25_1058)"/>
<path d="M488.133 349.079L397.34 296.664C387.105 290.757 378.803 274.89 378.803 261.234V19.4452C378.803 12.4986 373.093 10.9593 376.553 8.47279C376.685 8.38069 388.841 2.80238 388.986 2.74975C392.709 1.32886 396.696 0.684197 401.524 3.48651L492.317 55.9016C502.552 61.8089 510.854 77.6755 510.854 91.3318V333.12C510.854 340.369 508.512 345.553 504.776 347.921C504.552 348.066 490.764 354.578 490.514 354.657C487.199 355.762 492.606 351.671 488.12 349.092L488.133 349.079Z" fill="url(#paint6_linear_25_1058)"/>
<path d="M488.133 349.079L397.34 296.664C387.105 290.757 378.803 274.89 378.803 261.234V19.4452C378.803 12.4986 373.093 10.9593 376.553 8.47277C376.685 8.38067 388.618 2.89445 388.762 2.82867C392.486 1.40778 396.472 0.763115 401.301 3.56543L492.093 55.9806C502.329 61.8878 510.63 77.7544 510.63 91.4107V333.199C510.63 340.448 508.288 345.632 504.552 348C504.328 348.145 490.764 354.578 490.514 354.657C487.199 355.762 492.606 351.671 488.12 349.092L488.133 349.079Z" fill="url(#paint7_linear_25_1058)"/>
<path d="M488.133 349.079L397.34 296.664C387.105 290.757 378.803 274.89 378.803 261.234V19.4451C378.803 12.4985 373.093 10.9592 376.553 8.47269C376.685 8.38059 388.394 2.97331 388.539 2.90753C392.262 1.48664 396.248 0.841973 401.077 3.64429L491.869 56.0594C502.105 61.9666 510.407 77.8333 510.407 91.4896V333.278C510.407 340.527 508.065 345.711 504.328 348.079C504.105 348.224 490.764 354.565 490.514 354.657C487.199 355.762 492.606 351.671 488.12 349.092L488.133 349.079Z" fill="url(#paint8_linear_25_1058)"/>
<path d="M488.133 349.079L397.34 296.664C387.105 290.757 378.803 274.89 378.803 261.234V19.4451C378.803 12.4986 373.093 10.9593 376.553 8.4727C376.685 8.3806 388.17 3.05226 388.315 2.99963C392.038 1.57874 396.025 0.934074 400.853 3.73639L491.646 56.1515C501.881 62.0587 510.183 77.9254 510.183 91.5817V333.37C510.183 340.619 507.841 345.803 504.105 348.171C503.881 348.316 490.764 354.578 490.514 354.657C487.199 355.762 492.606 351.671 488.12 349.092L488.133 349.079Z" fill="url(#paint9_linear_25_1058)"/>
<path d="M488.133 349.079L397.34 296.664C387.105 290.757 378.803 274.89 378.803 261.234V19.4452C378.803 12.4986 373.093 10.9593 376.553 8.47274C376.685 8.38064 387.947 3.13124 388.091 3.07861C391.815 1.65772 395.801 1.01305 400.63 3.81537L491.422 56.2305C501.658 62.1377 509.959 78.0043 509.959 91.6607V333.449C509.959 340.698 507.617 345.882 503.881 348.25C503.657 348.395 490.764 354.578 490.514 354.657C487.199 355.762 492.606 351.671 488.12 349.092L488.133 349.079Z" fill="url(#paint10_linear_25_1058)"/>
<path d="M488.133 349.079L397.34 296.664C387.105 290.757 378.803 274.89 378.803 261.234V19.4452C378.803 12.4986 373.093 10.9593 376.553 8.47272C376.685 8.38062 387.723 3.22331 387.868 3.15753C391.591 1.73664 395.577 1.09197 400.406 3.89429L491.198 56.3094C501.434 62.2166 509.736 78.0833 509.736 91.7396V333.528C509.736 340.777 507.394 345.961 503.657 348.329C503.434 348.474 490.764 354.578 490.514 354.657C487.199 355.762 492.606 351.671 488.12 349.092L488.133 349.079Z" fill="url(#paint11_linear_25_1058)"/>
<path d="M488.133 349.079L397.34 296.664C387.105 290.757 378.803 274.89 378.803 261.234V19.4452C378.803 12.4986 373.093 10.9593 376.553 8.47272C376.685 8.38063 387.499 3.30226 387.644 3.24963C391.367 1.82874 395.354 1.18407 400.182 3.98639L490.975 56.4015C501.21 62.3087 509.512 78.1754 509.512 91.8317V333.62C509.512 340.869 507.17 346.053 503.434 348.421C503.21 348.566 490.764 354.578 490.514 354.67C487.199 355.776 492.606 351.684 488.12 349.105L488.133 349.079Z" fill="url(#paint12_linear_25_1058)"/>
<path d="M488.133 349.079L397.34 296.664C387.105 290.757 378.803 274.89 378.803 261.234V19.4451C378.803 12.4986 373.093 10.9593 376.553 8.4727C376.685 8.38061 387.276 3.38117 387.42 3.32855C391.144 1.90766 395.13 1.26299 399.959 4.06531L490.751 56.4804C500.987 62.3877 509.288 78.2543 509.288 91.9106V333.699C509.288 340.948 506.946 346.132 503.21 348.5C502.986 348.645 490.764 354.578 490.514 354.657C487.199 355.762 492.606 351.671 488.12 349.092L488.133 349.079Z" fill="url(#paint13_linear_25_1058)"/>
<path d="M488.133 349.079L397.34 296.664C387.105 290.757 378.803 274.89 378.803 261.234V19.4452C378.803 12.4986 373.093 10.9593 376.553 8.47274C376.685 8.38065 387.052 3.47331 387.197 3.40753C390.92 1.98664 394.906 1.34197 399.735 4.14429L490.527 56.5594C500.763 62.4666 509.065 78.3333 509.065 91.9896V333.778C509.065 341.027 506.723 346.211 502.986 348.579C502.763 348.724 490.764 354.578 490.514 354.657C487.199 355.762 492.606 351.671 488.12 349.092L488.133 349.079Z" fill="url(#paint14_linear_25_1058)"/>
<path d="M488.133 349.079L397.34 296.664C387.105 290.757 378.803 274.89 378.803 261.234V19.4452C378.803 12.4986 373.093 10.9593 376.553 8.47275C376.685 8.38066 386.828 3.55226 386.973 3.49963C390.696 2.07874 394.683 1.43407 399.511 4.23639L490.304 56.6515C500.539 62.5587 508.841 78.4254 508.841 92.0817V333.87C508.841 341.119 506.499 346.303 502.763 348.671C502.539 348.816 490.764 354.578 490.514 354.67C487.199 355.776 492.606 351.684 488.12 349.105L488.133 349.079Z" fill="url(#paint15_linear_25_1058)"/>
<path d="M488.133 349.079L397.34 296.664C387.105 290.757 378.803 274.89 378.803 261.234V19.4452C378.803 12.4986 373.093 10.9593 376.553 8.47273C376.685 8.38064 386.605 3.63117 386.75 3.57855C390.473 2.15766 394.459 1.51299 399.288 4.31531L490.08 56.7304C500.316 62.6377 508.617 78.5043 508.617 92.1606V333.949C508.617 341.198 506.275 346.382 502.539 348.75C502.315 348.895 490.764 354.578 490.514 354.657C487.199 355.762 492.606 351.671 488.12 349.092L488.133 349.079Z" fill="url(#paint16_linear_25_1058)"/>
<path d="M488.133 349.079L397.34 296.664C387.105 290.757 378.803 274.89 378.803 261.234V19.4452C378.803 12.4986 373.093 10.9593 376.553 8.47271C376.685 8.38062 386.381 3.72325 386.526 3.65747C390.249 2.23658 394.236 1.59191 399.064 4.39423L489.856 56.8094C500.092 62.7166 508.394 78.5832 508.394 92.2396V334.028C508.394 341.277 506.052 346.461 502.315 348.829C502.092 348.974 490.764 354.578 490.514 354.657C487.199 355.762 492.606 351.671 488.12 349.092L488.133 349.079Z" fill="url(#paint17_linear_25_1058)"/>
<path d="M488.133 349.079L397.34 296.664C387.105 290.757 378.803 274.89 378.803 261.234V19.4452C378.803 12.4986 373.093 10.9593 376.553 8.47278C376.685 8.38069 386.157 3.80226 386.302 3.74963C390.025 2.32874 394.012 1.68407 398.84 4.48639L489.633 56.9015C499.868 62.8087 508.17 78.6754 508.17 92.3317V334.12C508.17 341.369 505.828 346.553 502.092 348.921C501.868 349.066 490.764 354.578 490.514 354.67C487.199 355.776 492.606 351.684 488.12 349.105L488.133 349.079Z" fill="url(#paint18_linear_25_1058)"/>
<path d="M488.133 349.079L397.34 296.664C387.105 290.757 378.803 274.89 378.803 261.234V19.4452C378.803 12.4986 373.093 10.9593 376.553 8.47276C376.685 8.38067 385.934 3.88117 386.079 3.82855C389.802 2.40766 393.788 1.76299 398.617 4.56531L489.409 56.9804C499.645 62.8876 507.946 78.7543 507.946 92.4106V334.199C507.946 341.448 505.604 346.632 501.868 349C501.644 349.145 490.764 354.578 490.514 354.657C487.199 355.762 492.606 351.671 488.12 349.092L488.133 349.079Z" fill="url(#paint19_linear_25_1058)"/>
<path d="M488.133 349.079L397.34 296.664C387.105 290.757 378.803 274.89 378.803 261.234V19.4452C378.803 12.4986 373.093 10.9593 376.553 8.47274C376.685 8.38065 385.71 3.97325 385.855 3.90747C389.578 2.48658 393.565 1.84191 398.393 4.64423L489.185 57.0594C499.421 62.9666 507.723 78.8332 507.723 92.4896V334.278C507.723 341.527 505.381 346.711 501.644 349.079C501.421 349.224 490.764 354.578 490.514 354.657C487.199 355.762 492.606 351.671 488.12 349.092L488.133 349.079Z" fill="url(#paint20_linear_25_1058)"/>
<path d="M479.463 353.184L388.67 300.769C378.434 294.861 370.133 278.995 370.133 265.339V23.5369C370.133 9.88057 378.434 3.60496 388.67 9.51219L479.463 61.9273C489.698 67.8345 498 83.7012 498 97.3575V339.146C498 352.802 489.698 359.078 479.463 353.171V353.184Z" fill="white"/>
<path d="M486.83 353.565C484.83 353.565 482.659 352.894 480.383 351.579L389.591 299.164C379.868 293.559 371.961 278.376 371.961 265.325V23.5368C371.961 14.7878 375.632 9.13055 381.302 9.13055C383.302 9.13055 385.473 9.80153 387.749 11.104L478.541 63.5191C488.264 69.1238 496.171 84.3063 496.171 97.3574V339.146C496.171 347.895 492.5 353.552 486.83 353.552V353.565Z" fill="url(#paint21_linear_25_1058)"/>
<path d="M376.277 268.417V27.5497C376.277 17.5245 382.368 12.9198 389.881 17.2614L478.265 68.2951C485.778 72.6367 491.869 84.2669 491.869 94.2921V335.146C491.869 345.172 485.778 349.776 478.265 345.435L389.881 294.401C382.368 290.059 376.277 278.429 376.277 268.404V268.417Z" fill="#D7D7D7"/>
<path d="M390.907 19.9321C383.829 15.8404 378.079 19.1164 378.079 27.247V270.812C378.079 278.942 383.816 288.836 390.907 292.928L477.239 342.777C484.317 346.869 490.067 343.593 490.067 335.462V91.8976C490.067 83.767 484.33 73.8733 477.239 69.7817L390.907 19.9321Z" fill="#272E33"/>
<path d="M504.973 176.835C502.368 178.335 500.25 176.743 500.25 173.27V153.588C500.25 150.115 502.368 146.076 504.973 144.576C507.578 143.076 509.696 144.668 509.696 148.141V167.823C509.696 171.297 507.578 175.336 504.973 176.835Z" fill="url(#paint22_linear_25_1058)"/>
<g opacity="0.8">
<path d="M442.151 50.5997L461.083 61.5063L424.614 102.896L418.338 155.127L400.274 178.572L387.789 207.766L379.895 226.869V191.636L389.131 167.81L402.971 150.891L409.115 126.67L419.351 94.8315L442.151 50.5997Z" fill="white"/>
<path opacity="0.8" d="M489.04 137.827V134.774L462.228 118.934V61.9667L459.583 60.4406V117.408L435.375 103.357L427.192 82.096L379.237 54.8491V57.9014L391.709 61.1247V143.931L379.237 136.735V139.787L394.354 148.523V113.277L459.583 150.601V187.624L435.862 173.901L435.718 173.836L411.168 200.385L379.237 182.308V185.361L396.564 195.004V226.777L379.237 247.893V250.787L397.59 229.211L425.127 276.232L399.116 296.374L401.59 297.795L445.651 266.878L459.583 274.864L472.345 337.449H474.989L462.241 276.377L475.581 283.968L475.792 283.586V281.047L462.241 273.324V246.946L489.054 262.786V259.734L462.241 243.894V192.176L489.054 208.016V204.964L462.241 189.123V152.101L489.054 167.942V164.889L462.241 149.049V121.96L489.054 137.8L489.04 137.827ZM399.208 196.517L410.352 202.951L410.852 203.24L435.402 176.691L435.875 176.941V228.658L435.533 228.448L399.222 225.593V196.517H399.208ZM459.583 271.811L445.427 263.707L427.232 274.587L400.024 228.119L435.375 231.408L442.822 235.737V235.815H442.967L459.596 245.406V271.798L459.583 271.811ZM459.583 242.367L438.507 230.185V178.467L459.583 190.663V242.381V242.367ZM459.583 147.536L394.354 110.211V66.5978L425.061 83.9116L433.244 105.159L459.583 120.447V147.536Z" fill="#D11F1F"/>
</g>
<path opacity="0.5" d="M248.728 386.853C253.604 386.853 257.973 385.896 261.01 384.134L360.767 326.886C361.986 326.174 364.011 324.749 364.011 322.986C364.011 321.505 362.511 318.898 358.292 316.461L136.54 184.602C131.964 181.958 125.833 180.439 119.701 180.439C114.826 180.439 110.457 181.414 107.419 183.158L7.66254 240.406C6.44371 241.118 4.41858 242.543 4.41858 244.306C4.41858 245.787 5.91868 248.394 10.1377 250.831L231.89 382.69C236.465 385.334 242.597 386.853 248.728 386.853Z" fill="url(#paint23_linear_25_1058)"/>
<path d="M36.9896 110.947L94.6871 139.186L196.656 80.7576L148.222 54.7872C145.784 53.4558 142.822 53.4371 140.384 54.7872L37.0084 110.966L36.9896 110.947Z" fill="url(#paint24_linear_25_1058)"/>
<path d="M8.90039 181.17V221.579L94.6872 274.026V139.186L45.1278 110.853C41.1712 108.528 36.0897 110.084 34.1208 114.247L14.6945 155.35C10.8693 163.432 8.90039 172.263 8.90039 181.189V181.17Z" fill="#D7D7D7"/>
<path d="M94.6873 139.186V274.026L196.656 215.166V80.7575L94.6873 139.186Z" fill="url(#paint25_linear_25_1058)"/>
<path d="M70.2734 186.852L76.0676 190.246C77.3614 190.996 78.1677 192.384 78.1677 193.902V194.184C78.1677 195.684 76.5364 196.621 75.2425 195.853L69.9922 192.796C68.7358 192.065 67.967 190.733 67.967 189.29V188.202C67.967 187.021 69.2421 186.289 70.2547 186.889L70.2734 186.852Z" fill="url(#paint26_linear_25_1058)"/>
<path d="M70.0107 192.777L75.2611 195.834C76.4986 196.565 78.055 195.721 78.1675 194.315C78.1675 194.315 78.1863 194.427 78.1863 194.465V195.459C78.1863 196.959 76.5549 197.896 75.2611 197.128L70.0107 194.071C68.7544 193.34 67.9856 192.009 67.9856 190.565V189.252C67.9856 190.696 68.7544 192.027 70.0107 192.759V192.777Z" fill="#8D8D8D"/>
<path d="M43.5526 122.029C40.8149 120.379 37.271 121.485 35.9396 124.373L24.3701 149.481C23.2825 151.956 24.2389 154.844 26.5828 156.194L78.5236 186.139C80.9426 187.527 83.9803 185.764 83.9803 182.97V150.456C83.9803 147.793 82.5364 145.337 80.23 144.024L43.5714 122.029H43.5526Z" fill="#F6F6F6"/>
<path d="M80.3235 184.752C80.0234 184.752 79.7234 184.677 79.4609 184.508L27.52 154.562C26.0012 153.7 25.3824 151.843 26.0949 150.231L37.6457 125.161C38.2082 123.923 39.4458 123.135 40.8146 123.135C41.4334 123.135 42.0522 123.304 42.596 123.642L79.2547 145.637C81.0173 146.631 82.1048 148.468 82.1048 150.456V182.971C82.1048 183.589 81.8236 184.002 81.5798 184.246C81.2423 184.564 80.7923 184.752 80.3422 184.752H80.3235Z" fill="#272E33"/>
<path d="M39.9903 171.007C40.309 171.007 40.609 170.857 40.7778 170.557C41.0403 170.126 40.9091 169.563 40.459 169.301L34.2149 165.532C30.9147 163.544 28.852 159.906 28.852 156.044V131.667C28.852 127.954 30.6896 124.504 33.7836 122.46L39.9152 118.372C40.3465 118.091 40.459 117.51 40.1778 117.097C39.8965 116.666 39.3152 116.554 38.9027 116.835L32.771 120.923C29.1708 123.323 27.0144 127.336 27.0144 131.667V156.044C27.0144 160.544 29.4146 164.782 33.2586 167.107L39.5027 170.876C39.6527 170.97 39.8215 171.007 39.9715 171.007H39.9903Z" fill="#8D8D8D"/>
<path d="M24.0139 157.431L28.4579 154.862C30.4081 153.737 32.0207 150.681 32.0207 148.056V134.63C32.0207 132.023 30.4268 130.805 28.4579 131.948L24.0139 134.517C22.0638 135.642 20.4512 138.699 20.4512 141.324V154.75C20.4512 157.356 22.045 158.575 24.0139 157.431Z" fill="white"/>
<path style="mix-blend-mode:color-dodge" d="M24.0139 134.517L28.4579 131.949C29.583 131.292 30.5768 131.442 31.2331 132.174C30.7643 132.136 30.2393 132.249 29.6768 132.567L25.2327 135.136C23.2826 136.261 21.67 139.318 21.67 141.943V155.369C21.67 156.475 21.97 157.319 22.4576 157.844C21.2762 157.75 20.4512 156.625 20.4512 154.75V141.324C20.4512 138.718 22.045 135.661 24.0139 134.517Z" fill="url(#paint27_radial_25_1058)"/>
<path d="M28.4393 226.811V240.912L4.75647 225.967C3.80016 225.367 3.21887 224.317 3.21887 223.173V210.085L28.4393 226.811Z" fill="url(#paint28_linear_25_1058)"/>
<path d="M8.78793 209.916V205.809C8.78793 205.809 8.24414 206.184 7.00656 206.803C1.06242 209.747 2.80628 211.247 6.89405 213.722C9.42547 215.26 28.4392 226.811 28.4392 226.811L32.2082 224.373L8.76917 209.935L8.78793 209.916Z" fill="#D7D7D7"/>
<path d="M19.8512 211.604V239.412L34.9272 230.936L33.9146 203.203L19.8512 211.604Z" fill="#8D8D8D"/>
<path d="M87.0554 252.669C87.0554 260.732 84.2802 266.451 79.7424 269.207C79.6112 269.282 66.0916 277.12 65.9415 277.214C61.235 279.839 64.2352 273.876 57.091 269.751C42.7088 261.444 31.0268 241.324 31.0268 224.804C31.0268 216.648 23.47 216.573 28.1016 213.854C28.2328 213.779 42.6525 205.791 42.7838 205.716C47.4716 203.165 53.9033 203.634 60.9725 207.722C75.3547 216.029 87.0367 236.149 87.0367 252.669H87.0554Z" fill="#272E33"/>
<path d="M65.0733 277.543C75.1849 271.632 75.082 252.642 64.8434 235.127C54.6047 217.613 38.1076 208.207 27.996 214.118C17.8843 220.029 17.9873 239.019 28.2259 256.533C38.4646 274.048 54.9617 283.454 65.0733 277.543Z" fill="#272E33"/>
<path d="M59.7451 268.429C66.9511 264.216 66.878 250.684 59.5819 238.203C52.2857 225.722 40.5294 219.019 33.3235 223.232C26.1175 227.444 26.1906 240.977 33.4867 253.458C40.7828 265.939 52.5391 272.641 59.7451 268.429Z" fill="url(#paint29_linear_25_1058)"/>
<path d="M65.1164 256.55C65.1164 260.319 64.2539 263.357 62.7725 265.57C59.6036 267.857 54.9532 267.782 49.7779 264.801C40.2148 259.269 32.4518 245.9 32.4518 234.911C32.4518 226.98 36.502 222.46 42.3524 222.667C43.7025 223.079 45.1089 223.698 46.5527 224.542C56.8096 230.467 65.1164 244.793 65.1164 256.569V256.55Z" fill="#DADADA"/>
<path d="M35.9401 222.217C32.6211 224.148 30.5772 228.255 30.5772 234.086C30.5772 245.862 38.884 260.188 49.141 266.113C53.0787 268.382 56.7352 269.076 59.7541 268.42C56.3789 270.389 51.7099 270.107 46.5345 267.126C36.2776 261.201 27.9708 246.875 27.9708 235.099C27.9708 227.861 31.121 223.286 35.9213 222.217H35.9401Z" fill="#D7D7D7"/>
<path d="M53.6219 248.731C53.6219 251.806 51.4468 253.044 48.7654 251.506C46.084 249.95 43.9088 246.2 43.9088 243.124C43.9088 240.049 46.084 238.812 48.7654 240.349C51.4468 241.887 53.6219 245.656 53.6219 248.731Z" fill="url(#paint30_radial_25_1058)"/>
<path style="mix-blend-mode:screen" d="M47.7904 215.298C40.89 211.322 34.6271 210.779 29.958 213.104C34.3083 211.885 39.6899 212.804 45.5403 216.16C59.9225 224.467 71.6045 244.587 71.6045 261.107C71.6045 269.714 68.4355 275.62 63.3727 278.152C69.7294 276.37 73.8546 270.051 73.8546 260.226C73.8546 243.706 62.1914 223.586 47.7904 215.279V215.298Z" fill="url(#paint31_radial_25_1058)"/>
<path d="M46.7592 229.886C46.7592 231.424 47.8468 233.299 49.1781 234.068C50.5095 234.836 51.597 234.218 51.597 232.68C51.597 231.142 50.5095 229.267 49.1781 228.498C47.8468 227.73 46.7592 228.348 46.7592 229.886ZM46.7592 258.294C46.7592 259.832 47.8468 261.707 49.1781 262.476C50.5095 263.244 51.597 262.626 51.597 261.088C51.597 259.55 50.5095 257.675 49.1781 256.907C47.8468 256.138 46.7592 256.757 46.7592 258.294ZM42.1464 229.417C41.1901 227.786 39.6713 226.905 38.715 227.43C37.7586 227.973 37.7586 229.736 38.715 231.367C39.6713 232.999 41.1901 233.88 42.1464 233.355C43.1027 232.811 43.1027 231.049 42.1464 229.417ZM56.2286 261.576C57.1849 263.207 58.7038 264.088 59.6601 263.563C60.6164 263.038 60.6164 261.257 59.6601 259.625C58.7038 257.994 57.1849 257.113 56.2286 257.638C55.2723 258.182 55.2723 259.944 56.2286 261.576ZM34.3834 236.955C34.3834 238.493 35.471 240.368 36.8023 241.137C38.1337 241.906 39.2212 241.287 39.2212 239.749C39.2212 238.212 38.1337 236.336 36.8023 235.568C35.471 234.799 34.3834 235.418 34.3834 236.955ZM59.1538 251.244C59.1538 252.781 60.2414 254.656 61.5727 255.425C62.904 256.194 63.9916 255.575 63.9916 254.038C63.9916 252.5 62.904 250.625 61.5727 249.856C60.2414 249.087 59.1538 249.706 59.1538 251.244ZM38.7337 251.469C39.69 253.1 41.2089 253.981 42.1652 253.456C43.1215 252.913 43.1215 251.15 42.1652 249.519C41.2089 247.887 39.69 247.006 38.7337 247.531C37.7774 248.075 37.7774 249.837 38.7337 251.469ZM56.2474 241.493C57.2037 243.124 58.7225 244.006 59.6788 243.481C60.6351 242.956 60.6351 241.174 59.6788 239.543C58.7225 237.912 57.2037 237.03 56.2474 237.555C55.291 238.099 55.291 239.862 56.2474 241.493Z" fill="#272E33"/>
<path d="M56.6968 248.731C56.6968 250.962 55.928 252.519 54.6905 253.288L51.6715 255.106C50.3777 255.838 51.2027 254.188 49.2338 253.044C45.2773 250.756 42.0521 245.206 42.0521 240.668C42.0521 238.418 39.9707 238.399 41.2458 237.649L44.4898 235.83C45.8211 235.118 47.5837 235.23 49.5339 236.374C53.4904 238.662 56.7156 244.212 56.7156 248.75L56.6968 248.731Z" fill="url(#paint32_linear_25_1058)"/>
<path d="M53.491 250.606C53.491 255.163 50.2845 256.982 46.3093 254.694C42.3528 252.406 39.1276 246.856 39.1276 242.318C39.1276 237.78 42.334 235.943 46.3093 238.23C50.2845 240.518 53.491 246.068 53.491 250.606Z" fill="url(#paint33_linear_25_1058)"/>
<path d="M79.1801 270.37V245.843L60.5039 213.647L34.1959 198.44L50.0782 189.402L76.4799 204.647L95.1562 236.843V261.369L79.1801 270.37Z" fill="url(#paint34_linear_25_1058)"/>
<path d="M79.1796 245.843L60.5034 213.647L76.4795 204.647L95.1557 236.843L79.1796 245.843Z" fill="url(#paint35_linear_25_1058)"/>
<path d="M74.7739 268.007V247.025L57.2978 216.873L34.0837 203.466L19.8516 211.604V239.412L15.4263 236.88V209.035L34.1025 198.384L60.5042 213.647L79.1804 245.843V270.52L74.7739 268.007Z" fill="#DADADA"/>
<g style="mix-blend-mode:color-dodge">
<path d="M78.7299 245.262L60.0537 213.066L34.027 198.046L35.0208 197.465L61.4413 212.71L80.0987 244.925V269.807L78.7299 269.001V245.262Z" fill="url(#paint36_radial_25_1058)"/>
<path d="M19.3822 237.724V211.022L33.6331 202.903L34.0082 203.128L20.7698 210.685V238.512L19.3822 237.724Z" fill="url(#paint37_radial_25_1058)"/>
</g>
<path style="mix-blend-mode:color-dodge" opacity="0.5" d="M38.4151 187.902C31.4396 194.765 36.2024 210.91 49.0658 223.998C61.9291 237.068 77.9989 242.112 84.9743 235.249C91.9498 228.386 87.187 212.241 74.3237 199.153C61.4603 186.083 45.3905 181.039 38.4151 187.902Z" fill="url(#paint38_radial_25_1058)"/>
<path style="mix-blend-mode:multiply" d="M8.90039 191.765V204.759L12.8194 207.009V194.184L8.90039 191.765Z" fill="url(#paint39_linear_25_1058)"/>
<path d="M8.90039 204.759L12.8194 207.01V196.678L8.90039 204.759Z" fill="url(#paint40_linear_25_1058)"/>
<g style="mix-blend-mode:multiply">
<path d="M8.90039 203.503V204.759L12.8194 207.01V205.922L8.90039 203.503Z" fill="url(#paint41_linear_25_1058)"/>
</g>
<path d="M9.06913 201.422C9.16288 202.64 10.0629 203.053 11.0755 202.359C12.0881 201.665 12.8194 200.128 12.7256 198.909C12.6319 197.69 11.7318 197.278 10.7192 197.971C9.70667 198.665 8.97537 200.203 9.06913 201.422Z" fill="url(#paint42_linear_25_1058)"/>
<path style="mix-blend-mode:color-dodge" d="M3.72482 211.566C7.38131 213.104 12.2754 209.766 14.6755 204.122C17.0757 198.478 16.0256 192.627 12.3691 191.09C8.71264 189.552 3.81857 192.89 1.41842 198.534C-0.98174 204.178 0.0683296 210.028 3.72482 211.566Z" fill="url(#paint43_radial_25_1058)"/>
<path d="M194.893 300.109V324.842L111.469 276.445V251.806L194.893 300.109Z" fill="#272E33"/>
<path d="M194.893 300.109V324.842L218.332 311.51V286.721L194.893 300.109Z" fill="#272E33"/>
<path d="M218.332 286.721L194.893 300.109L111.469 251.806L134.927 238.437L218.332 286.721Z" fill="#272E33"/>
<path d="M181.149 320.754L176.892 323.267L107.663 283.365L111.957 280.908L181.149 320.754Z" fill="#D7D7D7"/>
<path d="M107.57 258.013V283.402L111.957 280.946V255.388L107.57 258.013Z" fill="url(#paint44_linear_25_1058)"/>
<path d="M101.269 251V286.796L183.174 334.293V298.178L101.269 250.981V251ZM107.644 262.044L176.799 301.891V323.23L107.644 283.139V262.063V262.044Z" fill="#DADADA"/>
<path d="M183.155 298.197V334.312L188.537 331.593V295.253L183.155 298.197Z" fill="#DADADA"/>
<path d="M188.537 295.253L183.155 298.197L101.269 251L106.707 248.15L188.537 295.253Z" fill="#DADADA"/>
<path d="M203.369 296.265V343.2L211.47 338.643V291.428L203.369 296.265Z" fill="#272E33"/>
<path d="M272.824 358.294C272.824 366.32 270.049 372.002 265.548 374.739C265.417 374.814 251.335 382.971 251.204 383.046C246.516 385.671 249.516 379.727 242.409 375.62C228.102 367.351 216.495 347.362 216.495 330.936C216.495 322.817 208.995 322.761 213.589 320.042C213.72 319.967 228.702 311.679 228.833 311.604C233.503 309.072 239.878 309.541 246.91 313.61C261.217 321.879 272.824 341.868 272.824 358.294Z" fill="#272E33"/>
<path d="M250.337 383.398C260.395 377.518 260.295 358.634 250.114 341.218C239.932 323.802 223.525 314.45 213.467 320.33C203.409 326.209 203.509 345.094 213.69 362.51C223.872 379.926 240.279 389.278 250.337 383.398Z" fill="#272E33"/>
<path style="mix-blend-mode:screen" d="M233.146 321.505C226.283 317.548 220.058 317.004 215.427 319.329C219.739 318.129 225.102 319.029 230.915 322.367C245.222 330.636 256.829 350.625 256.829 367.051C256.829 375.602 253.679 381.49 248.654 384.002C254.973 382.24 259.079 375.939 259.079 366.189C259.079 349.763 247.472 329.755 233.165 321.505H233.146Z" fill="url(#paint45_radial_25_1058)"/>
<path d="M231.703 333.937C222.477 328.611 214.958 332.887 214.958 343.481C214.958 354.075 222.477 367.033 231.703 372.358C240.928 377.683 248.447 373.408 248.447 362.814C248.447 352.219 240.928 339.262 231.703 333.937Z" fill="#D7D7D7"/>
<path d="M237.647 368.533C228.421 363.207 220.902 350.25 220.902 339.656C220.902 336.393 221.614 333.73 222.871 331.761C218.127 332.418 214.939 336.599 214.939 343.481C214.939 354.075 222.458 367.032 231.684 372.358C238.078 376.052 243.628 375.133 246.441 370.708C243.872 371.064 240.872 370.389 237.628 368.533H237.647Z" fill="#8D8D8D"/>
<g style="mix-blend-mode:multiply">
<path d="M243.309 361.351C243.309 367.895 238.678 370.539 232.977 367.239C227.277 363.939 222.645 355.969 222.645 349.425C222.645 342.881 227.277 340.237 232.977 343.537C238.678 346.837 243.309 354.807 243.309 361.351Z" fill="url(#paint46_linear_25_1058)"/>
</g>
<path d="M242.484 357.582C242.484 363.132 238.565 365.364 233.746 362.57C228.908 359.776 224.989 353.025 224.989 347.475C224.989 341.925 228.908 339.693 233.746 342.487C238.584 345.281 242.484 352.032 242.484 357.582Z" fill="#8D8D8D"/>
<path d="M240.084 359.232C240.084 364.782 236.165 367.014 231.327 364.22C226.489 361.426 222.589 354.675 222.589 349.125C222.589 343.575 226.508 341.343 231.327 344.137C236.146 346.931 240.084 353.682 240.084 359.232Z" fill="url(#paint47_linear_25_1058)"/>
<path d="M271.042 335.081V381.996L262.679 377.177V339.843L203.425 305.847V343.181L195.081 338.343V291.428L271.042 335.081Z" fill="url(#paint48_linear_25_1058)"/>
<path d="M271.099 335.155V382.09L279.199 377.552V330.318L271.099 335.155Z" fill="#272E33"/>
<path d="M282.574 341.981V373.483L279.48 371.008V339.599L282.574 341.981Z" fill="#8D8D8D"/>
<path d="M282.555 341.981V373.483L383.061 315.785V284.246L282.555 341.981Z" fill="#8D8D8D"/>
<path d="M383.062 284.246L282.555 341.981L279.48 339.6L379.987 281.883L383.062 284.246Z" fill="#8D8D8D"/>
<path d="M279.068 333.149V366.901L275.768 364.257V330.58L279.068 333.149Z" fill="#272E33"/>
<path d="M279.067 333.149V366.901L386.774 305.06V271.251L279.067 333.149Z" fill="#272E33"/>
<path d="M386.775 271.251L279.068 333.149L275.768 330.58L383.494 268.72L386.775 271.251Z" fill="#272E33"/>
<path d="M280.718 220.098V351.113L100.706 246.218V115.579L280.718 220.098Z" fill="#DADADA"/>
<path d="M271.492 225.405L109.932 131.592V240.912L271.492 335.08V225.405Z" fill="#D7D7D7"/>
<g style="mix-blend-mode:multiply">
<path d="M271.492 225.405V235.061L113.157 143.124V242.787L109.932 240.912V131.592L271.492 225.405Z" fill="#F6F6F6"/>
</g>
<path d="M280.68 220.098V351.113L387.393 290.396V159.1L280.68 220.098Z" fill="#F6F6F6"/>
<path d="M378.168 285.033V174.983L289.887 225.442V335.268L378.168 285.033Z" fill="#272E33"/>
<path d="M387.394 159.1L280.68 220.098L100.706 115.579L207.513 54.6746L387.394 159.1Z" fill="url(#paint49_linear_25_1058)"/>
<g style="mix-blend-mode:multiply">
<path d="M289.887 233.824L377.962 285.165L378.168 285.033V174.983L289.887 225.442V233.824Z" fill="#D7D7D7"/>
</g>
<g style="mix-blend-mode:multiply">
<path d="M356.173 319.611L356.285 316.554C356.285 313.31 352.779 311.285 349.985 312.898L322.364 328.78C318.07 331.255 315.426 335.831 315.426 340.781V343.162L356.173 319.611Z" fill="#D7D7D7"/>
</g>
<path d="M323.077 331.18V338.587L349.779 323.511V315.936L323.077 331.18Z" fill="white"/>
<path style="mix-blend-mode:color-dodge" d="M349.779 315.936V317.023L323.977 331.78V338.081L323.077 338.587V331.18L349.779 315.936Z" fill="url(#paint50_radial_25_1058)"/>
<path d="M368.886 303.278V310.535L385.65 300.916V293.64L368.886 303.278Z" fill="url(#paint51_linear_25_1058)"/>
<path d="M377.212 298.534V305.81L385.65 300.916V293.64L377.212 298.534Z" fill="url(#paint52_linear_25_1058)"/>
<path d="M374.455 303.166L372.262 307.797C372.262 307.797 368.961 305.06 369.618 303.635C370.274 302.209 374.437 303.185 374.437 303.185L374.455 303.166Z" fill="url(#paint53_linear_25_1058)"/>
<path d="M371.568 306.447C371.568 307.61 372.393 308.079 373.405 307.497C374.418 306.916 375.243 305.491 375.243 304.328C375.243 303.166 374.418 302.697 373.405 303.278C372.393 303.86 371.568 305.285 371.568 306.447Z" fill="url(#paint54_linear_25_1058)"/>
<path d="M383.794 297.634L381.6 302.266C381.6 302.266 378.299 299.528 378.956 298.103C379.612 296.678 383.775 297.653 383.775 297.653L383.794 297.634Z" fill="url(#paint55_linear_25_1058)"/>
<path d="M380.887 300.916C380.887 302.078 381.712 302.547 382.725 301.966C383.737 301.384 384.562 299.959 384.562 298.797C384.562 297.634 383.737 297.165 382.725 297.747C381.712 298.328 380.887 299.753 380.887 300.916Z" fill="url(#paint56_linear_25_1058)"/>
<path style="mix-blend-mode:color-dodge" d="M371.324 305.622C372.862 309.147 379.481 309.672 386.1 306.803C392.719 303.916 396.844 298.722 395.307 295.178C393.769 291.634 387.15 291.127 380.531 293.996C373.912 296.884 369.786 302.078 371.324 305.622Z" fill="url(#paint57_radial_25_1058)"/>
<path d="M279.611 354.244V361.501L296.393 351.882V344.606L279.611 354.244Z" fill="url(#paint58_linear_25_1058)"/>
<path d="M287.956 349.5V356.757L296.394 351.882V344.606L287.956 349.5Z" fill="url(#paint59_linear_25_1058)"/>
<path d="M285.199 354.132L283.005 358.763C283.005 358.763 279.705 356.026 280.361 354.601C281.018 353.176 285.18 354.151 285.18 354.151L285.199 354.132Z" fill="url(#paint60_linear_25_1058)"/>
<path d="M282.293 357.413C282.293 358.576 283.118 359.045 284.13 358.463C285.143 357.882 285.968 356.457 285.968 355.294C285.968 354.132 285.143 353.663 284.13 354.244C283.118 354.826 282.293 356.251 282.293 357.413Z" fill="url(#paint61_linear_25_1058)"/>
<path d="M294.518 348.6L292.324 353.232C292.324 353.232 289.024 350.494 289.681 349.069C290.337 347.644 294.5 348.619 294.5 348.619L294.518 348.6Z" fill="url(#paint62_linear_25_1058)"/>
<path d="M291.63 351.882C291.63 353.044 292.455 353.513 293.468 352.932C294.48 352.35 295.305 350.925 295.305 349.763C295.305 348.6 294.48 348.131 293.468 348.713C292.455 349.294 291.63 350.719 291.63 351.882Z" fill="url(#paint63_linear_25_1058)"/>
<path style="mix-blend-mode:color-dodge" d="M278.712 358.501C280.249 362.026 286.868 362.551 293.488 359.682C300.107 356.794 304.232 351.6 302.695 348.056C301.157 344.531 294.538 344.006 287.919 346.875C281.299 349.763 277.174 354.957 278.712 358.501Z" fill="url(#paint64_radial_25_1058)"/>
<mask id="mask0_25_1058" style="mask-type:luminance" maskUnits="userSpaceOnUse" x="289" y="174" width="90" height="162">
<path d="M378.168 285.033V174.982L289.888 225.442V335.268L378.168 285.033Z" fill="white"/>
</mask>
<g mask="url(#mask0_25_1058)">
<path d="M303.482 251.244V291.334L342.147 268.926V228.517L303.482 251.244Z" fill="url(#paint65_linear_25_1058)"/>
<path d="M303.519 251.244V291.334L266.804 270.126V229.717L303.519 251.244Z" fill="url(#paint66_linear_25_1058)"/>
<path d="M266.804 229.717L303.519 251.244L342.147 228.517L305.357 207.103L266.804 229.717Z" fill="url(#paint67_linear_25_1058)"/>
<path opacity="0.5" d="M266.804 229.717L303.519 251.244L342.147 228.517L303.519 250.625L266.804 229.717Z" fill="url(#paint68_linear_25_1058)"/>
<path d="M319.89 241.774V252.519L328.628 247.531V236.449L319.89 241.774Z" fill="url(#paint69_linear_25_1058)"/>
<path d="M283.212 220.248L319.927 241.774L328.627 236.449L291.819 215.035L283.212 220.248Z" fill="url(#paint70_linear_25_1058)"/>
<path d="M310.833 265.795L307.757 275.283L309.745 274.139V285.446L311.901 284.208V272.883L313.889 271.739L310.833 265.795Z" fill="url(#paint71_linear_25_1058)"/>
<path d="M321.333 267.445L318.277 261.501L315.201 270.989L317.189 269.826V281.152L319.345 279.896V268.589L321.333 267.445Z" fill="url(#paint72_linear_25_1058)"/>
<g style="mix-blend-mode:multiply" opacity="0.5">
<path d="M254.147 222.217L290.862 243.743L329.49 221.017L292.7 199.603L254.147 222.217Z" fill="#F1D5BE"/>
</g>
<path d="M341.453 271.664V297.203L366.092 282.933V257.206L341.453 271.664Z" fill="url(#paint73_linear_25_1058)"/>
<path d="M341.491 271.664V297.203L318.109 283.683V257.957L341.491 271.664Z" fill="url(#paint74_linear_25_1058)"/>
<path d="M318.109 257.957L341.491 271.664L366.093 257.207L342.654 243.556L318.109 257.957Z" fill="url(#paint75_linear_25_1058)"/>
<path opacity="0.5" d="M318.109 257.957L341.491 271.664L366.093 257.206L341.491 271.27L318.109 257.957Z" fill="url(#paint76_linear_25_1058)"/>
<path d="M351.898 265.645V272.489L357.467 269.301V262.251L351.898 265.645Z" fill="url(#paint77_linear_25_1058)"/>
<path d="M328.553 251.938L351.936 265.645L357.467 262.251L334.047 248.619L328.553 251.938Z" fill="url(#paint78_linear_25_1058)"/>
<path d="M346.141 280.927L344.191 286.965L345.447 286.234V293.453L346.835 292.647V285.446L348.091 284.715L346.141 280.927Z" fill="url(#paint79_linear_25_1058)"/>
<path d="M352.835 281.977L350.885 278.189L348.935 284.227L350.191 283.496V290.715L351.56 289.909V282.708L352.835 281.977Z" fill="url(#paint80_linear_25_1058)"/>
</g>
<defs>
<linearGradient id="paint0_linear_25_1058" x1="443.824" y1="1.03424" x2="443.824" y2="354.843" gradientUnits="userSpaceOnUse">
<stop stop-color="#F6F6F6"/>
<stop offset="1" stop-color="#E0DEDE"/>
</linearGradient>
<linearGradient id="paint1_linear_25_1058" x1="443.713" y1="1.11322" x2="443.713" y2="354.843" gradientUnits="userSpaceOnUse">
<stop stop-color="#F6F6F6"/>
<stop offset="1" stop-color="#E0DEDE"/>
</linearGradient>
<linearGradient id="paint2_linear_25_1058" x1="443.601" y1="1.20532" x2="443.601" y2="354.856" gradientUnits="userSpaceOnUse">
<stop stop-color="#F6F6F6"/>
<stop offset="1" stop-color="#E0DEDE"/>
</linearGradient>
<linearGradient id="paint3_linear_25_1058" x1="443.482" y1="1.28424" x2="443.482" y2="354.843" gradientUnits="userSpaceOnUse">
<stop stop-color="#F6F6F6"/>
<stop offset="1" stop-color="#E0DEDE"/>
</linearGradient>
<linearGradient id="paint4_linear_25_1058" x1="443.371" y1="1.36322" x2="443.371" y2="354.843" gradientUnits="userSpaceOnUse">
<stop stop-color="#F6F6F6"/>
<stop offset="1" stop-color="#E0DEDE"/>
</linearGradient>
<linearGradient id="paint5_linear_25_1058" x1="443.259" y1="1.45532" x2="443.259" y2="354.856" gradientUnits="userSpaceOnUse">
<stop stop-color="#F6F6F6"/>
<stop offset="1" stop-color="#E0DEDE"/>
</linearGradient>
<linearGradient id="paint6_linear_25_1058" x1="443.147" y1="1.53424" x2="443.147" y2="354.843" gradientUnits="userSpaceOnUse">
<stop stop-color="#F6F6F6"/>
<stop offset="1" stop-color="#E0DEDE"/>
</linearGradient>
<linearGradient id="paint7_linear_25_1058" x1="443.035" y1="1.61316" x2="443.035" y2="354.843" gradientUnits="userSpaceOnUse">
<stop stop-color="#F6F6F6"/>
<stop offset="1" stop-color="#E0DEDE"/>
</linearGradient>
<linearGradient id="paint8_linear_25_1058" x1="442.923" y1="1.69202" x2="442.923" y2="354.842" gradientUnits="userSpaceOnUse">
<stop stop-color="#F6F6F6"/>
<stop offset="1" stop-color="#E0DEDE"/>
</linearGradient>
<linearGradient id="paint9_linear_25_1058" x1="442.811" y1="1.78412" x2="442.811" y2="354.842" gradientUnits="userSpaceOnUse">
<stop stop-color="#F6F6F6"/>
<stop offset="1" stop-color="#E0DEDE"/>
</linearGradient>
<linearGradient id="paint10_linear_25_1058" x1="442.7" y1="1.8631" x2="442.7" y2="354.843" gradientUnits="userSpaceOnUse">
<stop stop-color="#F6F6F6"/>
<stop offset="1" stop-color="#E0DEDE"/>
</linearGradient>
<linearGradient id="paint11_linear_25_1058" x1="442.588" y1="1.94202" x2="442.588" y2="354.843" gradientUnits="userSpaceOnUse">
<stop stop-color="#F6F6F6"/>
<stop offset="1" stop-color="#E0DEDE"/>
</linearGradient>
<linearGradient id="paint12_linear_25_1058" x1="442.476" y1="2.03412" x2="442.476" y2="354.856" gradientUnits="userSpaceOnUse">
<stop stop-color="#F6F6F6"/>
<stop offset="1" stop-color="#E0DEDE"/>
</linearGradient>
<linearGradient id="paint13_linear_25_1058" x1="442.364" y1="2.11304" x2="442.364" y2="354.843" gradientUnits="userSpaceOnUse">
<stop stop-color="#F6F6F6"/>
<stop offset="1" stop-color="#E0DEDE"/>
</linearGradient>
<linearGradient id="paint14_linear_25_1058" x1="442.252" y1="2.19202" x2="442.252" y2="354.843" gradientUnits="userSpaceOnUse">
<stop stop-color="#F6F6F6"/>
<stop offset="1" stop-color="#E0DEDE"/>
</linearGradient>
<linearGradient id="paint15_linear_25_1058" x1="442.14" y1="2.28412" x2="442.14" y2="354.856" gradientUnits="userSpaceOnUse">
<stop stop-color="#F6F6F6"/>
<stop offset="1" stop-color="#E0DEDE"/>
</linearGradient>
<linearGradient id="paint16_linear_25_1058" x1="442.029" y1="2.36304" x2="442.029" y2="354.843" gradientUnits="userSpaceOnUse">
<stop stop-color="#F6F6F6"/>
<stop offset="1" stop-color="#E0DEDE"/>
</linearGradient>
<linearGradient id="paint17_linear_25_1058" x1="441.917" y1="2.44196" x2="441.917" y2="354.843" gradientUnits="userSpaceOnUse">
<stop stop-color="#F6F6F6"/>
<stop offset="1" stop-color="#E0DEDE"/>
</linearGradient>
<linearGradient id="paint18_linear_25_1058" x1="441.805" y1="2.53412" x2="441.805" y2="354.856" gradientUnits="userSpaceOnUse">
<stop stop-color="#F6F6F6"/>
<stop offset="1" stop-color="#E0DEDE"/>
</linearGradient>
<linearGradient id="paint19_linear_25_1058" x1="441.693" y1="2.61304" x2="441.693" y2="354.843" gradientUnits="userSpaceOnUse">
<stop stop-color="#F6F6F6"/>
<stop offset="1" stop-color="#E0DEDE"/>
</linearGradient>
<linearGradient id="paint20_linear_25_1058" x1="441.581" y1="2.69196" x2="441.581" y2="354.843" gradientUnits="userSpaceOnUse">
<stop stop-color="#F6F6F6"/>
<stop offset="1" stop-color="#E0DEDE"/>
</linearGradient>
<linearGradient id="paint21_linear_25_1058" x1="434.066" y1="9.13055" x2="434.066" y2="353.565" gradientUnits="userSpaceOnUse">
<stop stop-color="#F6F6F6"/>
<stop offset="1" stop-color="#E0DEDE"/>
</linearGradient>
<linearGradient id="paint22_linear_25_1058" x1="504.973" y1="144.012" x2="504.973" y2="177.4" gradientUnits="userSpaceOnUse">
<stop stop-color="#F6F6F6"/>
<stop offset="1" stop-color="#E0DEDE"/>
</linearGradient>
<linearGradient id="paint23_linear_25_1058" x1="184.215" y1="180.439" x2="184.215" y2="386.853" gradientUnits="userSpaceOnUse">
<stop stop-color="#F6F6F6"/>
<stop offset="1" stop-color="#E0DEDE"/>
</linearGradient>
<linearGradient id="paint24_linear_25_1058" x1="116.823" y1="53.7816" x2="116.823" y2="139.186" gradientUnits="userSpaceOnUse">
<stop stop-color="#F6F6F6"/>
<stop offset="1" stop-color="#E0DEDE"/>
</linearGradient>
<linearGradient id="paint25_linear_25_1058" x1="145.672" y1="80.7575" x2="145.672" y2="274.026" gradientUnits="userSpaceOnUse">
<stop stop-color="#F6F6F6"/>
<stop offset="1" stop-color="#E0DEDE"/>
</linearGradient>
<linearGradient id="paint26_linear_25_1058" x1="89.6997" y1="188.596" x2="64.4043" y2="192.777" gradientUnits="userSpaceOnUse">
<stop stop-color="#AFB6E5"/>
<stop offset="0.21" stop-color="#B5BCE8"/>
<stop offset="0.5" stop-color="#C7CDF0"/>
<stop offset="0.58" stop-color="#CED3F4"/>
<stop offset="0.88" stop-color="#DDE2FB"/>
<stop offset="1" stop-color="#E5E9FF"/>
</linearGradient>
<radialGradient id="paint27_radial_25_1058" cx="0" cy="0" r="1" gradientUnits="userSpaceOnUse" gradientTransform="translate(25.8703 140.799) rotate(180) scale(6.0754 6.07539)">
<stop stop-color="white"/>
<stop offset="1"/>
</radialGradient>
<linearGradient id="paint28_linear_25_1058" x1="15.8291" y1="210.085" x2="15.8291" y2="240.912" gradientUnits="userSpaceOnUse">
<stop stop-color="#F6F6F6"/>
<stop offset="1" stop-color="#E0DEDE"/>
</linearGradient>
<linearGradient id="paint29_linear_25_1058" x1="33.3235" y1="223.232" x2="59.7451" y2="268.429" gradientUnits="userSpaceOnUse">
<stop stop-color="#F6F6F6"/>
<stop offset="1" stop-color="#E0DEDE"/>
</linearGradient>
<radialGradient id="paint30_radial_25_1058" cx="0" cy="0" r="1" gradientUnits="userSpaceOnUse" gradientTransform="translate(48.7466 245.918) rotate(180) scale(5.58787 5.58787)">
<stop stop-color="#EEEBF2"/>
<stop offset="0.58" stop-color="#D4D1D8"/>
<stop offset="0.94" stop-color="#A5A5B8"/>
<stop offset="1" stop-color="#9D9EB3"/>
</radialGradient>
<radialGradient id="paint31_radial_25_1058" cx="0" cy="0" r="1" gradientUnits="userSpaceOnUse" gradientTransform="translate(51.9157 244.943) scale(28.1456 28.1456)">
<stop stop-color="white"/>
<stop offset="1"/>
</radialGradient>
<linearGradient id="paint32_linear_25_1058" x1="55.4592" y1="252.856" x2="42.9709" y2="236.13" gradientUnits="userSpaceOnUse">
<stop offset="0.01" stop-color="#AFB6E5"/>
<stop offset="0.11" stop-color="#B9BFE9"/>
<stop offset="0.27" stop-color="#D4D9F6"/>
<stop offset="0.36" stop-color="#E5E9FF"/>
<stop offset="0.39" stop-color="#DADFFA"/>
<stop offset="0.47" stop-color="#C2C8EE"/>
<stop offset="0.55" stop-color="#B4BAE7"/>
<stop offset="0.61" stop-color="#AFB6E5"/>
<stop offset="0.78" stop-color="#B9C0EA"/>
<stop offset="1" stop-color="#CED3F4"/>
</linearGradient>
<linearGradient id="paint33_linear_25_1058" x1="53.7348" y1="243.518" x2="23.5265" y2="255.5" gradientUnits="userSpaceOnUse">
<stop stop-color="#AFB6E5"/>
<stop offset="0.21" stop-color="#B5BCE8"/>
<stop offset="0.5" stop-color="#C7CDF0"/>
<stop offset="0.58" stop-color="#CED3F4"/>
<stop offset="0.88" stop-color="#DDE2FB"/>
<stop offset="1" stop-color="#E5E9FF"/>
</linearGradient>
<linearGradient id="paint34_linear_25_1058" x1="64.676" y1="189.402" x2="64.676" y2="270.37" gradientUnits="userSpaceOnUse">
<stop stop-color="#F6F6F6"/>
<stop offset="1" stop-color="#E0DEDE"/>
</linearGradient>
<linearGradient id="paint35_linear_25_1058" x1="54.128" y1="243.987" x2="93.7868" y2="212.616" gradientUnits="userSpaceOnUse">
<stop stop-color="#AFB6E5"/>
<stop offset="0.21" stop-color="#B5BCE8"/>
<stop offset="0.5" stop-color="#C7CDF0"/>
<stop offset="0.58" stop-color="#CED3F4"/>
<stop offset="0.88" stop-color="#DDE2FB"/>
<stop offset="1" stop-color="#E5E9FF"/>
</linearGradient>
<radialGradient id="paint36_radial_25_1058" cx="0" cy="0" r="1" gradientUnits="userSpaceOnUse" gradientTransform="translate(57.4098 232.005) rotate(180) scale(17.5324)">
<stop stop-color="white"/>
<stop offset="1"/>
</radialGradient>
<radialGradient id="paint37_radial_25_1058" cx="0" cy="0" r="1" gradientUnits="userSpaceOnUse" gradientTransform="translate(26.6952 220.698) rotate(-180) scale(11.2695 11.2695)">
<stop stop-color="white"/>
<stop offset="1"/>
</radialGradient>
<radialGradient id="paint38_radial_25_1058" cx="0" cy="0" r="1" gradientUnits="userSpaceOnUse" gradientTransform="translate(47.091 226.5) rotate(-134.52) scale(33.1968 17.8129)">
<stop stop-color="#B887FF"/>
<stop offset="0.06" stop-color="#9E74DC"/>
<stop offset="0.16" stop-color="#7959A8"/>
<stop offset="0.26" stop-color="#59417B"/>
<stop offset="0.37" stop-color="#3D2D55"/>
<stop offset="0.48" stop-color="#271C36"/>
<stop offset="0.59" stop-color="#15101E"/>
<stop offset="0.71" stop-color="#09070D"/>
<stop offset="0.84" stop-color="#020103"/>
<stop offset="1"/>
</radialGradient>
<linearGradient id="paint39_linear_25_1058" x1="14.2257" y1="197.634" x2="7.98158" y2="200.878" gradientUnits="userSpaceOnUse">
<stop stop-color="#F36DD4"/>
<stop offset="0.19" stop-color="#F695DF"/>
<stop offset="0.44" stop-color="#F9C2ED"/>
<stop offset="0.66" stop-color="#FBE2F6"/>
<stop offset="0.85" stop-color="#FDF6FC"/>
<stop offset="0.97" stop-color="#FEFEFF"/>
<stop offset="1" stop-color="white"/>
</linearGradient>
<linearGradient id="paint40_linear_25_1058" x1="14.6758" y1="200.878" x2="9.29417" y2="203.672" gradientUnits="userSpaceOnUse">
<stop stop-color="#FF9E6E"/>
<stop offset="0.33" stop-color="#FFBC9B"/>
<stop offset="1" stop-color="white"/>
</linearGradient>
<linearGradient id="paint41_linear_25_1058" x1="10.8599" y1="203.503" x2="10.8599" y2="207.01" gradientUnits="userSpaceOnUse">
<stop stop-color="#F6F6F6"/>
<stop offset="1" stop-color="#E0DEDE"/>
</linearGradient>
<linearGradient id="paint42_linear_25_1058" x1="12.8788" y1="199.963" x2="9.04731" y2="200.273" gradientUnits="userSpaceOnUse">
<stop offset="0.04" stop-color="#FF9E6E"/>
<stop offset="0.3" stop-color="#FFAD72"/>
<stop offset="0.82" stop-color="#FFD580"/>
<stop offset="1" stop-color="#FFE585"/>
</linearGradient>
<radialGradient id="paint43_radial_25_1058" cx="0" cy="0" r="1" gradientUnits="userSpaceOnUse" gradientTransform="translate(9.75255 202.508) rotate(112.84) scale(11.1168 7.18528)">
<stop stop-color="#FFE4A7"/>
<stop offset="0.06" stop-color="#DCC490"/>
<stop offset="0.16" stop-color="#A8976E"/>
<stop offset="0.26" stop-color="#7B6E51"/>
<stop offset="0.37" stop-color="#554C38"/>
<stop offset="0.48" stop-color="#363023"/>
<stop offset="0.59" stop-color="#1E1B13"/>
<stop offset="0.71" stop-color="#0D0B08"/>
<stop offset="0.84" stop-color="#030202"/>
<stop offset="1"/>
</radialGradient>
<linearGradient id="paint44_linear_25_1058" x1="109.763" y1="255.388" x2="109.763" y2="283.402" gradientUnits="userSpaceOnUse">
<stop stop-color="#F6F6F6"/>
<stop offset="1" stop-color="#E0DEDE"/>
</linearGradient>
<radialGradient id="paint45_radial_25_1058" cx="0" cy="0" r="1" gradientUnits="userSpaceOnUse" gradientTransform="translate(237.234 350.981) scale(27.9956 27.9956)">
<stop stop-color="white"/>
<stop offset="1"/>
</radialGradient>
<linearGradient id="paint46_linear_25_1058" x1="232.977" y1="342.116" x2="232.977" y2="368.66" gradientUnits="userSpaceOnUse">
<stop stop-color="#F6F6F6"/>
<stop offset="1" stop-color="#E0DEDE"/>
</linearGradient>
<linearGradient id="paint47_linear_25_1058" x1="231.336" y1="342.933" x2="231.336" y2="365.424" gradientUnits="userSpaceOnUse">
<stop stop-color="#F6F6F6"/>
<stop offset="1" stop-color="#E0DEDE"/>
</linearGradient>
<linearGradient id="paint48_linear_25_1058" x1="233.062" y1="291.428" x2="233.062" y2="381.996" gradientUnits="userSpaceOnUse">
<stop stop-color="#F6F6F6"/>
<stop offset="1" stop-color="#E0DEDE"/>
</linearGradient>
<linearGradient id="paint49_linear_25_1058" x1="244.05" y1="54.6746" x2="244.05" y2="220.098" gradientUnits="userSpaceOnUse">
<stop stop-color="#F6F6F6"/>
<stop offset="1" stop-color="#E0DEDE"/>
</linearGradient>
<radialGradient id="paint50_radial_25_1058" cx="0" cy="0" r="1" gradientUnits="userSpaceOnUse" gradientTransform="translate(324.033 323.567) rotate(180) scale(12.3758 12.3758)">
<stop stop-color="white"/>
<stop offset="1"/>
</radialGradient>
<linearGradient id="paint51_linear_25_1058" x1="368.886" y1="302.097" x2="385.65" y2="302.097" gradientUnits="userSpaceOnUse">
<stop stop-color="#FF9E6E"/>
<stop offset="0.33" stop-color="#FFBC9B"/>
<stop offset="1" stop-color="white"/>
</linearGradient>
<linearGradient id="paint52_linear_25_1058" x1="377.212" y1="299.716" x2="385.65" y2="299.716" gradientUnits="userSpaceOnUse">
<stop offset="0.02" stop-color="#836DF3"/>
<stop offset="0.54" stop-color="#BB6DF3"/>
<stop offset="0.69" stop-color="#CA6DEA"/>
<stop offset="1" stop-color="#F36DD4"/>
</linearGradient>
<linearGradient id="paint53_linear_25_1058" x1="369.543" y1="305.322" x2="374.455" y2="305.322" gradientUnits="userSpaceOnUse">
<stop offset="0.04" stop-color="#FF9E6E"/>
<stop offset="0.3" stop-color="#FFAD72"/>
<stop offset="0.82" stop-color="#FFD580"/>
<stop offset="1" stop-color="#FFE585"/>
</linearGradient>
<linearGradient id="paint54_linear_25_1058" x1="375.243" y1="305.378" x2="371.568" y2="305.378" gradientUnits="userSpaceOnUse">
<stop offset="0.04" stop-color="#FF9E6E"/>
<stop offset="0.3" stop-color="#FFAD72"/>
<stop offset="0.82" stop-color="#FFD580"/>
<stop offset="1" stop-color="#FFE585"/>
</linearGradient>
<linearGradient id="paint55_linear_25_1058" x1="378.881" y1="299.791" x2="383.794" y2="299.791" gradientUnits="userSpaceOnUse">
<stop offset="0.02" stop-color="#836DF3"/>
<stop offset="0.54" stop-color="#BB6DF3"/>
<stop offset="0.69" stop-color="#CA6DEA"/>
<stop offset="1" stop-color="#F36DD4"/>
</linearGradient>
<linearGradient id="paint56_linear_25_1058" x1="384.581" y1="299.847" x2="380.906" y2="299.847" gradientUnits="userSpaceOnUse">
<stop offset="0.02" stop-color="#836DF3"/>
<stop offset="0.54" stop-color="#BB6DF3"/>
<stop offset="0.69" stop-color="#CA6DEA"/>
<stop offset="1" stop-color="#F36DD4"/>
</linearGradient>
<radialGradient id="paint57_radial_25_1058" cx="0" cy="0" r="1" gradientUnits="userSpaceOnUse" gradientTransform="translate(376.651 284.747) rotate(156.46) scale(13.085 7.02121)">
<stop stop-color="#FFE4A7"/>
<stop offset="0.06" stop-color="#DCC490"/>
<stop offset="0.16" stop-color="#A8976E"/>
<stop offset="0.26" stop-color="#7B6E51"/>
<stop offset="0.37" stop-color="#554C38"/>
<stop offset="0.48" stop-color="#363023"/>
<stop offset="0.59" stop-color="#1E1B13"/>
<stop offset="0.71" stop-color="#0D0B08"/>
<stop offset="0.84" stop-color="#030202"/>
<stop offset="1"/>
</radialGradient>
<linearGradient id="paint58_linear_25_1058" x1="279.611" y1="353.063" x2="296.393" y2="353.063" gradientUnits="userSpaceOnUse">
<stop offset="0.02" stop-color="#836DF3"/>
<stop offset="0.54" stop-color="#BB6DF3"/>
<stop offset="0.69" stop-color="#CA6DEA"/>
<stop offset="1" stop-color="#F36DD4"/>
</linearGradient>
<linearGradient id="paint59_linear_25_1058" x1="287.956" y1="350.681" x2="296.394" y2="350.681" gradientUnits="userSpaceOnUse">
<stop stop-color="#FF9E6E"/>
<stop offset="0.33" stop-color="#FFBC9B"/>
<stop offset="1" stop-color="white"/>
</linearGradient>
<linearGradient id="paint60_linear_25_1058" x1="280.286" y1="356.269" x2="285.199" y2="356.269" gradientUnits="userSpaceOnUse">
<stop offset="0.02" stop-color="#836DF3"/>
<stop offset="0.54" stop-color="#BB6DF3"/>
<stop offset="0.69" stop-color="#CA6DEA"/>
<stop offset="1" stop-color="#F36DD4"/>
</linearGradient>
<linearGradient id="paint61_linear_25_1058" x1="285.987" y1="356.345" x2="282.311" y2="356.345" gradientUnits="userSpaceOnUse">
<stop offset="0.02" stop-color="#836DF3"/>
<stop offset="0.54" stop-color="#BB6DF3"/>
<stop offset="0.69" stop-color="#CA6DEA"/>
<stop offset="1" stop-color="#F36DD4"/>
</linearGradient>
<linearGradient id="paint62_linear_25_1058" x1="289.606" y1="350.738" x2="294.518" y2="350.738" gradientUnits="userSpaceOnUse">
<stop offset="0.04" stop-color="#FF9E6E"/>
<stop offset="0.3" stop-color="#FFAD72"/>
<stop offset="0.82" stop-color="#FFD580"/>
<stop offset="1" stop-color="#FFE585"/>
</linearGradient>
<linearGradient id="paint63_linear_25_1058" x1="295.305" y1="350.813" x2="291.63" y2="350.813" gradientUnits="userSpaceOnUse">
<stop offset="0.04" stop-color="#FF9E6E"/>
<stop offset="0.3" stop-color="#FFAD72"/>
<stop offset="0.82" stop-color="#FFD580"/>
<stop offset="1" stop-color="#FFE585"/>
</linearGradient>
<radialGradient id="paint64_radial_25_1058" cx="0" cy="0" r="1" gradientUnits="userSpaceOnUse" gradientTransform="translate(284.087 337.68) rotate(156.46) scale(13.085 7.02121)">
<stop stop-color="#FFE4A7"/>
<stop offset="0.06" stop-color="#DCC490"/>
<stop offset="0.16" stop-color="#A8976E"/>
<stop offset="0.26" stop-color="#7B6E51"/>
<stop offset="0.37" stop-color="#554C38"/>
<stop offset="0.48" stop-color="#363023"/>
<stop offset="0.59" stop-color="#1E1B13"/>
<stop offset="0.71" stop-color="#0D0B08"/>
<stop offset="0.84" stop-color="#030202"/>
<stop offset="1"/>
</radialGradient>
<linearGradient id="paint65_linear_25_1058" x1="255.461" y1="280.102" x2="356.698" y2="249.781" gradientUnits="userSpaceOnUse">
<stop offset="0.04" stop-color="#E67A45"/>
<stop offset="0.33" stop-color="#EC894C"/>
<stop offset="0.89" stop-color="#FBB161"/>
<stop offset="1" stop-color="#FFBA66"/>
</linearGradient>
<linearGradient id="paint66_linear_25_1058" x1="222.683" y1="274.533" x2="350.36" y2="245.918" gradientUnits="userSpaceOnUse">
<stop offset="0.04" stop-color="#FF9E6E"/>
<stop offset="0.3" stop-color="#FFAD72"/>
<stop offset="0.82" stop-color="#FFD580"/>
<stop offset="1" stop-color="#FFE585"/>
</linearGradient>
<linearGradient id="paint67_linear_25_1058" x1="344.791" y1="152.275" x2="301.4" y2="235.005" gradientUnits="userSpaceOnUse">
<stop offset="0.04" stop-color="#FF9E6E"/>
<stop offset="0.3" stop-color="#FFAD72"/>
<stop offset="0.82" stop-color="#FFD580"/>
<stop offset="1" stop-color="#FFE585"/>
</linearGradient>
<linearGradient id="paint68_linear_25_1058" x1="342.466" y1="156.719" x2="301.1" y2="235.549" gradientUnits="userSpaceOnUse">
<stop stop-color="#AFB6E5"/>
<stop offset="0.14" stop-color="#B5BCE8"/>
<stop offset="0.35" stop-color="#C7CDF0"/>
<stop offset="0.58" stop-color="#E5E9FF"/>
<stop offset="0.86" stop-color="#F4F6FF"/>
<stop offset="1" stop-color="white"/>
</linearGradient>
<linearGradient id="paint69_linear_25_1058" x1="322.44" y1="245.037" x2="346.292" y2="237.893" gradientUnits="userSpaceOnUse">
<stop offset="0.04" stop-color="#E67A45"/>
<stop offset="0.33" stop-color="#EC894C"/>
<stop offset="0.89" stop-color="#FBB161"/>
<stop offset="1" stop-color="#FFBA66"/>
</linearGradient>
<linearGradient id="paint70_linear_25_1058" x1="316.608" y1="207.985" x2="305.076" y2="229.961" gradientUnits="userSpaceOnUse">
<stop offset="0.04" stop-color="#E67A45"/>
<stop offset="0.33" stop-color="#EC894C"/>
<stop offset="0.89" stop-color="#FBB161"/>
<stop offset="1" stop-color="#FFBA66"/>
</linearGradient>
<linearGradient id="paint71_linear_25_1058" x1="-2870.61" y1="2111.87" x2="-2853.51" y2="2111.37" gradientUnits="userSpaceOnUse">
<stop offset="0.04" stop-color="#E67A45"/>
<stop offset="0.33" stop-color="#EC894C"/>
<stop offset="0.89" stop-color="#FBB161"/>
<stop offset="1" stop-color="#FFBA66"/>
</linearGradient>
<linearGradient id="paint72_linear_25_1058" x1="-2863.16" y1="2107.57" x2="-2846.06" y2="2107.07" gradientUnits="userSpaceOnUse">
<stop offset="0.04" stop-color="#E67A45"/>
<stop offset="0.33" stop-color="#EC894C"/>
<stop offset="0.89" stop-color="#FBB161"/>
<stop offset="1" stop-color="#FFBA66"/>
</linearGradient>
<linearGradient id="paint73_linear_25_1058" x1="310.889" y1="290.04" x2="375.337" y2="270.745" gradientUnits="userSpaceOnUse">
<stop offset="0.04" stop-color="#E67A45"/>
<stop offset="0.33" stop-color="#EC894C"/>
<stop offset="0.89" stop-color="#FBB161"/>
<stop offset="1" stop-color="#FFBA66"/>
</linearGradient>
<linearGradient id="paint74_linear_25_1058" x1="290.019" y1="286.496" x2="371.306" y2="268.27" gradientUnits="userSpaceOnUse">
<stop offset="0.04" stop-color="#FF9E6E"/>
<stop offset="0.3" stop-color="#FFAD72"/>
<stop offset="0.82" stop-color="#FFD580"/>
<stop offset="1" stop-color="#FFE585"/>
</linearGradient>
<linearGradient id="paint75_linear_25_1058" x1="367.762" y1="208.66" x2="340.141" y2="261.332" gradientUnits="userSpaceOnUse">
<stop offset="0.04" stop-color="#FF9E6E"/>
<stop offset="0.3" stop-color="#FFAD72"/>
<stop offset="0.82" stop-color="#FFD580"/>
<stop offset="1" stop-color="#FFE585"/>
</linearGradient>
<linearGradient id="paint76_linear_25_1058" x1="366.299" y1="211.472" x2="339.954" y2="261.688" gradientUnits="userSpaceOnUse">
<stop stop-color="#AFB6E5"/>
<stop offset="0.14" stop-color="#B5BCE8"/>
<stop offset="0.35" stop-color="#C7CDF0"/>
<stop offset="0.58" stop-color="#E5E9FF"/>
<stop offset="0.86" stop-color="#F4F6FF"/>
<stop offset="1" stop-color="white"/>
</linearGradient>
<linearGradient id="paint77_linear_25_1058" x1="353.529" y1="267.707" x2="368.718" y2="263.17" gradientUnits="userSpaceOnUse">
<stop offset="0.04" stop-color="#E67A45"/>
<stop offset="0.33" stop-color="#EC894C"/>
<stop offset="0.89" stop-color="#FBB161"/>
<stop offset="1" stop-color="#FFBA66"/>
</linearGradient>
<linearGradient id="paint78_linear_25_1058" x1="349.817" y1="244.118" x2="342.485" y2="258.107" gradientUnits="userSpaceOnUse">
<stop offset="0.04" stop-color="#E67A45"/>
<stop offset="0.33" stop-color="#EC894C"/>
<stop offset="0.89" stop-color="#FBB161"/>
<stop offset="1" stop-color="#FFBA66"/>
</linearGradient>
<linearGradient id="paint79_linear_25_1058" x1="-2821.16" y1="2115.42" x2="-2810.26" y2="2115.1" gradientUnits="userSpaceOnUse">
<stop offset="0.04" stop-color="#E67A45"/>
<stop offset="0.33" stop-color="#EC894C"/>
<stop offset="0.89" stop-color="#FBB161"/>
<stop offset="1" stop-color="#FFBA66"/>
</linearGradient>
<linearGradient id="paint80_linear_25_1058" x1="-2816.42" y1="2112.68" x2="-2805.52" y2="2112.36" gradientUnits="userSpaceOnUse">
<stop offset="0.04" stop-color="#E67A45"/>
<stop offset="0.33" stop-color="#EC894C"/>
<stop offset="0.89" stop-color="#FBB161"/>
<stop offset="1" stop-color="#FFBA66"/>
</linearGradient>
</defs>
</svg>
