<svg width="384" height="375" viewBox="0 0 384 375" fill="none" xmlns="http://www.w3.org/2000/svg">
<path d="M271.599 277.496C317.35 231.744 317.35 157.567 271.599 111.815C225.848 66.0641 151.67 66.0641 105.919 111.815C60.1676 157.567 60.1676 231.744 105.919 277.496C151.67 323.247 225.848 323.247 271.599 277.496Z" fill="#D11F1F"/>
<path d="M188.759 312.372C123.851 312.372 71.0411 259.563 71.0411 194.654C71.0411 129.746 123.851 76.9365 188.759 76.9365C253.667 76.9365 306.477 129.746 306.477 194.654C306.477 259.563 253.667 312.372 188.759 312.372ZM188.759 78.0649C124.472 78.0649 72.1695 130.368 72.1695 194.654C72.1695 258.941 124.472 311.244 188.759 311.244C253.046 311.244 305.348 258.941 305.348 194.654C305.348 130.368 253.046 78.0649 188.759 78.0649Z" fill="black"/>
<path d="M189.501 138.627C189.307 138.627 189.125 138.528 189.02 138.36C188.916 138.193 188.91 137.989 188.994 137.812C189.078 137.65 189.229 137.535 189.407 137.509C189.595 137.478 189.767 137.54 189.898 137.666C190.06 137.828 190.107 138.068 190.018 138.282C189.929 138.491 189.725 138.632 189.501 138.632V138.627Z" fill="black"/>
<path d="M110.414 169.725L189.501 201.383V138.068L110.414 169.725Z" fill="#F39B56"/>
<path d="M189.501 201.947C189.433 201.947 189.36 201.931 189.292 201.905L110.206 170.248C109.991 170.164 109.85 169.955 109.85 169.725C109.85 169.495 109.991 169.287 110.206 169.203L189.292 137.545C189.464 137.472 189.663 137.498 189.814 137.603C189.971 137.707 190.06 137.88 190.06 138.068V201.383C190.06 201.571 189.966 201.743 189.814 201.848C189.72 201.91 189.61 201.947 189.501 201.947ZM111.935 169.725L188.942 200.552V138.898L111.935 169.725Z" fill="black"/>
<path d="M189.501 201.383L268.582 169.725L189.501 138.068V201.383Z" fill="#F39B56"/>
<path d="M189.501 201.947C189.391 201.947 189.281 201.916 189.187 201.848C189.03 201.743 188.942 201.566 188.942 201.383V138.068C188.942 137.88 189.036 137.707 189.187 137.603C189.344 137.498 189.537 137.478 189.71 137.545L268.796 169.203C269.01 169.287 269.151 169.495 269.151 169.725C269.151 169.955 269.01 170.164 268.796 170.248L189.71 201.905C189.642 201.931 189.569 201.947 189.501 201.947ZM190.065 138.898V200.552L267.072 169.725L190.065 138.898Z" fill="black"/>
<path d="M110.414 169.725L189.501 201.383L110.414 169.725Z" fill="#FFB966"/>
<path d="M189.501 201.947C189.433 201.947 189.36 201.931 189.292 201.905L110.206 170.248C109.986 170.159 109.85 169.95 109.85 169.725C109.85 169.657 109.866 169.584 109.892 169.516C110.007 169.229 110.336 169.088 110.623 169.203L189.71 200.86C189.929 200.949 190.065 201.158 190.065 201.383C190.065 201.451 190.055 201.524 190.023 201.592C189.934 201.811 189.725 201.947 189.501 201.947Z" fill="black"/>
<path d="M168.85 228.678L110.414 205.29V246.826L189.501 278.484V201.383L168.85 228.678Z" fill="#FFB966"/>
<path d="M189.501 279.048C189.433 279.048 189.36 279.032 189.292 279.006L110.206 247.349C109.991 247.265 109.85 247.056 109.85 246.826V205.29C109.85 205.102 109.944 204.93 110.096 204.825C110.247 204.721 110.446 204.7 110.618 204.768L168.652 227.999L189.046 201.043C189.193 200.85 189.443 200.772 189.673 200.85C189.903 200.928 190.055 201.142 190.055 201.383V278.484C190.055 278.672 189.96 278.844 189.809 278.949C189.715 279.012 189.605 279.048 189.496 279.048H189.501ZM110.979 246.445L188.937 277.653V203.06L169.3 229.018C169.148 229.222 168.876 229.295 168.641 229.201L110.979 206.121V246.445Z" fill="black"/>
<path d="M189.501 201.383L110.415 169.725L89.764 197.021L110.415 205.29L168.85 228.678L189.501 201.383Z" fill="#FFB966"/>
<path d="M168.85 229.242C168.782 229.242 168.709 229.227 168.641 229.201L89.5551 197.543C89.3931 197.48 89.2678 197.339 89.2207 197.172C89.1737 197.005 89.2051 196.822 89.3148 196.681L109.965 169.386C110.117 169.182 110.388 169.109 110.623 169.203L189.71 200.86C189.872 200.923 189.997 201.064 190.044 201.231C190.091 201.398 190.06 201.581 189.95 201.722L169.3 229.018C169.19 229.164 169.023 229.242 168.85 229.242ZM90.6573 196.775L168.657 227.999L188.602 201.634L110.603 170.41L90.6521 196.775H90.6573Z" fill="black"/>
<path d="M189.501 201.383L268.587 169.725H268.582L189.501 201.383V278.484L268.587 246.826V205.29L210.151 228.678L189.501 201.383Z" fill="#FFB966"/>
<path d="M189.501 279.048C189.391 279.048 189.281 279.017 189.187 278.949C189.03 278.844 188.942 278.672 188.942 278.484V201.383C188.942 201.153 189.083 200.944 189.297 200.86L268.378 169.203C268.665 169.083 268.994 169.229 269.109 169.516C269.224 169.804 269.083 170.133 268.796 170.248L190.394 201.634L210.339 227.999L268.373 204.768C268.545 204.695 268.744 204.721 268.895 204.825C269.052 204.93 269.141 205.102 269.141 205.29V246.826C269.141 247.056 269 247.265 268.785 247.349L189.699 279.006C189.631 279.032 189.558 279.048 189.49 279.048H189.501ZM190.065 203.06V277.653L268.023 246.445V206.121L210.36 229.201C210.125 229.295 209.853 229.222 209.702 229.018L190.06 203.06H190.065Z" fill="black"/>
<path d="M110.414 169.725L189.501 138.068L160.288 139.473V139.468L81.2018 171.131L110.414 169.725Z" fill="#FFB966"/>
<path d="M81.2019 171.69C80.9355 171.69 80.7056 171.507 80.6534 171.246C80.5959 170.979 80.7369 170.707 80.9929 170.603L160.079 138.945C160.137 138.925 160.199 138.909 160.262 138.904L189.475 137.498C189.788 137.467 189.992 137.671 190.054 137.942C190.112 138.209 189.971 138.481 189.715 138.585L110.629 170.242C110.571 170.263 110.509 170.279 110.446 170.284L81.2332 171.69C81.2332 171.69 81.2123 171.69 81.2071 171.69H81.2019ZM160.408 140.027L84.5244 170.404L110.294 169.166L186.178 138.789L160.408 140.027Z" fill="black"/>
<path d="M110.414 170.29C110.19 170.29 109.981 170.154 109.892 169.934C109.777 169.647 109.918 169.318 110.206 169.203L189.287 137.545C189.574 137.431 189.903 137.572 190.018 137.859C190.133 138.146 189.992 138.475 189.704 138.59L110.618 170.248C110.55 170.274 110.477 170.29 110.409 170.29H110.414Z" fill="black"/>
<path d="M189.5 201.383L210.151 228.678L268.587 205.29L289.237 197.021L268.587 169.725L189.5 201.383Z" fill="#FFB966"/>
<path d="M210.151 229.242C209.979 229.242 209.812 229.164 209.702 229.018L189.051 201.722C188.947 201.581 188.91 201.398 188.957 201.231C189.004 201.064 189.13 200.923 189.292 200.86L268.378 169.203C268.613 169.109 268.879 169.182 269.036 169.386L289.687 196.681C289.791 196.822 289.828 197 289.781 197.172C289.734 197.339 289.613 197.48 289.446 197.543L210.36 229.201C210.292 229.227 210.219 229.242 210.151 229.242ZM190.394 201.628L210.339 227.994L288.339 196.77L268.394 170.404L190.394 201.628Z" fill="black"/>
<path d="M268.587 169.725L297.8 171.131L218.713 139.468V139.473L189.501 138.068L268.582 169.725H268.587Z" fill="#FFB966"/>
<path d="M297.8 171.69C297.8 171.69 297.784 171.69 297.773 171.69L268.561 170.284C268.498 170.284 268.435 170.269 268.378 170.242L189.292 138.585C189.036 138.481 188.895 138.209 188.952 137.942C189.01 137.676 189.24 137.467 189.532 137.498L218.698 138.904C218.781 138.893 218.849 138.914 218.928 138.945L298.014 170.603C298.27 170.707 298.411 170.979 298.353 171.245C298.296 171.507 298.066 171.69 297.805 171.69H297.8ZM268.707 169.166L294.477 170.404L218.598 140.032L192.823 138.789L268.702 169.166H268.707Z" fill="black"/>
<path d="M189.501 138.068L268.582 169.725L189.501 138.068Z" fill="#FFB966"/>
<path d="M268.582 170.29C268.514 170.29 268.441 170.274 268.373 170.248L189.292 138.59C189.004 138.475 188.863 138.146 188.978 137.859C189.067 137.639 189.276 137.504 189.501 137.504C189.569 137.504 189.642 137.519 189.71 137.545L268.791 169.203C269.078 169.318 269.219 169.647 269.104 169.934C269.015 170.154 268.806 170.29 268.582 170.29Z" fill="black"/>
<path d="M227.756 102.555L227.714 102.545C230.143 97.2318 231.528 91.3443 231.528 85.1225C231.528 61.9123 212.711 43.0954 189.501 43.0954C166.29 43.0954 147.474 61.907 147.474 85.1225C147.474 91.3443 148.863 97.2318 151.292 102.545L151.25 102.555L151.726 103.448C152.196 104.42 152.698 105.371 153.246 106.295L189.501 174.39L225.755 106.295C226.304 105.366 226.805 104.415 227.281 103.443L227.751 102.55L227.756 102.555Z" fill="white"/>
<path d="M189.501 174.955C189.292 174.955 189.104 174.84 189.004 174.657L152.75 106.562C152.222 105.663 151.705 104.692 151.224 103.694L150.759 102.816C150.718 102.743 150.697 102.66 150.691 102.576C148.189 97.0228 146.915 91.151 146.915 85.1173C146.915 61.6354 166.019 42.5312 189.506 42.5312C212.993 42.5312 232.092 61.6354 232.092 85.1173C232.092 91.1563 230.817 97.0385 228.31 102.597C228.31 102.675 228.294 102.748 228.258 102.816L227.787 103.71C227.281 104.744 226.774 105.689 226.246 106.588L190.007 174.662C189.908 174.845 189.72 174.96 189.511 174.96L189.501 174.955ZM151.851 102.482L152.222 103.182C152.703 104.174 153.204 105.12 153.727 106.008L189.495 173.189L225.249 106.029C225.776 105.136 226.267 104.216 226.769 103.192L227.15 102.471C227.15 102.414 227.166 102.362 227.192 102.304C229.689 96.84 230.958 91.057 230.958 85.1121C230.958 62.2518 212.361 43.6492 189.495 43.6492C166.63 43.6492 148.032 62.2466 148.032 85.1121C148.032 91.0518 149.302 96.8348 151.799 102.304C151.825 102.362 151.841 102.419 151.846 102.477L151.851 102.482Z" fill="black"/>
<path d="M211.509 84.6419C211.509 96.7982 201.652 106.651 189.501 106.651C177.35 106.651 167.492 96.793 167.492 84.6419C167.492 72.4909 177.344 62.6332 189.501 62.6332C201.657 62.6332 211.509 72.4857 211.509 84.6419Z" fill="#D11F1F"/>
<path d="M189.501 107.22C177.052 107.22 166.928 97.096 166.928 84.6471C166.928 72.1983 177.052 62.0742 189.501 62.0742C201.949 62.0742 212.074 72.1983 212.074 84.6471C212.074 97.096 201.949 107.22 189.501 107.22ZM189.501 63.1974C177.674 63.1974 168.056 72.82 168.056 84.6419C168.056 96.4638 177.679 106.086 189.501 106.086C201.323 106.086 210.945 96.4638 210.945 84.6419C210.945 72.82 201.323 63.1974 189.501 63.1974Z" fill="black"/>
<path d="M353.775 24.5502H254.738V108.223H353.775V24.5502Z" fill="white"/>
<path d="M353.78 108.787H254.743C254.43 108.787 254.179 108.537 254.179 108.223V24.5502C254.179 24.2367 254.43 23.986 254.743 23.986H353.78C354.093 23.986 354.344 24.2367 354.344 24.5502V108.223C354.344 108.537 354.093 108.787 353.78 108.787ZM255.302 107.659H353.216V25.1144H255.302V107.664V107.659Z" fill="black"/>
<path d="M320.435 55.283L312.348 59.4361L304.262 54.9904L296.175 59.4361L288.083 55.283V24.5502H320.435V55.283Z" fill="white"/>
<path d="M296.175 60.0003C296.086 60.0003 295.997 59.9794 295.919 59.9376L287.827 55.7845C287.639 55.6905 287.524 55.4972 287.524 55.283V24.5502C287.524 24.2367 287.775 23.986 288.088 23.986H320.445C320.759 23.986 321.01 24.2367 321.01 24.5502V55.2778C321.01 55.4867 320.89 55.68 320.707 55.7793L312.62 59.9324C312.453 60.0212 312.254 60.016 312.092 59.9272L304.277 55.6278L296.457 59.9272C296.373 59.9742 296.279 59.9951 296.185 59.9951L296.175 60.0003ZM288.647 54.9382L296.17 58.7988L303.995 54.4994C304.162 54.4054 304.371 54.4054 304.538 54.4994L312.364 58.7988L319.876 54.9382V25.1144H288.647V54.9382Z" fill="black"/>
<path d="M301.717 73.6611H268.064V92.5772H301.717V73.6611Z" fill="white"/>
<path d="M301.712 93.1466H268.059C267.746 93.1466 267.495 92.8959 267.495 92.5824V73.6663C267.495 73.3529 267.746 73.1021 268.059 73.1021H301.712C302.026 73.1021 302.276 73.3529 302.276 73.6663V92.5824C302.276 92.8959 302.026 93.1466 301.712 93.1466ZM268.623 92.0182H301.148V74.2253H268.623V92.0182Z" fill="black"/>
<path d="M295.255 80.259H274.521C274.208 80.259 273.957 80.0082 273.957 79.6948C273.957 79.3813 274.208 79.1306 274.521 79.1306H295.255C295.569 79.1306 295.82 79.3813 295.82 79.6948C295.82 80.0082 295.569 80.259 295.255 80.259Z" fill="black"/>
<path d="M295.255 87.1129H274.521C274.208 87.1129 273.957 86.8621 273.957 86.5487C273.957 86.2353 274.208 85.9845 274.521 85.9845H295.255C295.569 85.9845 295.82 86.2353 295.82 86.5487C295.82 86.8621 295.569 87.1129 295.255 87.1129Z" fill="black"/>
<path d="M365.685 89.0562C365.685 77.0462 355.953 67.3087 343.938 67.3087C331.928 67.3087 322.19 77.0462 322.195 89.0562C322.195 101.066 331.928 110.804 343.938 110.804C355.948 110.804 365.685 101.071 365.685 89.0562Z" fill="white"/>
<path d="M343.943 111.368C331.646 111.368 321.636 101.359 321.636 89.0614C321.636 83.1008 323.951 77.5007 328.166 73.2849C332.382 69.0692 337.982 66.7497 343.943 66.7497C356.246 66.7497 366.25 76.7589 366.25 89.0614C366.25 95.022 363.93 100.622 359.714 104.838C355.498 109.048 349.898 111.373 343.943 111.373V111.368ZM343.943 67.8729C338.285 67.8729 332.967 70.0774 328.966 74.079C324.964 78.0806 322.765 83.3986 322.765 89.0562C322.765 100.737 332.267 110.24 343.943 110.24C349.601 110.24 354.919 108.035 358.92 104.033C362.922 100.032 365.121 94.7138 365.121 89.0562C365.121 77.3805 355.619 67.8729 343.938 67.8729H343.943Z" fill="black"/>
<path d="M343.938 119.481C342.428 119.481 340.939 119.371 339.492 119.157V138.689C340.761 137.822 342.292 137.321 343.943 137.321C345.588 137.321 347.124 137.828 348.389 138.689V119.157C346.936 119.371 345.453 119.486 343.938 119.481Z" fill="white"/>
<path d="M339.492 139.248C339.403 139.248 339.309 139.228 339.231 139.186C339.048 139.086 338.928 138.898 338.928 138.689V119.157C338.928 118.995 339.001 118.838 339.126 118.729C339.252 118.624 339.419 118.582 339.576 118.598C342.496 119.026 345.463 119.016 348.305 118.598C348.467 118.582 348.629 118.624 348.754 118.729C348.88 118.833 348.948 118.99 348.948 119.152V138.528C348.963 138.58 348.969 138.632 348.969 138.684C348.969 138.998 348.718 139.248 348.404 139.248C348.404 139.248 348.389 139.248 348.383 139.248C348.274 139.248 348.159 139.217 348.065 139.149C346.848 138.319 345.421 137.88 343.933 137.875C342.454 137.875 341.023 138.313 339.8 139.149C339.706 139.212 339.597 139.248 339.482 139.248H339.492ZM340.056 119.799V137.692C341.253 137.07 342.58 136.751 343.943 136.751C345.312 136.751 346.633 137.075 347.824 137.692V119.799C345.212 120.129 342.59 120.118 340.056 119.799Z" fill="black"/>
<path d="M343.938 58.6368C327.137 58.6368 313.513 72.2558 313.513 89.0562C313.513 104.347 324.797 116.999 339.492 119.152C340.944 119.366 342.428 119.481 343.938 119.476C345.453 119.476 346.936 119.366 348.383 119.152C363.079 116.994 374.357 104.347 374.357 89.0562C374.357 72.2506 360.738 58.6316 343.933 58.6368H343.938ZM343.938 110.804C331.928 110.804 322.195 101.071 322.195 89.0562C322.195 77.0462 331.928 67.3087 343.938 67.3087C355.948 67.3087 365.685 77.0462 365.685 89.0562C365.685 101.066 355.953 110.804 343.938 110.804Z" fill="white"/>
<path d="M343.959 120.04H343.938C342.418 120.04 340.903 119.93 339.409 119.711C324.327 117.501 312.954 104.321 312.949 89.0562C312.949 71.9737 326.845 58.0726 343.927 58.0726C352.213 58.0726 359.991 61.2958 365.847 67.1467C371.698 72.9976 374.921 80.7814 374.921 89.0562C374.921 104.321 363.549 117.496 348.467 119.711C346.973 119.93 345.453 120.04 343.959 120.04ZM343.938 59.1958C327.466 59.1958 314.072 72.5901 314.072 89.051C314.072 103.762 325.037 116.461 339.565 118.593C341.007 118.807 342.47 118.911 343.912 118.911H343.953C345.395 118.911 346.858 118.802 348.295 118.593C362.828 116.461 373.788 103.762 373.788 89.0562C373.788 81.0792 370.685 73.5827 365.043 67.9408C359.406 62.3041 351.904 59.1958 343.933 59.1958H343.938ZM343.938 111.363C331.635 111.363 321.631 101.354 321.631 89.0562C321.631 83.0956 323.946 77.4955 328.161 73.2797C332.377 69.0639 337.977 66.7445 343.938 66.7445C356.24 66.7445 366.244 76.7537 366.244 89.0562C366.244 101.359 356.24 111.368 343.938 111.368V111.363ZM343.938 67.8676C338.28 67.8676 332.962 70.0722 328.961 74.0738C324.959 78.0754 322.76 83.3934 322.76 89.051C322.76 100.732 332.262 110.234 343.938 110.234C349.595 110.234 354.919 108.03 358.915 104.028C362.917 100.027 365.116 94.7086 365.116 89.051C365.116 77.3753 355.613 67.8676 343.933 67.8676H343.938Z" fill="black"/>
<path d="M348.389 138.684C347.125 137.817 345.589 137.316 343.943 137.316C342.292 137.316 340.762 137.822 339.492 138.684C337.403 140.11 336.034 142.503 336.034 145.22V172.797C336.034 177.164 339.576 180.706 343.943 180.706C348.31 180.706 351.852 177.164 351.852 172.797V145.22C351.852 142.503 350.478 140.105 348.394 138.684H348.389Z" fill="white"/>
<path d="M343.938 181.27C339.267 181.27 335.47 177.473 335.47 172.802V145.225C335.47 142.425 336.854 139.807 339.173 138.225C340.584 137.263 342.235 136.757 343.943 136.757C345.656 136.757 347.302 137.269 348.707 138.225C351.027 139.802 352.411 142.419 352.411 145.225V172.802C352.411 177.473 348.608 181.276 343.938 181.276V181.27ZM343.938 137.88C342.459 137.88 341.028 138.319 339.806 139.154C337.794 140.528 336.593 142.796 336.593 145.225V172.802C336.593 176.851 339.889 180.147 343.938 180.147C347.986 180.147 351.283 176.851 351.283 172.802V145.225C351.283 142.79 350.081 140.523 348.07 139.154C346.853 138.324 345.427 137.885 343.938 137.88Z" fill="black"/>
<path d="M344.528 108.458C344.382 108.458 344.241 108.401 344.131 108.291C343.912 108.072 343.912 107.716 344.131 107.497L356.267 95.3616C356.486 95.1422 356.841 95.1422 357.061 95.3616C357.28 95.581 357.28 95.9362 357.061 96.1557L344.925 108.291C344.816 108.401 344.669 108.458 344.528 108.458Z" fill="black"/>
<path d="M333.26 106.416C333.114 106.416 332.973 106.358 332.863 106.248C332.644 106.029 332.644 105.674 332.863 105.454L354.224 84.0934C354.444 83.874 354.799 83.874 355.023 84.0934C355.243 84.3128 355.243 84.6681 355.023 84.8875L333.662 106.248C333.553 106.358 333.406 106.416 333.265 106.416H333.26Z" fill="black"/>
<path d="M331.291 95.0795C331.144 95.0795 331.003 95.0273 330.894 94.9123C330.674 94.6929 330.674 94.3377 330.894 94.1183L342.888 82.124C343.107 81.9046 343.463 81.9046 343.682 82.124C343.901 82.3434 343.901 82.6986 343.682 82.918L331.688 94.9123C331.578 95.022 331.432 95.0795 331.291 95.0795Z" fill="black"/>
<path d="M146.021 256.496H38.4487V338.544H73.204C73.204 331.492 78.9191 325.777 85.9715 325.777C93.0239 325.777 98.739 331.492 98.739 338.544H146.027V256.496H146.021Z" fill="white"/>
<path d="M146.021 339.108H98.7336C98.4202 339.108 98.1694 338.858 98.1694 338.544C98.1694 331.816 92.6947 326.341 85.9662 326.341C79.2376 326.341 73.7629 331.816 73.7629 338.544C73.7629 338.858 73.5121 339.108 73.1987 339.108H38.4486C38.1352 339.108 37.8844 338.858 37.8844 338.544V256.496C37.8844 256.183 38.1352 255.932 38.4486 255.932H146.027C146.34 255.932 146.591 256.183 146.591 256.496V338.544C146.591 338.858 146.34 339.108 146.027 339.108H146.021ZM99.2874 337.98H145.457V257.06H39.0128V337.98H72.6554C72.9532 330.891 78.8145 325.213 85.9766 325.213C93.1387 325.213 99.0001 330.891 99.2926 337.98H99.2874Z" fill="black"/>
<path d="M193.523 310.758H181.696V298.842C181.696 296.47 181.079 294.245 180.009 292.312C177.705 288.148 173.275 285.327 168.176 285.327H146.021V338.544H171.326C171.326 331.492 177.041 325.777 184.094 325.777C191.146 325.777 196.861 331.492 196.861 338.544H207.038V324.278C207.038 316.812 200.983 310.758 193.518 310.758H193.523ZM176.153 310.664H155.315V290.557H168.834C172.878 290.557 176.153 293.832 176.153 297.875V310.664Z" fill="white"/>
<path d="M207.043 339.108H196.866C196.553 339.108 196.302 338.858 196.302 338.544C196.302 331.816 190.828 326.341 184.099 326.341C177.371 326.341 171.896 331.816 171.896 338.544C171.896 338.858 171.645 339.108 171.332 339.108H146.026C145.713 339.108 145.462 338.858 145.462 338.544V285.327C145.462 285.014 145.713 284.763 146.026 284.763H168.181C173.301 284.763 178.024 287.553 180.505 292.04C181.654 294.114 182.265 296.465 182.265 298.847V310.199H193.528C201.291 310.199 207.607 316.515 207.607 324.278V338.544C207.607 338.858 207.356 339.108 207.043 339.108ZM197.415 337.98H206.479V324.278C206.479 317.136 200.67 311.322 193.523 311.322H181.696C181.383 311.322 181.132 311.071 181.132 310.758V298.842C181.132 296.653 180.573 294.49 179.512 292.583C177.229 288.451 172.883 285.886 168.176 285.886H146.585V337.975H170.778C171.076 330.886 176.937 325.207 184.094 325.207C191.251 325.207 197.117 330.886 197.41 337.975L197.415 337.98ZM176.159 311.228H155.32C155.007 311.228 154.756 310.977 154.756 310.664V290.557C154.756 290.243 155.007 289.992 155.32 289.992H168.84C173.186 289.992 176.723 293.529 176.723 297.875V310.664C176.723 310.977 176.472 311.228 176.159 311.228ZM155.884 310.1H175.6V297.875C175.6 294.151 172.57 291.121 168.845 291.121H155.889V310.1H155.884Z" fill="black"/>
<path d="M184.099 325.777C177.047 325.777 171.332 331.492 171.332 338.544C171.332 345.597 177.047 351.312 184.099 351.312C191.152 351.312 196.867 345.597 196.867 338.544C196.867 331.492 191.152 325.777 184.099 325.777Z" fill="white"/>
<path d="M184.099 351.876C176.749 351.876 170.767 345.894 170.767 338.544C170.767 331.194 176.749 325.213 184.099 325.213C191.449 325.213 197.431 331.194 197.431 338.544C197.431 345.894 191.449 351.876 184.099 351.876ZM184.099 326.341C177.371 326.341 171.896 331.816 171.896 338.544C171.896 345.273 177.371 350.748 184.099 350.748C190.828 350.748 196.302 345.273 196.302 338.544C196.302 331.816 190.828 326.341 184.099 326.341Z" fill="black"/>
<path d="M85.9713 325.777C78.9189 325.777 73.2039 331.492 73.2039 338.544C73.2039 345.597 78.9189 351.312 85.9713 351.312C93.0237 351.312 98.7388 345.597 98.7388 338.544C98.7388 331.492 93.0237 325.777 85.9713 325.777Z" fill="white"/>
<path d="M85.9713 351.876C78.6211 351.876 72.6396 345.894 72.6396 338.544C72.6396 331.194 78.6211 325.213 85.9713 325.213C93.3215 325.213 99.303 331.194 99.303 338.544C99.303 345.894 93.3215 351.876 85.9713 351.876ZM85.9713 326.341C79.2428 326.341 73.768 331.816 73.768 338.544C73.768 345.273 79.2428 350.748 85.9713 350.748C92.6998 350.748 98.1746 345.273 98.1746 338.544C98.1746 331.816 92.6998 326.341 85.9713 326.341Z" fill="black"/>
<path d="M168.835 290.557H155.315V310.664H176.153V297.875C176.153 293.832 172.878 290.557 168.835 290.557Z" fill="white"/>
<path d="M176.159 311.228H155.32C155.007 311.228 154.756 310.977 154.756 310.664V290.557C154.756 290.243 155.007 289.992 155.32 289.992H168.84C173.186 289.992 176.723 293.529 176.723 297.875V310.664C176.723 310.977 176.472 311.228 176.159 311.228ZM155.884 310.1H175.6V297.875C175.6 294.151 172.57 291.121 168.845 291.121H155.889V310.1H155.884Z" fill="black"/>
<path d="M114.604 288.101H15.5674V371.774H114.604V288.101Z" fill="white"/>
<path d="M114.609 372.338H15.5674C15.2539 372.338 15.0032 372.088 15.0032 371.774V288.101C15.0032 287.788 15.2539 287.537 15.5674 287.537H114.609C114.923 287.537 115.173 287.788 115.173 288.101V371.774C115.173 372.088 114.923 372.338 114.609 372.338ZM16.1316 371.21H114.045V288.66H16.1316V371.21Z" fill="black"/>
<path d="M81.2646 318.829L73.1779 322.987L65.0911 318.542L57.0043 322.987L48.9124 318.829V288.101H81.2646V318.829Z" fill="white"/>
<path d="M57.0042 323.546C56.9154 323.546 56.8266 323.525 56.7482 323.483L48.6562 319.33C48.4682 319.231 48.348 319.038 48.348 318.829V288.096C48.348 287.783 48.5988 287.532 48.9122 287.532H81.2697C81.5832 287.532 81.8339 287.783 81.8339 288.096V318.829C81.8339 319.038 81.7137 319.231 81.5257 319.33L73.4389 323.483C73.2718 323.572 73.0732 323.567 72.9113 323.478L65.0962 319.184L57.2811 323.478C57.1975 323.525 57.1035 323.546 57.0094 323.546H57.0042ZM49.4764 318.484L56.999 322.345L64.8245 318.045C64.9917 317.951 65.2007 317.951 65.3678 318.045L73.1934 322.345L80.7107 318.484V288.66H49.4816V318.484H49.4764Z" fill="black"/>
<path d="M62.5416 337.212H28.8938V356.134H62.5416V337.212Z" fill="white"/>
<path d="M62.5417 356.698H28.8939C28.5805 356.698 28.3297 356.447 28.3297 356.134V337.212C28.3297 336.899 28.5805 336.648 28.8939 336.648H62.5417C62.8552 336.648 63.1059 336.899 63.1059 337.212V356.134C63.1059 356.447 62.8552 356.698 62.5417 356.698ZM29.4529 355.569H61.9775V337.776H29.4529V355.569Z" fill="black"/>
<path d="M56.0848 343.81H35.3507C35.0373 343.81 34.7865 343.559 34.7865 343.246C34.7865 342.932 35.0373 342.682 35.3507 342.682H56.0848C56.3982 342.682 56.649 342.932 56.649 343.246C56.649 343.559 56.3982 343.81 56.0848 343.81Z" fill="black"/>
<path d="M56.0848 350.659H35.3507C35.0373 350.659 34.7865 350.408 34.7865 350.095C34.7865 349.781 35.0373 349.53 35.3507 349.53H56.0848C56.3982 349.53 56.649 349.781 56.649 350.095C56.649 350.408 56.3982 350.659 56.0848 350.659Z" fill="black"/>
<path d="M38.4486 257.06H18.0593C17.7459 257.06 17.4951 256.809 17.4951 256.496C17.4951 256.183 17.7459 255.932 18.0593 255.932H38.4434C38.7568 255.932 39.0076 256.183 39.0076 256.496C39.0076 256.809 38.7568 257.06 38.4434 257.06H38.4486Z" fill="black"/>
<path d="M74.0084 266.568H27.0707C26.7572 266.568 26.5065 266.317 26.5065 266.004C26.5065 265.69 26.7572 265.44 27.0707 265.44H74.0084C74.3218 265.44 74.5725 265.69 74.5725 266.004C74.5725 266.317 74.3218 266.568 74.0084 266.568Z" fill="black"/>
<path d="M10.7561 257.06H0.564071C0.25063 257.06 -0.00012207 256.809 -0.00012207 256.496C-0.00012207 256.183 0.25063 255.932 0.564071 255.932H10.7561C11.0695 255.932 11.3203 256.183 11.3203 256.496C11.3203 256.809 11.0695 257.06 10.7561 257.06Z" fill="black"/>
<path d="M57.161 280.694H19.2242C18.9108 280.694 18.66 280.443 18.66 280.129C18.66 279.816 18.9108 279.565 19.2242 279.565H57.161C57.4744 279.565 57.7252 279.816 57.7252 280.129C57.7252 280.443 57.4744 280.694 57.161 280.694Z" fill="black"/>
<path d="M11.9158 280.694H1.72374C1.4103 280.694 1.15955 280.443 1.15955 280.129C1.15955 279.816 1.4103 279.565 1.72374 279.565H11.9158C12.2292 279.565 12.48 279.816 12.48 280.129C12.48 280.443 12.2292 280.694 11.9158 280.694Z" fill="black"/>
<path d="M20.666 266.568H10.474C10.1605 266.568 9.90979 266.317 9.90979 266.004C9.90979 265.69 10.1605 265.44 10.474 265.44H20.666C20.9795 265.44 21.2302 265.69 21.2302 266.004C21.2302 266.317 20.9795 266.568 20.666 266.568Z" fill="black"/>
<path d="M184.099 345.325C180.359 345.325 177.318 342.285 177.318 338.544C177.318 334.804 180.359 331.764 184.099 331.764C187.84 331.764 190.88 334.804 190.88 338.544C190.88 342.285 187.84 345.325 184.099 345.325ZM184.099 332.892C180.98 332.892 178.447 335.431 178.447 338.544C178.447 341.658 180.986 344.197 184.099 344.197C187.213 344.197 189.752 341.658 189.752 338.544C189.752 335.431 187.218 332.892 184.099 332.892Z" fill="black"/>
<path d="M108.294 52.9165V69.7065C108.184 69.5707 108.09 69.4296 107.965 69.3043C106.277 67.6169 103.54 67.6169 101.847 69.3043L92.6844 78.4672L91.0858 78.2634C91.0858 78.2634 88.5261 77.9082 86.4208 79.7575L81.5468 84.5636C81.5468 84.5636 79.0079 87.092 79.0079 89.9861V102.633H97.3442V98.2087L112.301 84.386C112.301 84.386 116.166 80.9224 116.166 77.1246V45.2791C116.166 45.2791 108.288 45.3731 108.288 52.9165H108.294Z" fill="white"/>
<path d="M97.3493 103.192H79.013C78.6996 103.192 78.4489 102.942 78.4489 102.628V89.9809C78.4489 86.8883 81.0452 84.271 81.1549 84.1613L86.0341 79.3553C88.3431 77.3179 91.1693 77.7045 91.1693 77.7045L92.4858 77.8716L101.45 68.9072C102.37 67.9826 103.597 67.4759 104.903 67.4759C105.927 67.4759 106.909 67.7893 107.729 68.3744V52.9166C107.729 44.9082 116.077 44.7149 116.161 44.7149C116.286 44.7253 116.454 44.7723 116.563 44.8768C116.668 44.9813 116.73 45.1276 116.73 45.2791V77.1246C116.73 81.1262 112.838 84.6576 112.677 84.8039L97.9083 98.4542V102.633C97.9083 102.947 97.6575 103.198 97.3441 103.198L97.3493 103.192ZM79.572 102.064H96.7851V98.1982C96.7851 98.0415 96.853 97.89 96.968 97.7856L111.924 83.9628C111.966 83.9263 115.612 80.609 115.612 77.1142V45.8746C113.878 46.0574 108.863 47.0866 108.863 52.9113V69.7013C108.863 69.9416 108.712 70.1558 108.487 70.2341C108.257 70.3125 108.012 70.2394 107.86 70.0565L107.756 69.9207C107.698 69.8476 107.646 69.7692 107.573 69.7013C106.141 68.2699 103.67 68.2751 102.249 69.7013L93.0865 78.8642C92.9611 78.9896 92.7835 79.047 92.6164 79.0261L91.0178 78.8224C91.0178 78.8224 90.8298 78.8015 90.5581 78.8015C89.7379 78.8015 88.1603 78.9791 86.7968 80.1807L81.9437 84.9658C81.9437 84.9658 79.572 87.3689 79.572 89.9861V102.069V102.064Z" fill="black"/>
<path d="M103.843 106.379C103.843 108.448 102.166 110.13 100.092 110.13H76.516C74.4473 110.13 72.7651 108.453 72.7651 106.379C72.7651 104.305 74.4473 102.628 76.516 102.628H100.092C102.161 102.628 103.843 104.305 103.843 106.379Z" fill="white"/>
<path d="M100.092 110.689H76.516C74.139 110.689 72.2009 108.756 72.2009 106.379C72.2009 104.002 74.1338 102.069 76.516 102.069H100.092C102.469 102.069 104.402 104.002 104.402 106.379C104.402 108.756 102.469 110.689 100.092 110.689ZM76.516 103.192C74.7555 103.192 73.3293 104.624 73.3293 106.379C73.3293 108.134 74.7607 109.566 76.516 109.566H100.092C101.847 109.566 103.279 108.134 103.279 106.379C103.279 104.624 101.847 103.192 100.092 103.192H76.516Z" fill="black"/>
<path d="M100.557 110.125H76.0457V134.756H100.557V110.125Z" fill="white"/>
<path d="M100.557 135.32H76.0458C75.7323 135.32 75.4816 135.069 75.4816 134.756V110.125C75.4816 109.811 75.7323 109.56 76.0458 109.56H100.557C100.87 109.56 101.121 109.811 101.121 110.125V134.756C101.121 135.069 100.87 135.32 100.557 135.32ZM76.6099 134.192H99.9926V110.689H76.6099V134.192Z" fill="black"/>
<path d="M20.4153 52.9165V69.7065C20.5197 69.5707 20.619 69.4296 20.7444 69.3042C22.4317 67.6169 25.1743 67.6169 26.8617 69.3042L36.0246 78.4671L37.6231 78.2634C37.6231 78.2634 40.1881 77.9082 42.2829 79.7575L47.1622 84.5636C47.1622 84.5636 49.701 87.092 49.701 89.9861V102.633H31.3595V98.2087L16.4032 84.3859C16.4032 84.3859 12.5322 80.9224 12.5322 77.1246V45.279C12.5322 45.279 20.41 45.3731 20.41 52.9165H20.4153Z" fill="white"/>
<path d="M49.6958 103.192H31.3596C31.0461 103.192 30.7954 102.942 30.7954 102.628V98.449L16.0219 84.7934C15.8652 84.6524 11.9733 81.121 11.9733 77.1194V45.2738C11.9733 45.1223 12.036 44.9813 12.1404 44.8716C12.2449 44.7671 12.3755 44.7253 12.5427 44.7096C12.6263 44.7096 20.9795 44.9029 20.9795 52.9113V68.3639C21.7996 67.7788 22.7765 67.4654 23.8056 67.4654C25.1116 67.4654 26.3393 67.9721 27.2587 68.8968L36.2231 77.8612L37.55 77.6888C37.55 77.6888 40.3866 77.3179 42.6591 79.3187L47.5592 84.1456C47.6741 84.2554 50.2652 86.8778 50.2652 89.9704V102.618C50.2652 102.931 50.0145 103.182 49.701 103.182L49.6958 103.192ZM31.9237 102.064H49.1316V89.9809C49.1316 87.3532 46.786 84.9815 46.7599 84.9606L41.8859 80.1597C40.5486 78.9791 38.9709 78.8015 38.1508 78.8015C37.8791 78.8015 37.7119 78.8224 37.6963 78.8224L36.0925 79.0313C35.9253 79.0522 35.7477 78.9948 35.6223 78.8694L26.4594 69.7065C25.0385 68.2856 22.5623 68.2856 21.1414 69.7065C21.063 69.7796 21.0056 69.8632 20.9429 69.9416L20.8541 70.0565C20.7078 70.2446 20.4571 70.3177 20.2272 70.2393C20.0026 70.161 19.8511 69.9468 19.8511 69.7065V52.9165C19.8511 47.0761 14.8308 46.0574 13.0964 45.8798V77.1246C13.0964 80.6299 16.7428 83.9315 16.7794 83.968L31.7409 97.796C31.8558 97.9005 31.9237 98.052 31.9237 98.2087V102.074V102.064Z" fill="black"/>
<path d="M24.8661 106.379C24.8661 108.448 26.5482 110.13 28.6169 110.13H52.1929C54.2616 110.13 55.9437 108.453 55.9437 106.379C55.9437 104.305 54.2616 102.628 52.1929 102.628H28.6169C26.5482 102.628 24.8661 104.305 24.8661 106.379Z" fill="white"/>
<path d="M52.193 110.689H28.617C26.2349 110.689 24.302 108.756 24.302 106.379C24.302 104.002 26.2349 102.069 28.617 102.069H52.193C54.5699 102.069 56.508 104.002 56.508 106.379C56.508 108.756 54.5751 110.689 52.193 110.689ZM28.617 103.192C26.8565 103.192 25.4304 104.624 25.4304 106.379C25.4304 108.134 26.8618 109.566 28.617 109.566H52.193C53.9482 109.566 55.3796 108.134 55.3796 106.379C55.3796 104.624 53.9482 103.192 52.193 103.192H28.617Z" fill="black"/>
<path d="M52.6631 110.125H28.1521V134.756H52.6631V110.125Z" fill="white"/>
<path d="M52.6579 135.32H28.1521C27.8386 135.32 27.5879 135.069 27.5879 134.756V110.125C27.5879 109.811 27.8386 109.56 28.1521 109.56H52.6631C52.9766 109.56 53.2273 109.811 53.2273 110.125V134.756C53.2273 135.069 52.9766 135.32 52.6631 135.32H52.6579ZM28.7111 134.192H52.0937V110.689H28.7163V134.192H28.7111Z" fill="black"/>
<path d="M60.5827 39.7834L40.7889 27.1204V40.3841V44.5895V52.4516L64.2656 67.4758V42.1394L60.5827 39.7834Z" fill="white"/>
<path d="M64.2656 68.0348C64.1611 68.0348 64.0567 68.0035 63.9626 67.946L40.4912 52.9218C40.3292 52.8173 40.23 52.6397 40.23 52.4464V27.1204C40.23 26.9167 40.3397 26.7234 40.5225 26.6241C40.7054 26.5249 40.9248 26.5301 41.0972 26.645L64.5686 41.6693C64.7306 41.7737 64.8298 41.9514 64.8298 42.1446V67.4758C64.8298 67.6796 64.7201 67.8729 64.5373 67.9721C64.4537 68.0191 64.3597 68.04 64.2656 68.04V68.0348ZM41.3584 52.1382L63.7067 66.4415V42.4476L41.3584 28.1443V52.1382Z" fill="black"/>
<path d="M67.9538 39.7834L64.2656 42.1394V67.4759L87.7423 52.4516V45.1276V40.3842V27.1204L67.9538 39.7834Z" fill="white"/>
<path d="M64.2656 68.0348C64.1716 68.0348 64.0775 68.0139 63.994 67.9669C63.8111 67.8677 63.7014 67.6796 63.7014 67.4706V42.1394C63.7014 41.9461 63.8007 41.7685 63.9626 41.6641L87.4393 26.645C87.6117 26.5353 87.8311 26.5249 88.0139 26.6241C88.1968 26.7234 88.3065 26.9115 88.3065 27.1204V52.4516C88.3065 52.6449 88.2072 52.8225 88.0453 52.927L64.5686 67.9513C64.4746 68.0087 64.3701 68.0401 64.2656 68.0401V68.0348ZM64.8298 42.4477V66.4415L87.1833 52.1382V28.1495L64.8298 42.4529V42.4477Z" fill="black"/>
<path d="M64.2656 42.1394L67.9538 39.7834L87.7423 27.1204L64.2656 12.0962L40.7889 27.1204L60.5827 39.7834L64.2656 42.1394Z" fill="white"/>
<path d="M64.2656 42.7036C64.1611 42.7036 64.0567 42.6723 63.9626 42.6148L40.4912 27.5906C40.3292 27.4861 40.23 27.3085 40.23 27.1152C40.23 26.9219 40.3292 26.7443 40.4912 26.6398L63.9626 11.6156C64.1455 11.4954 64.3858 11.4954 64.5686 11.6156L88.0453 26.6398C88.2072 26.7443 88.3065 26.9219 88.3065 27.1152C88.3065 27.3085 88.2072 27.4861 88.0453 27.5906L64.5686 42.6148C64.4746 42.6723 64.3701 42.7036 64.2656 42.7036ZM41.839 27.1152L64.2656 41.4708L86.6975 27.1152L64.2656 12.7596L41.839 27.1152Z" fill="black"/>
<path d="M92.6895 78.4672L101.852 69.3043C103.54 67.6169 106.277 67.6169 107.97 69.3043C109.657 70.9916 109.657 73.7342 107.97 75.4216L96.3724 87.0189" fill="white"/>
<path d="M96.3672 87.5778C96.2209 87.5778 96.0799 87.5204 95.9702 87.4107C95.7508 87.1913 95.7508 86.836 95.9702 86.6166L107.567 75.0193C109.035 73.5514 109.035 71.164 107.567 69.6961C106.1 68.2334 103.712 68.2281 102.249 69.6961L93.0865 78.859C92.8671 79.0784 92.5119 79.0784 92.2925 78.859C92.0731 78.6396 92.0731 78.2843 92.2925 78.0649L101.455 68.902C103.357 66.9953 106.46 66.9953 108.367 68.902C110.274 70.8088 110.274 73.9119 108.367 75.8134L96.7695 87.4107C96.6598 87.5204 96.5135 87.5778 96.3724 87.5778H96.3672Z" fill="black"/>
<path d="M36.0194 78.4672L26.8565 69.3043C25.1691 67.6169 22.4317 67.6169 20.7391 69.3043C19.0518 70.9916 19.0518 73.7342 20.7391 75.4216L32.3364 87.0189" fill="white"/>
<path d="M32.3417 87.5778C32.1955 87.5778 32.0544 87.5204 31.9447 87.4107L20.3474 75.8134C18.4407 73.9066 18.4407 70.8036 20.3474 68.902C21.2721 67.9774 22.4997 67.4706 23.8057 67.4706C25.1117 67.4706 26.3394 67.9774 27.2588 68.902L36.4217 78.0649C36.6411 78.2843 36.6411 78.6396 36.4217 78.859C36.2023 79.0784 35.8471 79.0784 35.6276 78.859L26.4647 69.6961C25.7543 68.9856 24.814 68.5938 23.8057 68.5938C22.8027 68.5938 21.8572 68.9856 21.1467 69.6961C19.6788 71.164 19.6788 73.5514 21.1467 75.0193L32.744 86.6166C32.9634 86.836 32.9634 87.1913 32.744 87.4107C32.6343 87.5204 32.488 87.5778 32.347 87.5778H32.3417Z" fill="black"/>
<path d="M249.979 289.162L305.907 311.552V266.772L249.979 289.162Z" fill="white"/>
<path d="M305.907 312.116C305.839 312.116 305.766 312.1 305.698 312.074L249.77 289.684C249.556 289.601 249.415 289.392 249.415 289.162C249.415 288.932 249.556 288.723 249.77 288.639L305.698 266.249C305.871 266.176 306.069 266.202 306.221 266.307C306.377 266.411 306.466 266.589 306.466 266.772V311.552C306.466 311.74 306.372 311.912 306.221 312.017C306.127 312.079 306.017 312.116 305.907 312.116ZM251.494 289.162L305.343 310.721V267.602L251.494 289.162Z" fill="black"/>
<path d="M305.907 311.552L361.841 289.162L305.907 266.772V311.552Z" fill="white"/>
<path d="M305.907 312.116C305.798 312.116 305.688 312.085 305.594 312.017C305.437 311.912 305.348 311.735 305.348 311.552V266.772C305.348 266.584 305.442 266.411 305.594 266.307C305.745 266.202 305.944 266.181 306.116 266.249L362.05 288.639C362.264 288.723 362.405 288.932 362.405 289.162C362.405 289.392 362.264 289.601 362.05 289.684L306.116 312.074C306.048 312.1 305.98 312.116 305.907 312.116ZM306.472 267.602V310.721L360.326 289.162L306.472 267.602Z" fill="black"/>
<path d="M249.979 289.162L305.907 311.552L249.979 289.162Z" fill="white"/>
<path d="M305.907 312.116C305.839 312.116 305.766 312.1 305.698 312.074L249.77 289.684C249.551 289.595 249.415 289.386 249.415 289.162C249.415 289.094 249.431 289.021 249.457 288.953C249.572 288.66 249.906 288.524 250.188 288.639L306.116 311.029C306.336 311.118 306.471 311.327 306.471 311.552C306.471 311.62 306.456 311.693 306.43 311.761C306.341 311.98 306.132 312.116 305.907 312.116Z" fill="black"/>
<path d="M291.306 330.86L249.979 314.315V343.695L305.907 366.085V311.552L291.306 330.86Z" fill="white"/>
<path d="M305.907 366.644C305.839 366.644 305.766 366.629 305.698 366.602L249.77 344.212C249.556 344.129 249.415 343.92 249.415 343.69V314.31C249.415 314.122 249.509 313.95 249.66 313.845C249.812 313.741 250.01 313.72 250.183 313.788L291.108 330.17L305.453 311.207C305.599 311.014 305.85 310.935 306.08 311.014C306.31 311.092 306.466 311.306 306.466 311.547V366.075C306.466 366.263 306.372 366.435 306.221 366.54C306.127 366.602 306.017 366.639 305.907 366.639V366.644ZM250.538 343.309L305.343 365.249V313.229L291.75 331.194C291.599 331.398 291.327 331.471 291.092 331.377L250.538 315.141V343.303V343.309Z" fill="black"/>
<path d="M305.907 311.552L249.979 289.162L235.373 308.47L249.979 314.315L291.306 330.86L305.907 311.552Z" fill="white"/>
<path d="M291.306 331.419C291.238 331.419 291.165 331.403 291.097 331.377L235.164 308.987C235.002 308.924 234.876 308.783 234.829 308.616C234.782 308.449 234.819 308.266 234.923 308.125L249.53 288.817C249.686 288.613 249.953 288.54 250.188 288.634L306.116 311.024C306.278 311.087 306.404 311.228 306.451 311.395C306.498 311.562 306.466 311.745 306.357 311.886L291.75 331.189C291.64 331.335 291.473 331.414 291.301 331.414L291.306 331.419ZM236.271 308.219L291.118 330.175L305.019 311.803L250.172 289.846L236.271 308.219Z" fill="black"/>
<path d="M305.913 311.552L361.846 289.162H361.841L305.907 311.552V366.085L361.846 343.695V314.315L320.519 330.86L305.913 311.552Z" fill="white"/>
<path d="M305.907 366.644C305.798 366.644 305.688 366.613 305.594 366.545C305.437 366.44 305.348 366.268 305.348 366.08V311.552C305.348 311.322 305.489 311.113 305.704 311.029L361.637 288.639C361.924 288.524 362.253 288.665 362.368 288.953C362.483 289.24 362.342 289.569 362.055 289.684L306.811 311.803L320.712 330.175L361.637 313.793C361.809 313.72 362.008 313.746 362.159 313.85C362.311 313.955 362.405 314.133 362.405 314.315V343.695C362.405 343.925 362.264 344.134 362.05 344.218L306.116 366.608C306.048 366.634 305.98 366.649 305.907 366.649V366.644ZM306.472 313.229V365.249L361.277 343.309V315.146L320.723 331.377C320.488 331.471 320.216 331.398 320.064 331.194L306.466 313.224L306.472 313.229Z" fill="black"/>
<path d="M249.979 289.162L305.907 266.772L285.252 267.764L229.318 290.16L249.979 289.162Z" fill="white"/>
<path d="M229.318 290.719C229.057 290.719 228.822 290.536 228.77 290.274C228.712 290.008 228.853 289.736 229.109 289.632L285.043 267.242C285.1 267.221 285.163 267.205 285.225 267.2L305.886 266.208C306.21 266.171 306.409 266.38 306.466 266.652C306.524 266.918 306.383 267.19 306.127 267.294L250.198 289.684C250.141 289.705 250.078 289.721 250.016 289.726L229.355 290.719C229.355 290.719 229.334 290.719 229.329 290.719H229.318ZM285.372 268.323L232.641 289.433L249.859 288.603L302.585 267.493L285.372 268.323Z" fill="black"/>
<path d="M249.979 289.726C249.754 289.726 249.546 289.59 249.457 289.371C249.431 289.303 249.415 289.23 249.415 289.162C249.415 288.937 249.551 288.728 249.77 288.639L305.698 266.249C305.986 266.134 306.315 266.275 306.43 266.563C306.456 266.631 306.471 266.704 306.471 266.772C306.471 266.996 306.336 267.205 306.116 267.294L250.188 289.684C250.12 289.71 250.047 289.726 249.979 289.726Z" fill="black"/>
<path d="M250.015 289.726C249.702 289.726 249.446 289.475 249.446 289.162C249.446 288.848 249.692 288.598 250.005 288.598H250.015C250.324 288.598 250.58 288.848 250.58 289.162C250.58 289.475 250.329 289.726 250.015 289.726Z" fill="black"/>
<path d="M250.015 289.726C249.702 289.726 249.446 289.475 249.446 289.162C249.446 288.848 249.692 288.598 250.005 288.598H250.015C250.324 288.598 250.58 288.848 250.58 289.162C250.58 289.475 250.329 289.726 250.015 289.726Z" fill="black"/>
<path d="M305.913 311.552L320.519 330.86L361.846 314.315L376.447 308.47L361.846 289.162L305.913 311.552Z" fill="white"/>
<path d="M320.519 331.419C320.346 331.419 320.179 331.34 320.07 331.194L305.463 311.891C305.359 311.75 305.322 311.568 305.369 311.4C305.416 311.233 305.542 311.092 305.704 311.029L361.637 288.639C361.872 288.545 362.138 288.618 362.295 288.822L376.902 308.13C377.006 308.271 377.043 308.454 376.996 308.621C376.949 308.788 376.823 308.929 376.661 308.992L320.733 331.382C320.665 331.408 320.597 331.424 320.524 331.424L320.519 331.419ZM306.806 311.803L320.707 330.175L375.554 308.219L361.653 289.846L306.806 311.803Z" fill="black"/>
<path d="M361.846 289.162L382.507 290.16L326.573 267.764L305.912 266.772L361.846 289.162Z" fill="white"/>
<path d="M382.507 290.719C382.507 290.719 382.491 290.719 382.481 290.719L361.82 289.726C361.757 289.726 361.694 289.71 361.637 289.684L305.703 267.294C305.447 267.19 305.306 266.918 305.364 266.652C305.421 266.385 305.63 266.171 305.944 266.207L326.605 267.2C326.667 267.2 326.73 267.216 326.787 267.242L382.721 289.632C382.977 289.736 383.118 290.008 383.06 290.274C383.003 290.536 382.773 290.719 382.512 290.719H382.507ZM361.966 288.603L379.184 289.433L326.453 268.323L309.235 267.493L361.966 288.603Z" fill="black"/>
<path d="M305.907 266.772L361.841 289.162H361.846L305.912 266.772H305.907Z" fill="white"/>
<path d="M361.846 289.726C361.778 289.726 361.705 289.71 361.637 289.684L305.703 267.294C305.416 267.179 305.275 266.85 305.39 266.563C305.505 266.275 305.834 266.134 306.121 266.249L362.055 288.639C362.342 288.754 362.483 289.083 362.368 289.371C362.279 289.59 362.07 289.721 361.851 289.726H361.846Z" fill="black"/>
<path d="M250.015 289.726C249.702 289.726 249.446 289.475 249.446 289.162C249.446 288.848 249.692 288.598 250.005 288.598H250.015C250.324 288.598 250.58 288.848 250.58 289.162C250.58 289.475 250.329 289.726 250.015 289.726Z" fill="black"/>
<path d="M318.199 281.054V236.708H293.767V281.054H285.299L305.98 303.998L326.667 281.054H318.199Z" fill="white"/>
<path d="M305.98 304.562C305.818 304.562 305.667 304.494 305.562 304.374L284.881 281.43C284.729 281.263 284.693 281.028 284.787 280.824C284.875 280.621 285.079 280.49 285.304 280.49H293.208V236.708C293.208 236.394 293.458 236.143 293.772 236.143H318.205C318.518 236.143 318.769 236.394 318.769 236.708V280.49H326.673C326.897 280.49 327.096 280.621 327.19 280.824C327.279 281.028 327.242 281.263 327.091 281.43L306.409 304.374C306.304 304.494 306.153 304.562 305.991 304.562H305.98ZM286.563 281.618L305.98 303.157L325.398 281.618H318.194C317.881 281.618 317.63 281.368 317.63 281.054V237.272H294.326V281.054C294.326 281.368 294.075 281.618 293.761 281.618H286.563Z" fill="black"/>
<path d="M318.126 228.145H293.693V232.727H318.126V228.145Z" fill="white"/>
<path d="M318.126 233.291H293.693C293.38 233.291 293.129 233.04 293.129 232.727V228.145C293.129 227.832 293.38 227.581 293.693 227.581H318.126C318.44 227.581 318.69 227.832 318.69 228.145V232.727C318.69 233.04 318.44 233.291 318.126 233.291ZM294.258 232.163H317.562V228.71H294.258V232.163Z" fill="black"/>
<path d="M318.126 219.782H293.693V224.358H318.126V219.782Z" fill="white"/>
<path d="M318.126 224.922H293.693C293.38 224.922 293.129 224.671 293.129 224.358V219.782C293.129 219.468 293.38 219.218 293.693 219.218H318.126C318.44 219.218 318.69 219.468 318.69 219.782V224.358C318.69 224.671 318.44 224.922 318.126 224.922ZM294.258 223.794H317.562V220.341H294.258V223.794Z" fill="black"/>
<path d="M296.718 370.353C296.494 370.353 296.285 370.217 296.196 369.998C296.081 369.711 296.222 369.382 296.509 369.267L305.771 365.558C306.059 365.437 306.388 365.584 306.503 365.871C306.618 366.158 306.477 366.487 306.189 366.602L296.922 370.311C296.854 370.338 296.781 370.353 296.713 370.353H296.718Z" fill="black"/>
<path d="M361.841 344.338C361.616 344.338 361.407 344.202 361.318 343.982C361.203 343.695 361.344 343.366 361.632 343.251L370.899 339.542C371.186 339.422 371.515 339.568 371.63 339.856C371.745 340.143 371.604 340.472 371.317 340.587L362.05 344.296C361.982 344.322 361.909 344.338 361.841 344.338Z" fill="black"/>
<path d="M287.242 374.125C287.017 374.125 286.808 373.989 286.719 373.77C286.605 373.482 286.746 373.153 287.033 373.038L292.852 370.708C293.135 370.594 293.469 370.735 293.584 371.022C293.699 371.309 293.558 371.638 293.27 371.753L287.451 374.083C287.383 374.109 287.315 374.125 287.242 374.125Z" fill="black"/>
<path d="M244.609 346.485C244.384 346.485 244.175 346.349 244.086 346.13C243.971 345.842 244.113 345.513 244.4 345.398L249.77 343.246C250.057 343.131 250.387 343.272 250.502 343.559C250.616 343.847 250.475 344.176 250.188 344.291L244.818 346.438C244.75 346.464 244.677 346.48 244.609 346.48V346.485Z" fill="black"/>
<path d="M236.203 350.058C235.979 350.058 235.77 349.922 235.681 349.703C235.566 349.415 235.707 349.086 235.994 348.971L240.33 347.237C240.612 347.122 240.947 347.263 241.062 347.55C241.177 347.838 241.036 348.167 240.748 348.282L236.412 350.016C236.344 350.042 236.271 350.058 236.203 350.058Z" fill="black"/>
<path d="M347.705 186.014C347.391 186.014 347.14 185.763 347.14 185.45V160.061C347.14 159.747 347.391 159.497 347.705 159.497C348.018 159.497 348.269 159.747 348.269 160.061V185.45C348.269 185.763 348.018 186.014 347.705 186.014Z" fill="black"/>
<path d="M351.973 243.99C362.792 243.99 371.563 235.219 371.563 224.4C371.563 213.581 362.792 204.81 351.973 204.81C341.153 204.81 332.383 213.581 332.383 224.4C332.383 235.219 341.153 243.99 351.973 243.99Z" fill="white"/>
<path d="M351.973 244.554C340.861 244.554 331.818 235.511 331.818 224.4C331.818 213.288 340.861 204.246 351.973 204.246C363.084 204.246 372.127 213.288 372.127 224.4C372.127 235.511 363.084 244.554 351.973 244.554ZM351.973 205.369C341.483 205.369 332.947 213.905 332.947 224.4C332.947 234.895 341.483 243.431 351.973 243.431C362.462 243.431 370.998 234.895 370.998 224.4C370.998 213.905 362.462 205.369 351.973 205.369Z" fill="black"/>
<path d="M337.674 230.522V229.76C342.632 226.322 345.108 223.684 345.108 221.856C345.108 220.027 343.922 219.05 341.54 219.05C340.292 219.05 339.116 219.359 338.014 219.985V219.134C339.116 218.57 340.292 218.282 341.54 218.282C344.513 218.282 346.002 219.474 346.002 221.85C346.002 223.945 343.666 226.583 338.996 229.754H346.002V230.517H337.674V230.522Z" fill="black"/>
<path d="M355.582 230.522H354.689V227.633H347.699V226.865L353.012 218.366H353.979L348.655 226.865H354.684V222.038H355.577V226.865L356.92 227.174V227.633H355.577V230.522H355.582Z" fill="black"/>
<path d="M358.926 230.522V218.366H359.819V222.566C360.864 221.918 361.93 221.594 363.021 221.594C365.195 221.594 366.276 222.702 366.276 224.917V230.517H365.383V224.551C365.383 223.109 364.578 222.394 362.974 222.394C361.903 222.394 360.848 222.77 359.814 223.522V230.517H358.921L358.926 230.522Z" fill="black"/>
<path d="M319.203 142.305V187.847L339.059 209.673" fill="white"/>
<path d="M339.059 210.237C338.907 210.237 338.751 210.175 338.641 210.055L318.79 188.229C318.696 188.124 318.643 187.988 318.643 187.847V142.305C318.643 141.991 318.894 141.74 319.208 141.74C319.521 141.74 319.772 141.991 319.772 142.305V187.628L339.477 209.292C339.686 209.522 339.67 209.877 339.44 210.086C339.33 210.185 339.195 210.232 339.059 210.232V210.237Z" fill="black"/>
<path d="M358.926 267.336C358.779 267.336 358.638 267.278 358.529 267.169C358.309 266.949 358.309 266.594 358.529 266.375L375.663 249.229L365.539 238.515C365.325 238.29 365.335 237.93 365.56 237.721C365.785 237.507 366.14 237.517 366.354 237.742L376.854 248.853C377.063 249.078 377.058 249.423 376.844 249.637L359.323 267.169C359.213 267.278 359.067 267.336 358.926 267.336Z" fill="black"/>
<path d="M327.012 150.679C326.866 150.679 326.725 150.626 326.615 150.511L319.202 143.099L311.795 150.511C311.575 150.731 311.22 150.731 311.001 150.511C310.781 150.292 310.781 149.937 311.001 149.717L318.811 141.907C319.019 141.699 319.396 141.699 319.605 141.907L327.414 149.717C327.634 149.937 327.634 150.292 327.414 150.511C327.305 150.621 327.158 150.679 327.017 150.679H327.012Z" fill="black"/>
<path d="M358.926 267.336C358.774 267.336 358.633 267.278 358.529 267.169C358.424 267.064 358.362 266.918 358.362 266.772V255.728C358.362 255.415 358.612 255.164 358.926 255.164C359.239 255.164 359.49 255.415 359.49 255.728V266.207H369.969C370.283 266.207 370.534 266.458 370.534 266.772C370.534 267.085 370.283 267.336 369.969 267.336H358.926Z" fill="black"/>
<path d="M29.3588 147.764L18.3101 155.438L37.3098 167.28L49.6019 185.826L67.2015 173.602L29.3588 147.764Z" fill="white"/>
<path d="M49.6019 186.39C49.5654 186.39 49.534 186.39 49.4975 186.379C49.346 186.353 49.2154 186.265 49.1318 186.139L36.9076 167.693L18.0124 155.918C17.8504 155.819 17.7512 155.641 17.7459 155.453C17.7407 155.265 17.8295 155.082 17.9862 154.978L29.035 147.304C29.2283 147.173 29.4791 147.173 29.6724 147.304L67.5151 173.142C67.6666 173.246 67.7606 173.419 67.7606 173.607C67.7606 173.79 67.6718 173.967 67.5203 174.072L49.9206 186.296C49.8266 186.364 49.7116 186.395 49.6019 186.395V186.39ZM19.334 155.417L37.6076 166.805C37.6755 166.847 37.733 166.904 37.78 166.972L49.7587 185.037L66.2143 173.607L29.3641 148.448L19.334 155.417Z" fill="black"/>
<path d="M73.5488 236.608L85.3602 228.401L74.3689 183.919L56.764 196.143L70.4614 215.623L73.5488 236.608Z" fill="white"/>
<path d="M73.5487 237.172C73.4703 237.172 73.3972 237.157 73.3241 237.125C73.1464 237.047 73.0211 236.885 72.9897 236.692L69.9232 215.838L56.3042 196.467C56.2207 196.347 56.1841 196.195 56.2102 196.044C56.2363 195.898 56.3199 195.767 56.4453 195.678L74.0502 183.454C74.2017 183.35 74.395 183.323 74.5726 183.391C74.745 183.454 74.8756 183.606 74.9226 183.783L85.9139 228.266C85.9714 228.49 85.8773 228.73 85.6893 228.866L73.8726 237.073C73.7785 237.141 73.6636 237.172 73.5539 237.172H73.5487ZM57.5528 196.284L70.921 215.305C70.9733 215.378 71.0046 215.456 71.0203 215.545L73.9718 235.631L84.7228 228.166L74.0189 184.854L57.5528 196.289V196.284Z" fill="black"/>
<path d="M90.1924 157.632L67.2016 173.596L49.6019 185.82L32.8381 197.46L21.2773 209.313L23.0692 211.894L24.861 214.474L40.0054 207.782L56.7692 196.143L74.3741 183.919L97.365 167.954C100.212 165.974 100.917 162.062 98.9426 159.215C96.968 156.362 93.05 155.657 90.2029 157.637L90.1924 157.632Z" fill="white"/>
<path d="M24.861 215.038C24.6833 215.038 24.5057 214.955 24.4013 214.798L20.8176 209.642C20.6661 209.423 20.687 209.12 20.875 208.926L32.4358 197.073L89.8737 157.172C91.023 156.373 92.3708 155.95 93.7708 155.95C96.0172 155.95 98.1224 157.052 99.3971 158.891C101.549 161.989 100.776 166.262 97.6784 168.414L40.324 208.247L25.0856 214.991C25.0125 215.023 24.9341 215.038 24.8557 215.038H24.861ZM22.0034 209.381L25.0595 213.774L39.7807 207.27L97.0463 167.489C99.6374 165.692 100.28 162.119 98.4829 159.533C97.4172 157.992 95.6567 157.073 93.7813 157.073C92.6163 157.073 91.4879 157.428 90.5267 158.097L33.1724 197.93L22.0139 209.381H22.0034Z" fill="black"/>
<path d="M7.52257 202.903L5.09863 204.585L16.9989 216.114L23.6439 231.295L26.073 229.608L24.861 214.474L23.0692 211.899L21.2774 209.318L7.52257 202.903Z" fill="white"/>
<path d="M23.6438 231.86C23.5916 231.86 23.5393 231.854 23.4923 231.839C23.3304 231.792 23.1945 231.677 23.1318 231.52L16.5339 216.438L4.70677 204.987C4.58662 204.867 4.52393 204.705 4.5396 204.538C4.55528 204.371 4.63886 204.219 4.77991 204.12L7.20907 202.438C7.37102 202.323 7.5852 202.307 7.76804 202.391L21.5176 208.811C21.6064 208.853 21.6848 208.921 21.7423 208.999L25.3259 214.155C25.3834 214.239 25.4147 214.333 25.4252 214.432L26.6371 229.561C26.6528 229.76 26.564 229.953 26.3968 230.068L23.9677 231.755C23.8737 231.823 23.7587 231.854 23.6438 231.854V231.86ZM5.98143 204.658L17.3959 215.707C17.4481 215.759 17.4899 215.817 17.5213 215.885L23.8841 230.439L25.4879 229.326L24.3177 214.673L20.9064 209.767L7.5852 203.551L5.98665 204.658H5.98143Z" fill="black"/>
<path d="M71.2136 180.696C71.036 180.696 70.8584 180.612 70.7487 180.455C70.5711 180.199 70.6338 179.849 70.8897 179.672L99.2665 159.967C99.5225 159.794 99.8725 159.852 100.05 160.108C100.228 160.364 100.165 160.714 99.9091 160.892L71.5323 180.596C71.433 180.664 71.3233 180.696 71.2136 180.696Z" fill="black"/>
<path d="M58.7125 247.474C58.5349 247.474 58.3573 247.391 58.2476 247.234C58.07 246.978 58.1327 246.628 58.3886 246.45L73.2248 236.149C73.4808 235.976 73.8308 236.034 74.0084 236.29C74.186 236.546 74.1233 236.896 73.8674 237.073L59.0312 247.375C58.9319 247.443 58.8222 247.474 58.7125 247.474Z" fill="black"/>
<path d="M3.60448 166.319C3.42687 166.319 3.24925 166.236 3.13955 166.079C2.96193 165.823 3.02462 165.473 3.2806 165.295L18.1168 154.994C18.3727 154.816 18.7228 154.879 18.9004 155.135C19.078 155.391 19.0153 155.741 18.7593 155.918L3.92315 166.22C3.82389 166.288 3.71419 166.319 3.60448 166.319Z" fill="black"/>
<path d="M60.0133 224.159C59.8357 224.159 59.6581 224.076 59.5484 223.919C59.3707 223.663 59.4334 223.313 59.6894 223.136L74.5935 212.782C74.8495 212.604 75.1995 212.667 75.3771 212.923C75.5547 213.179 75.492 213.529 75.2361 213.706L60.332 224.06C60.2327 224.128 60.123 224.159 60.0133 224.159Z" fill="black"/>
<path d="M26.4386 175.331C26.261 175.331 26.0834 175.247 25.9789 175.09C25.8013 174.834 25.864 174.484 26.12 174.307L41.024 163.953C41.28 163.78 41.63 163.838 41.8076 164.094C41.9853 164.35 41.9226 164.7 41.6666 164.877L26.7625 175.231C26.6632 175.299 26.5535 175.331 26.4386 175.331Z" fill="black"/>
<path d="M139.632 372.338H114.609C114.296 372.338 114.045 372.088 114.045 371.774C114.045 371.461 114.296 371.21 114.609 371.21H139.632C139.946 371.21 140.197 371.461 140.197 371.774C140.197 372.088 139.946 372.338 139.632 372.338Z" fill="black"/>
<path d="M155.315 371.79H149.955C149.641 371.79 149.391 371.539 149.391 371.226C149.391 370.912 149.641 370.661 149.955 370.661H155.315C155.628 370.661 155.879 370.912 155.879 371.226C155.879 371.539 155.628 371.79 155.315 371.79Z" fill="black"/>
<path d="M166.572 20.3135C165.026 20.3135 163.762 19.0546 163.762 17.503C163.762 15.9515 165.021 14.6925 166.572 14.6925C168.124 14.6925 169.383 15.9515 169.383 17.503C169.383 19.0546 168.124 20.3135 166.572 20.3135ZM166.572 15.8209C165.643 15.8209 164.89 16.5731 164.89 17.503C164.89 18.4329 165.643 19.1852 166.572 19.1852C167.502 19.1852 168.255 18.4329 168.255 17.503C168.255 16.5731 167.502 15.8209 166.572 15.8209Z" fill="black"/>
<path d="M140.092 64.7385C139.946 64.7385 139.805 64.681 139.695 64.5713L130.213 55.0897C129.994 54.8703 129.994 54.5151 130.213 54.2957C130.433 54.0763 130.788 54.0763 131.007 54.2957L140.489 63.7773C140.708 63.9967 140.708 64.3519 140.489 64.5713C140.379 64.681 140.233 64.7385 140.092 64.7385Z" fill="black"/>
<path d="M130.61 64.7385C130.464 64.7385 130.323 64.681 130.213 64.5713C129.994 64.3519 129.994 63.9967 130.213 63.7773L139.695 54.2957C139.914 54.0763 140.27 54.0763 140.489 54.2957C140.708 54.5151 140.708 54.8703 140.489 55.0897L131.007 64.5713C130.898 64.681 130.751 64.7385 130.61 64.7385Z" fill="black"/>
<path d="M149.292 43.6596H140.092C139.779 43.6596 139.528 43.4089 139.528 43.0954C139.528 42.782 139.779 42.5312 140.092 42.5312H149.292C149.605 42.5312 149.856 42.782 149.856 43.0954C149.856 43.4089 149.605 43.6596 149.292 43.6596Z" fill="black"/>
<path d="M190.248 25.1144H178.395C178.081 25.1144 177.83 24.8636 177.83 24.5502C177.83 24.2367 178.081 23.986 178.395 23.986H190.248C190.561 23.986 190.812 24.2367 190.812 24.5502C190.812 24.8636 190.561 25.1144 190.248 25.1144Z" fill="black"/>
<path d="M229.041 15.3141H215.339C215.025 15.3141 214.774 15.0634 214.774 14.75C214.774 14.4365 215.025 14.1858 215.339 14.1858H229.041C229.355 14.1858 229.605 14.4365 229.605 14.75C229.605 15.0634 229.355 15.3141 229.041 15.3141Z" fill="black"/>
<path d="M222.971 28.6301H207.419C207.111 28.6301 206.86 28.3846 206.855 28.0764C206.787 23.7718 203.809 20.0941 199.62 19.1329C199.358 19.0702 199.175 18.8351 199.181 18.5687L199.191 18.3754C199.191 18.3075 199.202 18.2448 199.202 18.1769C199.202 9.25953 191.945 2.00339 183.028 2.00339C178.065 2.00339 173.442 4.24448 170.349 8.15204C170.203 8.3401 169.952 8.41324 169.723 8.33488C168.599 7.94308 167.445 7.74457 166.29 7.74457C160.539 7.74457 155.858 12.4253 155.858 18.1769L155.868 18.3284C155.868 18.6418 155.618 18.8926 155.304 18.8926H149.401C144.339 18.8926 140.149 23.0143 140.071 28.0816C140.071 28.3898 139.815 28.6354 139.507 28.6354H123.95C123.636 28.6354 123.386 28.3846 123.386 28.0712C123.386 27.7577 123.636 27.507 123.95 27.507H138.964C139.34 22.0845 143.906 17.7642 149.396 17.7642H154.74C154.954 11.579 160.058 6.61618 166.296 6.61618C167.45 6.61618 168.599 6.7938 169.723 7.14381C173.029 3.15267 177.862 0.875 183.039 0.875C192.567 0.875 200.325 8.6222 200.34 18.156C204.624 19.3419 207.67 23.0875 207.973 27.5122H222.987C223.3 27.5122 223.551 27.763 223.551 28.0764C223.551 28.3898 223.3 28.6406 222.987 28.6406L222.971 28.6301Z" fill="black"/>
<path d="M236.846 28.6302H229.428C229.114 28.6302 228.863 28.3794 228.863 28.066C228.863 27.7525 229.114 27.5018 229.428 27.5018H236.846C237.159 27.5018 237.41 27.7525 237.41 28.066C237.41 28.3794 237.159 28.6302 236.846 28.6302Z" fill="black"/>
<path d="M118.924 28.6302H109.834C109.521 28.6302 109.27 28.3794 109.27 28.066C109.27 27.7525 109.521 27.5018 109.834 27.5018H118.924C119.238 27.5018 119.488 27.7525 119.488 28.066C119.488 28.3794 119.238 28.6302 118.924 28.6302Z" fill="black"/>
</svg>
