<svg width="358" height="355" viewBox="0 0 358 355" fill="none" xmlns="http://www.w3.org/2000/svg">
<mask id="mask0_33_1223" style="mask-type:alpha" maskUnits="userSpaceOnUse" x="0" y="0" width="358" height="355">
<rect width="357.983" height="355" rx="3" transform="matrix(-1 0 0 1 357.992 0)" fill="#D9D9D9"/>
</mask>
<g mask="url(#mask0_33_1223)">
<rect width="357.983" height="355" rx="3" transform="matrix(-1 0 0 1 357.992 0)" fill="white"/>
<path opacity="0.2" d="M502.875 10.8906L335.241 107.436L206.391 33.9217L400.582 -76.8333H371.7L191.965 25.614L15.222 -76.8333H-13.6183L177.53 33.9217L54.4469 104.897L-144.875 -10.7422V5.6983L183.287 195.016L127.961 226.725L-144.875 69.8153V86.4306L113.546 235.012L-97.3425 355H-68.5125L24.2905 302.872L71.6174 331.023L175.155 271.286L320.6 355H349.194L313.557 335.619L369.181 303.745L460.401 355H488.552C489.19 355 489.817 354.938 490.434 354.866L350.571 275.985L474.312 205.617L502.875 221.605V204.856L349.667 115.744L502.875 27.4956V10.9009V10.8906ZM68.8722 113.204L191.955 42.2293L320.806 115.744L197.713 186.719L68.8619 113.204H68.8722ZM71.5146 314.212L38.7158 294.584L127.951 243.34L160.75 262.968L71.5146 314.202V314.212ZM354.756 295.448L299.152 327.311L142.366 235.053L197.713 203.334L354.746 295.448H354.756ZM459.229 196.713L336.146 267.687L212.148 195.026L335.241 124.051L459.239 196.713H459.229Z" fill="#DADADA"/>
</g>
</svg>
