<svg width="1330" height="427" viewBox="0 0 1330 427" fill="none" xmlns="http://www.w3.org/2000/svg">
<mask id="mask0_25_142" style="mask-type:alpha" maskUnits="userSpaceOnUse" x="-1" y="0" width="1331" height="427">
<rect width="1330" height="427" rx="3" transform="matrix(-1 0 0 1 1330 0)" fill="#D9D9D9"/>
</mask>
<g mask="url(#mask0_25_142)">
<rect width="1330" height="427" rx="3" transform="matrix(-1 0 0 1 1330 0)" fill="white"/>
<path opacity="0.2" d="M1330 -155.838L996.217 36.3978L739.657 -109.98L1126.32 -330.509H1068.81L710.934 -126.522L359.013 -330.509H301.587L682.191 -109.98L437.115 31.3411L40.2362 -198.912V-166.177L693.655 210.782L583.493 273.919L40.2362 -38.5108V-5.4274L554.791 290.42L134.88 529.333H192.285L377.069 425.538L471.304 481.591L677.461 362.647L967.065 529.333H1024L953.041 490.743L1063.8 427.278L1245.43 529.333H1301.48C1302.75 529.333 1304 529.21 1305.23 529.067L1026.74 372.003L1273.13 231.889L1330 263.724V230.374L1024.94 52.9395L1330 -122.775V-155.818V-155.838ZM465.838 47.8828L710.913 -93.4384L967.474 52.9395L722.378 194.261L465.817 47.8828H465.838ZM471.099 448.119L405.792 409.037L583.472 307.003L648.779 346.084L471.099 448.099V448.119ZM1035.07 410.757L924.359 474.201L612.175 290.502L722.378 227.344L1035.05 410.757H1035.07ZM1243.09 214.16L998.019 355.481L751.121 210.803L996.217 69.4813L1243.11 214.16H1243.09Z" fill="#DADADA"/>
</g>
</svg>
