<svg width="211" height="32" viewBox="0 0 211 32" fill="none" xmlns="http://www.w3.org/2000/svg">
<g clip-path="url(#clip0_25_1487)">
<path d="M59.1352 28.714H65.1912L66.5898 26.2472H59.1352V28.714ZM106.574 26.3423H101.858V23.9389H106.574C107.334 23.9389 107.882 24.1199 107.882 25.1247C107.882 25.9168 107.547 26.3423 106.574 26.3423ZM101.858 19.8925H106.148C106.787 19.8925 107.063 20.2274 107.063 20.8656C107.063 21.5038 106.637 21.8704 106.148 21.8704H101.858V19.8925ZM108.457 22.1103C109.167 21.8071 109.769 21.3228 109.769 20.1052C109.769 17.7924 107.823 17.5208 106.452 17.5208H99.2098V28.7185H106.574C109.95 28.7185 110.652 26.8628 110.652 25.1564C110.652 23.2373 109.561 22.4453 108.457 22.1103ZM130.766 28.714H136.822L138.221 26.2472H130.766V28.714ZM59.1352 21.8659V24.3281H67.6851L69.1154 21.8659H59.1352ZM119.867 26.3378H115.943V23.8438H119.867C120.324 23.8438 121.026 23.966 121.026 25.0931C121.026 26.1296 120.451 26.3423 119.867 26.3423V26.3378ZM120.021 21.531H115.943V17.5163H113.264V28.714H119.989C121.814 28.714 123.701 27.7092 123.701 25.0614C123.701 21.5898 121.266 21.531 120.017 21.531H120.021ZM125.072 28.714H127.72V17.5163H125.072V28.714ZM74.8953 17.5163L68.4772 28.714H71.641L75.8729 21.3182L80.1321 28.714H83.4497L77.0316 17.5163H74.8998H74.8953ZM90.1711 26.4011C87.5867 26.4011 86.4913 24.912 86.4913 23.0834C86.4913 21.0738 87.7405 19.7341 90.1711 19.7341C92.9094 19.7341 93.8509 21.0738 93.8509 23.0834C93.8509 25.4868 92.0585 26.4011 90.1711 26.4011ZM90.2028 17.2402C85.7309 17.2402 83.5991 19.9785 83.5991 23.0518C83.5991 26.125 85.6676 28.8634 90.2028 28.8634C92.1807 28.8634 96.7431 27.9491 96.7431 23.0518C96.7431 19.8563 94.7018 17.2402 90.2028 17.2402ZM43.7643 26.2472L47.9917 18.8515L52.2509 26.2472H43.7598H43.7643ZM49.1821 15.0495H46.9915L40.5734 26.2472H38.962V32H41.5148V28.714H54.6588V32H57.2161V26.2472H55.6048L49.1866 15.0495H49.1821ZM71.6138 17.5163H59.1397V19.9785H70.1835L71.6138 17.5163ZM130.771 21.8659V24.3281H139.321L140.751 21.8659H130.771ZM143.245 17.5163H130.771V19.9785H141.815L143.245 17.5163ZM208.3 17.5163L201.967 24.7898V17.5163H199.292V28.714H201.546L207.996 21.3816V28.714H210.676V17.5163H208.304H208.3ZM146.531 17.5163L140.108 28.714H143.272L147.504 21.3182L151.763 28.714H155.081L148.658 17.5163H146.531ZM179.146 21.8659H173.272V17.5163H170.592V28.714H173.272V24.3327H179.146V28.714H181.826V17.5163H179.146V21.8659ZM187.543 24.7853V17.5117H184.863V28.7095H187.113L193.562 21.3771V28.7095H196.242V17.5117H193.87L187.543 24.7853ZM158.847 24.7264V17.5163H156.167V28.714H158.421L164.871 21.4404V28.714H167.55V17.5163H165.301L158.851 24.7264H158.847Z" fill="#1D1D1B"/>
<path d="M19.1284 23.269L6.40535 17.7652L3.70323 22.4453L18.015 25.1972L19.1239 23.2736L19.1284 23.269ZM17.3541 28.7321H21.5861L25.3021 22.2914L29.0181 28.7321H33.25L25.3021 14.9635L17.3541 28.7321ZM3.07409 23.5406L0.0732422 28.7321H15.9737L17.3858 26.288L3.07409 23.5361V23.5406ZM24.6141 13.7731L16.6616 0L13.6608 5.20057L23.202 16.2173L24.6141 13.7731ZM22.5683 17.3171L13.0271 6.2959L10.3295 10.9714L21.4594 19.2362L22.5683 17.3126V17.3171ZM20.8574 20.2772L9.72303 12.017L7.0028 16.7242L19.7259 22.2325L20.8529 20.2772H20.8574Z" fill="#F9AE00"/>
</g>
<defs>
<clipPath id="clip0_25_1487">
<rect width="210.594" height="32" fill="white" transform="translate(0.0732422)"/>
</clipPath>
</defs>
</svg>
