<svg width="130" height="32" viewBox="0 0 130 32" fill="none" xmlns="http://www.w3.org/2000/svg">
<g clip-path="url(#clip0_25_1490)">
<path fill-rule="evenodd" clip-rule="evenodd" d="M129.646 0.793715C129.646 0.793715 127.251 0.502686 124.42 0.502686C121.589 0.502686 119.327 0.793715 119.327 0.793715V9.77594H129.646V0.793715Z" fill="#E4003E"/>
<path fill-rule="evenodd" clip-rule="evenodd" d="M129.646 21.9992H119.327V31.1269C119.327 31.1269 122.238 31.4179 124.553 31.4179C126.868 31.4179 129.646 31.0608 129.646 31.0608V21.9992Z" fill="#E4003E"/>
<path fill-rule="evenodd" clip-rule="evenodd" d="M113.15 0.793716H100.437L91.5737 11.7867H87.4331V0.793716H76.4534V31.2063H87.4331V19.7768H91.4282L100.357 31.2063H113.943L100.648 15.0277L113.15 0.793716Z" fill="#242265"/>
<path fill-rule="evenodd" clip-rule="evenodd" d="M35.3257 0.793716H0.666748V31.2063H11.7788V9.41877H24.2137V31.2063H35.3257V0.793716Z" fill="#242265"/>
<path fill-rule="evenodd" clip-rule="evenodd" d="M40.7098 8.84994L39.1092 0.793716C39.1092 0.793716 49.4936 0 55.9624 0C62.4312 0 70.2096 0.793716 70.2096 0.793716C70.2096 0.793716 72.604 6.97148 72.604 15.6759C72.604 24.3803 70.1303 31.2063 70.1303 31.2063C70.1303 31.2063 62.7222 32 55.8831 32C49.0439 32 39.0959 31.2063 39.0959 31.2063L40.6966 23.1501C40.6966 23.1501 47.6681 23.6527 53.6342 23.6527C59.6003 23.6527 61.9153 23.1501 61.9153 23.1501C61.9153 23.1501 62.2063 21.642 62.3518 19.9091H48.1046V12.1439H62.418C62.2725 10.1331 61.9814 8.90285 61.9814 8.90285C61.9814 8.90285 57.1133 8.40016 52.9728 8.40016C48.7528 8.33402 40.6966 8.83671 40.6966 8.83671L40.7098 8.84994Z" fill="#242265"/>
</g>
<defs>
<clipPath id="clip0_25_1490">
<rect width="128.979" height="32" fill="white" transform="translate(0.666748)"/>
</clipPath>
</defs>
</svg>
