<svg width="118" height="32" viewBox="0 0 118 32" fill="none" xmlns="http://www.w3.org/2000/svg">
<g clip-path="url(#clip0_25_1496)">
<path fill-rule="evenodd" clip-rule="evenodd" d="M79.8821 32H88.2196L91.803 21.9338L95.5283 18.8492L98.4632 27.9515C99.3699 30.7641 100.304 32 102.342 32H108.726L102.141 14.1383L117.979 0H107.751L98.136 10.0662C97.0164 11.237 95.8831 12.392 94.7477 13.7698H94.6512L99.4507 0H91.1112L79.8841 32H79.8821Z" fill="#1AB248"/>
<path fill-rule="evenodd" clip-rule="evenodd" d="M79.5232 0C82.1388 0 84.6736 0 86.7984 0L85.0776 5.28241C84.5376 6.94204 83.1637 7.73637 80.1382 7.73637C74.8834 7.73637 67.1095 7.73637 61.8547 7.73637L63.5754 2.45396C64.1155 0.792362 65.4893 0 68.5149 0C71.5405 0 75.6698 0 79.5232 0ZM64.2712 12.1279C69.526 12.1279 77.2999 12.1279 82.5547 12.1298L80.834 17.4123C80.2939 19.0719 78.9201 19.8662 75.8945 19.8662C70.6397 19.8662 62.8659 19.8662 57.611 19.8642L59.3318 14.5818C59.8718 12.9202 61.2457 12.1279 64.2712 12.1279ZM78.1021 24.2597C72.8473 24.2597 65.0734 24.2597 59.8186 24.2597C56.7911 24.2597 55.4192 25.054 54.8792 26.7136L53.1584 31.998C58.4133 31.998 66.1871 32 71.4419 32C74.4675 32 75.8413 31.2057 76.3814 29.546L78.1021 24.2636V24.2597Z" fill="#1AB248"/>
<path fill-rule="evenodd" clip-rule="evenodd" d="M42.0752 7.70681H46.5495C50.3615 7.70878 49.4923 12.3191 47.5626 16.8091C45.8616 20.769 42.8498 24.2617 39.2546 24.2617H31.7942C28.8179 24.2617 27.4461 25.054 26.8685 26.7136L25.0276 31.998H30.4973L35.8447 31.9566C40.5871 31.9192 44.47 31.5861 49.0094 27.6381C53.8069 23.4673 59.4007 12.6285 58.4428 6.36058C57.6899 1.44872 54.9639 0.00197105 48.3609 0H36.3276L29.3205 19.8445L33.7731 19.8504C36.4222 19.8524 37.7527 19.8859 39.162 16.2158L42.0752 7.70681Z" fill="#1AB248"/>
<path fill-rule="evenodd" clip-rule="evenodd" d="M21.5034 7.7344H18.1368C11.3939 7.73834 5.61671 24.2656 13.5896 24.2617H18.7124C21.667 24.2617 23.8588 25.3043 22.889 28.121L21.5507 31.998H16.1185L11.6994 31.9566C6.0464 31.9014 2.39799 29.2051 1.08527 25.1092C-0.33783 20.6783 1.67067 11.4341 7.49315 5.51303C10.8735 2.07749 15.5547 0.00197105 21.5566 0H32.6457L30.9132 4.8409C29.7936 7.97093 27.5052 7.73637 26.2004 7.73637L21.5053 7.73243L21.5034 7.7344Z" fill="#1AB248"/>
</g>
<defs>
<clipPath id="clip0_25_1496">
<rect width="117.333" height="32" fill="white" transform="translate(0.645752)"/>
</clipPath>
</defs>
</svg>
